MontserratZ-ExtraLight.ufo
<glyph name="exclam" format="2">
  <advance width="246"/>
  <unicode hex="0021"/>
  <outline>
    <contour>
      <point x="110.966" y="193.635" type="line"/>
      <point x="104.509" y="700" type="line"/>
      <point x="142.114" y="700" type="line"/>
      <point x="135.513" y="193.635" type="line"/>
    </contour>
    <contour>
      <point x="123.312" y="-3.43346" type="qcurve" smooth="yes"/>
      <point x="110.278" y="-3.43346"/>
      <point x="90.5209" y="16.3232"/>
      <point x="90.5209" y="29.0685" type="qcurve" smooth="yes"/>
      <point x="90.5209" y="42.8138"/>
      <point x="110.278" y="61.5705"/>
      <point x="123.312" y="61.5705" type="qcurve" smooth="yes"/>
      <point x="137.346" y="61.5705"/>
      <point x="155.958" y="42.8138"/>
      <point x="155.958" y="29.0685" type="qcurve" smooth="yes"/>
      <point x="155.958" y="16.3232"/>
      <point x="137.346" y="-3.43346"/>
    </contour>
  </outline>
</glyph>
<glyph name="numbersign" format="2">
  <advance width="686"/>
  <unicode hex="0023"/>
  <outline>
    <contour>
      <point x="415.399" y="0" type="line"/>
      <point x="501.399" y="700" type="line"/>
      <point x="530.213" y="700" type="line"/>
      <point x="444.213" y="0" type="line"/>
    </contour>
    <contour>
      <point x="33.5551" y="204.943" type="line"/>
      <point x="33.5551" y="233.046" type="line"/>
      <point x="619.913" y="233.046" type="line"/>
      <point x="619.913" y="204.943" type="line"/>
    </contour>
    <contour>
      <point x="155.399" y="0" type="line"/>
      <point x="241.544" y="700" type="line"/>
      <point x="270.357" y="700" type="line"/>
      <point x="184.213" y="0" type="line"/>
    </contour>
    <contour>
      <point x="64.8441" y="466.954" type="line"/>
      <point x="64.8441" y="495.057" type="line"/>
      <point x="651.057" y="495.057" type="line"/>
      <point x="651.202" y="466.954" type="line"/>
    </contour>
  </outline>
</glyph>
<glyph name="ampersand" format="2">
  <advance width="643"/>
  <unicode hex="0026"/>
  <outline>
    <contour>
      <point x="275.89" y="-3.86693" type="qcurve" smooth="yes"/>
      <point x="211.589" y="-3.86693"/>
      <point x="111.422" y="39.711"/>
      <point x="54.1217" y="116.722"/>
      <point x="54.1217" y="169.011" type="qcurve" smooth="yes"/>
      <point x="54.1217" y="209.456"/>
      <point x="91.1331" y="280.757"/>
      <point x="175.722" y="353.757"/>
      <point x="248.156" y="396.034" type="qcurve" smooth="yes"/>
      <point x="314.144" y="434.734"/>
      <point x="388.989" y="491"/>
      <point x="420.411" y="543.122"/>
      <point x="420.411" y="574.677" type="qcurve" smooth="yes"/>
      <point x="420.411" y="620.365"/>
      <point x="360.011" y="675.764"/>
      <point x="303.468" y="675.764" type="qcurve" smooth="yes"/>
      <point x="243.924" y="675.764"/>
      <point x="177.669" y="614.654"/>
      <point x="177.669" y="565.11" type="qcurve" smooth="yes"/>
      <point x="177.669" y="541.977"/>
      <point x="191.525" y="499.567"/>
      <point x="229.091" y="448.156"/>
      <point x="262.802" y="411.023" type="qcurve" smooth="yes"/>
      <point x="634.513" y="11.5248" type="line"/>
      <point x="612.867" y="-10.1445" type="line"/>
      <point x="234.833" y="396.532" type="line" smooth="yes"/>
      <point x="199.833" y="434.81"/>
      <point x="160.544" y="489.954"/>
      <point x="145.966" y="538.532"/>
      <point x="145.966" y="564.821" type="qcurve" smooth="yes"/>
      <point x="145.966" y="606.833"/>
      <point x="184.555" y="668.711"/>
      <point x="255.589" y="703.578"/>
      <point x="303.468" y="703.578" type="qcurve" smooth="yes"/>
      <point x="348.202" y="703.578"/>
      <point x="413.658" y="672.711"/>
      <point x="450.103" y="615.122"/>
      <point x="450.103" y="574.966" type="qcurve" smooth="yes"/>
      <point x="450.103" y="539.099"/>
      <point x="416.091" y="478.509"/>
      <point x="335.791" y="415.365"/>
      <point x="266.213" y="374.232" type="qcurve" smooth="yes"/>
      <point x="197.091" y="333.255"/>
      <point x="118.259" y="267.856"/>
      <point x="86.8366" y="206.734"/>
      <point x="86.8366" y="170.745" type="qcurve" smooth="yes"/>
      <point x="86.8366" y="126.913"/>
      <point x="134.958" y="60.2358"/>
      <point x="220.78" y="23.9697"/>
      <point x="276.901" y="23.9697" type="qcurve" smooth="yes"/>
      <point x="350.601" y="23.9697"/>
      <point x="464.3" y="83.5362"/>
      <point x="540.722" y="204.525"/>
      <point x="558.433" y="297.224" type="qcurve"/>
      <point x="585.837" y="289.612" type="line"/>
      <point x="566.692" y="190.323"/>
      <point x="482.091" y="60.1559"/>
      <point x="356.624" y="-3.86693"/>
    </contour>
  </outline>
</glyph>
<glyph name="quotesingle" format="2">
  <advance width="188"/>
  <unicode hex="0027"/>
  <outline>
    <contour>
      <point x="80.6882" y="446.532" type="line"/>
      <point x="77.9658" y="700" type="line"/>
      <point x="110.513" y="700" type="line"/>
      <point x="107.646" y="446.532" type="line"/>
    </contour>
  </outline>
</glyph>
<glyph name="parenleft" format="2">
  <advance width="315"/>
  <unicode hex="0028"/>
  <outline>
    <contour>
      <point x="230.532" y="-194" type="line"/>
      <point x="176.81" y="-103"/>
      <point x="118.232" y="135.144"/>
      <point x="118.232" y="274" type="qcurve" smooth="yes"/>
      <point x="118.232" y="412.856"/>
      <point x="176.81" y="653.856"/>
      <point x="230.532" y="742" type="qcurve"/>
      <point x="261.958" y="742" type="line"/>
      <point x="204.38" y="644.266"/>
      <point x="150.947" y="411.7"/>
      <point x="150.947" y="274" type="qcurve" smooth="yes"/>
      <point x="150.947" y="136.3"/>
      <point x="204.38" y="-96.2661"/>
      <point x="261.958" y="-194" type="qcurve"/>
    </contour>
  </outline>
</glyph>
<glyph name="parenright" format="2">
  <advance width="316"/>
  <unicode hex="0029"/>
  <outline>
    <contour>
      <point x="84.9468" y="-194" type="qcurve"/>
      <point x="53.5209" y="-194" type="line"/>
      <point x="111.243" y="-96.2661"/>
      <point x="164.677" y="136.3"/>
      <point x="164.677" y="274" type="qcurve" smooth="yes"/>
      <point x="164.677" y="411.7"/>
      <point x="111.243" y="644.266"/>
      <point x="53.5209" y="742" type="qcurve"/>
      <point x="84.9468" y="742" type="line"/>
      <point x="138.814" y="653.856"/>
      <point x="197.392" y="412.856"/>
      <point x="197.392" y="274" type="qcurve" smooth="yes"/>
      <point x="197.392" y="135.144"/>
      <point x="138.814" y="-103"/>
    </contour>
  </outline>
</glyph>
<glyph name="asterisk" format="2">
  <advance width="365"/>
  <unicode hex="002A"/>
  <outline>
    <contour>
      <point x="339.525" y="644.376" type="line"/>
      <point x="198.536" y="563.388" type="line"/>
      <point x="198.536" y="574.977" type="line"/>
      <point x="339.525" y="493.989" type="line"/>
      <point x="326.768" y="471.342" type="line"/>
      <point x="186.502" y="552.475" type="line"/>
      <point x="195.08" y="556.909" type="line"/>
      <point x="195.224" y="396.365" type="line"/>
      <point x="170" y="396.365" type="line"/>
      <point x="170.144" y="556.909" type="line"/>
      <point x="179.578" y="552.475" type="line"/>
      <point x="38.4563" y="471.342" type="line"/>
      <point x="25.6996" y="493.989" type="line"/>
      <point x="167.688" y="574.977" type="line"/>
      <point x="167.688" y="563.388" type="line"/>
      <point x="25.6996" y="644.376" type="line"/>
      <point x="38.4563" y="667.167" type="line"/>
      <point x="178.722" y="585.89" type="line"/>
      <point x="170.144" y="581.456" type="line"/>
      <point x="170" y="742" type="line"/>
      <point x="195.224" y="742" type="line"/>
      <point x="195.08" y="581.456" type="line"/>
      <point x="186.502" y="585.89" type="line"/>
      <point x="326.768" y="667.167" type="line"/>
    </contour>
  </outline>
</glyph>
<glyph name="plus" format="2">
  <advance width="564"/>
  <unicode hex="002B"/>
  <outline>
    <contour>
      <point x="266.388" y="146.821" type="line"/>
      <point x="266.388" y="553.179" type="line"/>
      <point x="297.369" y="553.179" type="line"/>
      <point x="297.369" y="146.821" type="line"/>
    </contour>
    <contour>
      <point x="73.6996" y="334.943" type="line"/>
      <point x="73.6996" y="364.202" type="line"/>
      <point x="490.057" y="364.202" type="line"/>
      <point x="490.057" y="334.943" type="line"/>
    </contour>
  </outline>
</glyph>
<glyph name="hyphen" format="2">
  <advance width="381"/>
  <unicode hex="002D"/>
  <outline>
    <contour>
      <point x="63.6996" y="251.243" type="line"/>
      <point x="63.6996" y="281.224" type="line"/>
      <point x="316.878" y="281.224" type="line"/>
      <point x="316.878" y="251.243" type="line"/>
    </contour>
  </outline>
</glyph>
<glyph name="period" format="2">
  <advance width="190"/>
  <unicode hex="002E"/>
  <outline>
    <contour>
      <point x="94.9012" y="-3.43346" type="qcurve" smooth="yes"/>
      <point x="81.8669" y="-3.43346"/>
      <point x="61.8213" y="16.4677"/>
      <point x="61.8213" y="29.7909" type="qcurve" smooth="yes"/>
      <point x="61.8213" y="44.1142"/>
      <point x="81.8669" y="63.0153"/>
      <point x="94.9012" y="63.0153" type="qcurve" smooth="yes"/>
      <point x="108.646" y="63.0153"/>
      <point x="127.837" y="44.1142"/>
      <point x="127.837" y="29.7909" type="qcurve" smooth="yes"/>
      <point x="127.837" y="16.4677"/>
      <point x="108.646" y="-3.43346"/>
    </contour>
  </outline>
</glyph>
<glyph name="slash" format="2">
  <advance width="309"/>
  <unicode hex="002F"/>
  <outline>
    <contour>
      <point x="-21.3004" y="-100" type="line"/>
      <point x="308.7" y="842" type="line"/>
      <point x="340.114" y="842" type="line"/>
      <point x="10.1142" y="-100" type="line"/>
    </contour>
  </outline>
</glyph>
<glyph name="zero" format="2">
  <advance width="655"/>
  <unicode hex="0030"/>
  <outline>
    <contour>
      <point x="327.3" y="-3.86693" type="qcurve" smooth="yes"/>
      <point x="247.867" y="-3.86693"/>
      <point x="125.422" y="82.6996"/>
      <point x="57.1217" y="241.844"/>
      <point x="57.1217" y="350" type="qcurve" smooth="yes"/>
      <point x="57.1217" y="458.156"/>
      <point x="125.422" y="617.3"/>
      <point x="247.867" y="703.867"/>
      <point x="327.3" y="703.867" type="qcurve" smooth="yes"/>
      <point x="407.589" y="703.867"/>
      <point x="529.179" y="617.3"/>
      <point x="597.479" y="458.156"/>
      <point x="597.479" y="350" type="qcurve" smooth="yes"/>
      <point x="597.479" y="241.844"/>
      <point x="529.179" y="82.6996"/>
      <point x="407.589" y="-3.86693"/>
    </contour>
    <contour>
      <point x="327.3" y="27.1256" type="qcurve" smooth="yes"/>
      <point x="398.122" y="27.1256"/>
      <point x="504.354" y="105.369"/>
      <point x="563.753" y="250.167"/>
      <point x="563.753" y="350" type="qcurve" smooth="yes"/>
      <point x="563.753" y="450.688"/>
      <point x="504.354" y="594.631"/>
      <point x="398.122" y="672.874"/>
      <point x="327.3" y="672.874" type="qcurve" smooth="yes"/>
      <point x="257.479" y="672.874"/>
      <point x="150.247" y="594.631"/>
      <point x="90.848" y="450.688"/>
      <point x="90.848" y="350" type="qcurve" smooth="yes"/>
      <point x="90.848" y="250.167"/>
      <point x="150.247" y="105.369"/>
      <point x="257.479" y="27.1256"/>
    </contour>
  </outline>
</glyph>
<glyph name="one" format="2">
  <advance width="347"/>
  <unicode hex="0031"/>
  <outline>
    <contour>
      <point x="185.81" y="0" type="line"/>
      <point x="185.81" y="684.087" type="line"/>
      <point x="200.734" y="669.441" type="line"/>
      <point x="9.71102" y="669.441" type="line"/>
      <point x="9.71102" y="700" type="line"/>
      <point x="218.536" y="700" type="line"/>
      <point x="218.536" y="0" type="line"/>
    </contour>
  </outline>
</glyph>
<glyph name="two" format="2">
  <advance width="558"/>
  <unicode hex="0032"/>
  <outline>
    <contour>
      <point x="41.9886" y="0" type="line"/>
      <point x="41.9886" y="24.1027" type="line"/>
      <point x="341.954" y="325.612" type="line" smooth="yes"/>
      <point x="385.654" y="369.023"/>
      <point x="430.209" y="434.856"/>
      <point x="445.631" y="491.833"/>
      <point x="445.631" y="519.532" type="qcurve" smooth="yes"/>
      <point x="445.631" y="590.209"/>
      <point x="349.821" y="672.874"/>
      <point x="258.578" y="672.874" type="qcurve" smooth="yes"/>
      <point x="189.179" y="672.874"/>
      <point x="85.924" y="631.741"/>
      <point x="48.7909" y="589.464" type="qcurve"/>
      <point x="25.5437" y="611.122" type="line"/>
      <point x="64.8327" y="656.278"/>
      <point x="183.156" y="703.867"/>
      <point x="260.023" y="703.867" type="qcurve" smooth="yes"/>
      <point x="327.323" y="703.867"/>
      <point x="426.202" y="660.144"/>
      <point x="479.357" y="578.844"/>
      <point x="479.357" y="522.122" type="qcurve" smooth="yes"/>
      <point x="479.357" y="488.977"/>
      <point x="460.502" y="424.544"/>
      <point x="412.213" y="352.255"/>
      <point x="365.924" y="306.255" type="qcurve" smooth="yes"/>
      <point x="78.8594" y="17.3575" type="line"/>
      <point x="64.8366" y="30.559" type="line"/>
      <point x="515.913" y="30.559" type="line"/>
      <point x="515.913" y="0" type="line"/>
    </contour>
  </outline>
</glyph>
<glyph name="three" format="2">
  <advance width="552"/>
  <unicode hex="0033"/>
  <outline>
    <contour>
      <point x="259.578" y="-3.86693" type="qcurve" smooth="yes"/>
      <point x="181.3" y="-3.86693"/>
      <point x="50.711" y="50.3992"/>
      <point x="16.5437" y="92.8213" type="qcurve"/>
      <point x="35.1787" y="117.091" type="line"/>
      <point x="65.3346" y="79.1027"/>
      <point x="184.745" y="27.1256"/>
      <point x="259.433" y="27.1256" type="qcurve" smooth="yes"/>
      <point x="359.099" y="27.1256"/>
      <point x="462.631" y="118.213"/>
      <point x="462.631" y="194.167" type="qcurve" smooth="yes"/>
      <point x="462.631" y="269.977"/>
      <point x="358.11" y="360.92"/>
      <point x="247.445" y="360.92" type="qcurve" smooth="yes"/>
      <point x="207.977" y="360.92" type="line"/>
      <point x="207.977" y="385.456" type="line"/>
      <point x="435.787" y="681.932" type="line"/>
      <point x="439.954" y="669.441" type="line"/>
      <point x="40.2776" y="669.441" type="line"/>
      <point x="40.2776" y="700" type="line"/>
      <point x="470.068" y="700" type="line"/>
      <point x="470.068" y="675.897" type="line"/>
      <point x="242.259" y="379.422" type="line"/>
      <point x="231.734" y="390.612" type="line"/>
      <point x="249.768" y="390.612" type="line" smooth="yes"/>
      <point x="374.346" y="390.612"/>
      <point x="496.357" y="281.601"/>
      <point x="496.357" y="194.312" type="qcurve" smooth="yes"/>
      <point x="496.357" y="136.167"/>
      <point x="442.491" y="46.578"/>
      <point x="337.034" y="-3.86693"/>
    </contour>
  </outline>
</glyph>
<glyph name="four" format="2">
  <advance width="648"/>
  <unicode hex="0034"/>
  <outline>
    <contour>
      <point x="44.5551" y="201.787" type="line"/>
      <point x="44.5551" y="226.323" type="line"/>
      <point x="432.487" y="700" type="line"/>
      <point x="470.791" y="700" type="line"/>
      <point x="83.5819" y="226.323" type="line"/>
      <point x="63.9354" y="232.346" type="line"/>
      <point x="632.057" y="232.346" type="line"/>
      <point x="632.057" y="201.787" type="line"/>
    </contour>
    <contour>
      <point x="446.954" y="0" type="line"/>
      <point x="446.954" y="201.787" type="line"/>
      <point x="447.388" y="232.346" type="line"/>
      <point x="447.388" y="410" type="line"/>
      <point x="480.103" y="410" type="line"/>
      <point x="480.103" y="0" type="line"/>
    </contour>
  </outline>
</glyph>
<glyph name="five" format="2">
  <advance width="552"/>
  <unicode hex="0035"/>
  <outline>
    <contour>
      <point x="270.722" y="-3.86693" type="qcurve" smooth="yes"/>
      <point x="194.156" y="-3.86693"/>
      <point x="63.5665" y="50.3992"/>
      <point x="29.3992" y="92.8213" type="qcurve"/>
      <point x="48.0342" y="117.091" type="line"/>
      <point x="78.1902" y="79.1027"/>
      <point x="196.745" y="27.1256"/>
      <point x="270.578" y="27.1256" type="qcurve" smooth="yes"/>
      <point x="373.665" y="27.1256"/>
      <point x="475.487" y="123.346"/>
      <point x="475.487" y="197.734" type="qcurve" smooth="yes"/>
      <point x="475.487" y="251.7"/>
      <point x="426.654" y="329.509"/>
      <point x="311.278" y="370.487"/>
      <point x="211.179" y="370.487" type="qcurve" smooth="yes"/>
      <point x="74.6996" y="370.487" type="line"/>
      <point x="111.555" y="700" type="line"/>
      <point x="473.491" y="700" type="line"/>
      <point x="473.491" y="669.441" type="line"/>
      <point x="127.034" y="669.441" type="line"/>
      <point x="141.837" y="684.376" type="line"/>
      <point x="107.848" y="384.544" type="line"/>
      <point x="93.9012" y="401.19" type="line"/>
      <point x="218.213" y="401.19" type="line" smooth="yes"/>
      <point x="325.635" y="401.19"/>
      <point x="452.78" y="351.323"/>
      <point x="509.213" y="260.456"/>
      <point x="509.213" y="198.456" type="qcurve" smooth="yes"/>
      <point x="509.213" y="141.734"/>
      <point x="456.202" y="49.289"/>
      <point x="350.745" y="-3.86693"/>
    </contour>
  </outline>
</glyph>
<glyph name="six" format="2">
  <advance width="596"/>
  <unicode hex="0036"/>
  <outline>
    <contour>
      <point x="333.734" y="-3.86693" type="qcurve" smooth="yes"/>
      <point x="242.3" y="-3.86693"/>
      <point x="119.422" y="81.4106"/>
      <point x="57.1217" y="239.833"/>
      <point x="57.1217" y="348.411" type="qcurve" smooth="yes"/>
      <point x="57.1217" y="466.7"/>
      <point x="133.711" y="624"/>
      <point x="270.312" y="703.867"/>
      <point x="360.757" y="703.867" type="qcurve" smooth="yes"/>
      <point x="404.057" y="703.867"/>
      <point x="482.658" y="688.856"/>
      <point x="514.091" y="669.422" type="qcurve"/>
      <point x="499.323" y="642.019" type="line"/>
      <point x="473.034" y="659.308"/>
      <point x="401.612" y="673.452"/>
      <point x="361.046" y="673.452" type="qcurve" smooth="yes"/>
      <point x="238.369" y="673.452"/>
      <point x="90.848" y="513.087"/>
      <point x="90.848" y="353.011" type="qcurve" smooth="yes"/>
      <point x="90.848" y="328.734"/>
      <point x="97.2701" y="253.346"/>
      <point x="108.548" y="216.935" type="qcurve"/>
      <point x="96.213" y="210.46" type="line"/>
      <point x="100.38" y="272.993"/>
      <point x="163.669" y="362.502"/>
      <point x="267.213" y="409.323"/>
      <point x="329.335" y="409.323" type="qcurve" smooth="yes"/>
      <point x="399.335" y="409.323"/>
      <point x="503.057" y="358.89"/>
      <point x="560.924" y="266.312"/>
      <point x="560.924" y="203.878" type="qcurve" smooth="yes"/>
      <point x="560.924" y="141.011"/>
      <point x="502.479" y="47.711"/>
      <point x="399.601" y="-3.86693"/>
    </contour>
    <contour>
      <point x="333.011" y="25.8252" type="qcurve" smooth="yes"/>
      <point x="390.555" y="25.8252"/>
      <point x="477.943" y="69.6579"/>
      <point x="527.776" y="149.757"/>
      <point x="527.776" y="203.156" type="qcurve" smooth="yes"/>
      <point x="527.776" y="283.399"/>
      <point x="420.255" y="379.631"/>
      <point x="326.445" y="379.631" type="qcurve" smooth="yes"/>
      <point x="265.19" y="379.631"/>
      <point x="172.38" y="332.087"/>
      <point x="120.548" y="251.133"/>
      <point x="120.548" y="201.3" type="qcurve" smooth="yes"/>
      <point x="120.548" y="158.745"/>
      <point x="168.525" y="77.7909"/>
      <point x="263.335" y="25.8252"/>
    </contour>
  </outline>
</glyph>
<glyph name="seven" format="2">
  <advance width="575"/>
  <unicode hex="0037"/>
  <outline>
    <contour>
      <point x="183.11" y="0" type="line"/>
      <point x="494.932" y="682.943" type="line"/>
      <point x="509.388" y="669.441" type="line"/>
      <point x="51.9126" y="669.441" type="line"/>
      <point x="67.9925" y="684.376" type="line"/>
      <point x="67.9925" y="531.186" type="line"/>
      <point x="34.9886" y="531.186" type="line"/>
      <point x="34.9886" y="700" type="line"/>
      <point x="528.213" y="700" type="line"/>
      <point x="528.213" y="675.897" type="line"/>
      <point x="220.27" y="0" type="line"/>
    </contour>
  </outline>
</glyph>
<glyph name="eight" format="2">
  <advance width="627"/>
  <unicode hex="0038"/>
  <outline>
    <contour>
      <point x="312.734" y="-3.86693" type="qcurve" smooth="yes"/>
      <point x="231.011" y="-3.86693"/>
      <point x="115.278" y="42.8555"/>
      <point x="53.1217" y="130.011"/>
      <point x="53.1217" y="189.734" type="qcurve" smooth="yes"/>
      <point x="53.1217" y="247.601"/>
      <point x="114.844" y="331.179"/>
      <point x="230.578" y="375.468"/>
      <point x="312.734" y="375.468" type="qcurve" smooth="yes"/>
      <point x="394.89" y="375.468"/>
      <point x="511.624" y="331.179"/>
      <point x="574.346" y="247.456"/>
      <point x="574.346" y="189.734" type="qcurve" smooth="yes"/>
      <point x="574.346" y="130.011"/>
      <point x="512.046" y="42.8555"/>
      <point x="394.456" y="-3.86693"/>
    </contour>
    <contour>
      <point x="312.734" y="25.8252" type="qcurve" smooth="yes"/>
      <point x="420.677" y="25.8252"/>
      <point x="540.62" y="113.78"/>
      <point x="540.62" y="189.312" type="qcurve" smooth="yes"/>
      <point x="540.62" y="263.133"/>
      <point x="420.677" y="350.943"/>
      <point x="312.734" y="350.943" type="qcurve" smooth="yes"/>
      <point x="205.646" y="350.943"/>
      <point x="86.848" y="263.133"/>
      <point x="86.848" y="189.312" type="qcurve" smooth="yes"/>
      <point x="86.848" y="113.78"/>
      <point x="205.646" y="25.8252"/>
    </contour>
    <contour>
      <point x="312.734" y="355.388" type="qcurve" smooth="yes"/>
      <point x="237.722" y="355.388"/>
      <point x="133.133" y="396.677"/>
      <point x="78.1217" y="473.544"/>
      <point x="78.1217" y="526.266" type="qcurve" smooth="yes"/>
      <point x="78.1217" y="581.133"/>
      <point x="136.133" y="661.144"/>
      <point x="241.867" y="703.867"/>
      <point x="312.734" y="703.867" type="qcurve" smooth="yes"/>
      <point x="384.601" y="703.867"/>
      <point x="490.335" y="661.144"/>
      <point x="549.346" y="581.133"/>
      <point x="549.346" y="526.266" type="qcurve" smooth="yes"/>
      <point x="549.346" y="473.544"/>
      <point x="493.479" y="396.677"/>
      <point x="387.745" y="355.388"/>
    </contour>
    <contour>
      <point x="312.734" y="379.624" type="qcurve" smooth="yes"/>
      <point x="408.966" y="379.624"/>
      <point x="515.909" y="458.722"/>
      <point x="515.909" y="525.544" type="qcurve" smooth="yes"/>
      <point x="515.909" y="594.365"/>
      <point x="405.966" y="674.175"/>
      <point x="312.734" y="674.175" type="qcurve" smooth="yes"/>
      <point x="220.357" y="674.175"/>
      <point x="111.559" y="594.365"/>
      <point x="111.559" y="526.399" type="qcurve" smooth="yes"/>
      <point x="111.559" y="459.578"/>
      <point x="217.502" y="379.624"/>
    </contour>
  </outline>
</glyph>
<glyph name="nine" format="2">
  <advance width="596"/>
  <unicode hex="0039"/>
  <outline>
    <contour>
      <point x="262.601" y="703.867" type="qcurve" smooth="yes"/>
      <point x="354.179" y="703.867"/>
      <point x="476.913" y="618.589"/>
      <point x="539.213" y="461.023"/>
      <point x="539.213" y="351.589" type="qcurve" smooth="yes"/>
      <point x="539.213" y="234.156"/>
      <point x="462.624" y="76"/>
      <point x="326.167" y="-3.86693"/>
      <point x="235.578" y="-3.86693" type="qcurve" smooth="yes"/>
      <point x="192.278" y="-3.86693"/>
      <point x="113.821" y="11.1445"/>
      <point x="82.2433" y="30.578" type="qcurve"/>
      <point x="97.0114" y="57.9811" type="line"/>
      <point x="123.3" y="41.5476"/>
      <point x="195.722" y="26.5476"/>
      <point x="235.289" y="26.5476" type="qcurve" smooth="yes"/>
      <point x="357.966" y="26.5476"/>
      <point x="505.487" y="186.913"/>
      <point x="505.487" y="346.989" type="qcurve" smooth="yes"/>
      <point x="505.487" y="372.122"/>
      <point x="499.065" y="446.654"/>
      <point x="487.787" y="483.065" type="qcurve"/>
      <point x="500.122" y="489.54" type="line"/>
      <point x="496.099" y="427.007"/>
      <point x="432.665" y="338.354"/>
      <point x="330.122" y="290.677"/>
      <point x="267" y="290.677" type="qcurve" smooth="yes"/>
      <point x="197.144" y="290.677"/>
      <point x="93.2776" y="341.11"/>
      <point x="35.4106" y="433.688"/>
      <point x="35.4106" y="496.122" type="qcurve" smooth="yes"/>
      <point x="35.4106" y="559.133"/>
      <point x="93.8555" y="652.289"/>
      <point x="196.878" y="703.867"/>
    </contour>
    <contour>
      <point x="263.323" y="674.175" type="qcurve" smooth="yes"/>
      <point x="205.78" y="674.175"/>
      <point x="118.392" y="630.342"/>
      <point x="68.559" y="550.388"/>
      <point x="68.559" y="496.844" type="qcurve" smooth="yes"/>
      <point x="68.559" y="416.601"/>
      <point x="176.935" y="320.369"/>
      <point x="269.89" y="320.369" type="qcurve" smooth="yes"/>
      <point x="331.144" y="320.369"/>
      <point x="424.099" y="367.913"/>
      <point x="475.787" y="449.011"/>
      <point x="475.787" y="498.7" type="qcurve" smooth="yes"/>
      <point x="475.787" y="541.399"/>
      <point x="427.81" y="622.209"/>
      <point x="334" y="674.175"/>
    </contour>
  </outline>
</glyph>
<glyph name="less" format="2">
  <advance width="564"/>
  <unicode hex="003C"/>
  <outline>
    <contour>
      <point x="490.057" y="161.498" type="line"/>
      <point x="73.6996" y="333.509" type="line"/>
      <point x="73.6996" y="366.491" type="line"/>
      <point x="490.057" y="538.502" type="line"/>
      <point x="490.057" y="506.099" type="line"/>
      <point x="90.0228" y="342.821" type="line"/>
      <point x="90.0228" y="357.179" type="line"/>
      <point x="490.057" y="193.901" type="line"/>
    </contour>
  </outline>
</glyph>
<glyph name="equal" format="2">
  <advance width="564"/>
  <unicode hex="003D"/>
  <outline>
    <contour>
      <point x="73.6996" y="446.388" type="line"/>
      <point x="73.6996" y="475.646" type="line"/>
      <point x="490.057" y="475.646" type="line"/>
      <point x="490.057" y="446.388" type="line"/>
    </contour>
    <contour>
      <point x="73.6996" y="224.354" type="line"/>
      <point x="73.6996" y="253.612" type="line"/>
      <point x="490.057" y="253.612" type="line"/>
      <point x="490.057" y="224.354" type="line"/>
    </contour>
  </outline>
</glyph>
<glyph name="greater" format="2">
  <advance width="564"/>
  <unicode hex="003E"/>
  <outline>
    <contour>
      <point x="73.6996" y="161.498" type="line"/>
      <point x="73.6996" y="193.901" type="line"/>
      <point x="473.878" y="357.179" type="line"/>
      <point x="473.878" y="342.821" type="line"/>
      <point x="73.6996" y="506.099" type="line"/>
      <point x="73.6996" y="538.502" type="line"/>
      <point x="490.057" y="366.491" type="line"/>
      <point x="490.057" y="333.509" type="line"/>
    </contour>
  </outline>
</glyph>
<glyph name="question" format="2">
  <advance width="557"/>
  <unicode hex="003F"/>
  <outline>
    <contour>
      <point x="246.243" y="193.635" type="line"/>
      <point x="246.243" y="238.479"/>
      <point x="273.81" y="301.468"/>
      <point x="317.943" y="349.034"/>
      <point x="366.365" y="390.601"/>
      <point x="410.498" y="435.3"/>
      <point x="438.065" y="491.844"/>
      <point x="438.065" y="531.532" type="qcurve" smooth="yes"/>
      <point x="438.065" y="593.643"/>
      <point x="342.11" y="673.597"/>
      <point x="251.878" y="673.597" type="qcurve" smooth="yes"/>
      <point x="181.901" y="673.597"/>
      <point x="78.9354" y="631.886"/>
      <point x="42.2358" y="589.608" type="qcurve"/>
      <point x="18.1217" y="610.11" type="line"/>
      <point x="57.5551" y="655.7"/>
      <point x="175.156" y="703.867"/>
      <point x="253.034" y="703.867" type="qcurve" smooth="yes"/>
      <point x="320.046" y="703.867"/>
      <point x="418.635" y="661.722"/>
      <point x="471.791" y="586"/>
      <point x="471.791" y="534.989" type="qcurve" smooth="yes"/>
      <point x="471.791" y="490.567"/>
      <point x="444.224" y="428"/>
      <point x="400.091" y="379.433"/>
      <point x="351.669" y="337.867"/>
      <point x="307.536" y="292.023"/>
      <point x="279.97" y="234.046"/>
      <point x="279.97" y="193.635" type="qcurve"/>
    </contour>
    <contour>
      <point x="263.179" y="-3.43346" type="qcurve" smooth="yes"/>
      <point x="250.144" y="-3.43346"/>
      <point x="230.532" y="16.3232"/>
      <point x="230.532" y="29.0685" type="qcurve" smooth="yes"/>
      <point x="230.532" y="42.8138"/>
      <point x="250.144" y="61.5705"/>
      <point x="263.179" y="61.5705" type="qcurve" smooth="yes"/>
      <point x="277.213" y="61.5705"/>
      <point x="295.825" y="42.8138"/>
      <point x="295.825" y="29.0685" type="qcurve" smooth="yes"/>
      <point x="295.825" y="16.3232"/>
      <point x="277.213" y="-3.43346"/>
    </contour>
  </outline>
</glyph>
<glyph name="at" format="2">
  <advance width="1032"/>
  <unicode hex="0040"/>
  <outline>
    <contour>
      <point x="513.578" y="-197.867" type="qcurve" smooth="yes"/>
      <point x="412.856" y="-197.867"/>
      <point x="245.844" y="-131.578"/>
      <point x="123.411" y="-11.1445"/>
      <point x="57.1217" y="154.144"/>
      <point x="57.1217" y="254" type="qcurve" smooth="yes"/>
      <point x="57.1217" y="354.711"/>
      <point x="124.266" y="519.856"/>
      <point x="247.7" y="639.289"/>
      <point x="416.711" y="703.722"/>
      <point x="517.578" y="703.722" type="qcurve" smooth="yes"/>
      <point x="617.156" y="703.722"/>
      <point x="784.734" y="640.578"/>
      <point x="908.023" y="522.722"/>
      <point x="975.167" y="360.011"/>
      <point x="975.167" y="260.589" type="qcurve" smooth="yes"/>
      <point x="975.167" y="176.445"/>
      <point x="938.156" y="58.4335"/>
      <point x="872.411" y="-3.43346"/>
      <point x="829.521" y="-3.43346" type="qcurve" smooth="yes"/>
      <point x="785.92" y="-3.43346"/>
      <point x="732.175" y="48.7453"/>
      <point x="732.175" y="95.213" type="qcurve" smooth="yes"/>
      <point x="732.175" y="190.578" type="line"/>
      <point x="741.452" y="258.989" type="line"/>
      <point x="731.597" y="336.646" type="line"/>
      <point x="731.597" y="514.399" type="line"/>
      <point x="763.011" y="514.399" type="line"/>
      <point x="763.011" y="106.369" type="line" smooth="yes"/>
      <point x="763.011" y="62.2358"/>
      <point x="802.711" y="25.2472"/>
      <point x="832.411" y="25.2472" type="qcurve" smooth="yes"/>
      <point x="865.688" y="25.2472"/>
      <point x="917.665" y="80.3689"/>
      <point x="947.076" y="185.046"/>
      <point x="947.076" y="260.3" type="qcurve" smooth="yes"/>
      <point x="947.076" y="354.278"/>
      <point x="884.232" y="507.099"/>
      <point x="768.966" y="617.787"/>
      <point x="612.278" y="676.631"/>
      <point x="517.578" y="676.631" type="qcurve" smooth="yes"/>
      <point x="422.734" y="676.631"/>
      <point x="264.046" y="615.498"/>
      <point x="149.068" y="503.376"/>
      <point x="86.2244" y="348.122"/>
      <point x="86.2244" y="254" type="qcurve" smooth="yes"/>
      <point x="86.2244" y="160.589"/>
      <point x="148.068" y="5.19015"/>
      <point x="262.046" y="-107.787"/>
      <point x="418.734" y="-169.776"/>
      <point x="513.578" y="-169.776" type="qcurve" smooth="yes"/>
      <point x="557.867" y="-169.776"/>
      <point x="661.578" y="-147.92"/>
      <point x="703.156" y="-125.776" type="qcurve"/>
      <point x="713.612" y="-151.722" type="line"/>
      <point x="669.323" y="-175.578"/>
      <point x="559.878" y="-197.867"/>
    </contour>
    <contour>
      <point x="508.833" y="-3.43346" type="qcurve" smooth="yes"/>
      <point x="437.833" y="-3.43346"/>
      <point x="324.411" y="63.422"/>
      <point x="258.844" y="181.989"/>
      <point x="258.844" y="257.7" type="qcurve" smooth="yes"/>
      <point x="258.844" y="334.266"/>
      <point x="324.411" y="450.977"/>
      <point x="437.833" y="517.688"/>
      <point x="508.833" y="517.688" type="qcurve" smooth="yes"/>
      <point x="579.399" y="517.688"/>
      <point x="690.099" y="451.989"/>
      <point x="754.087" y="335.567"/>
      <point x="754.087" y="257.7" type="qcurve" smooth="yes"/>
      <point x="754.087" y="180.688"/>
      <point x="690.243" y="62.4106"/>
      <point x="579.688" y="-3.43346"/>
    </contour>
    <contour>
      <point x="511.144" y="25.5362" type="qcurve" smooth="yes"/>
      <point x="574.255" y="25.5362"/>
      <point x="674.487" y="84.3575"/>
      <point x="731.886" y="189.445"/>
      <point x="731.886" y="257.7" type="qcurve" smooth="yes"/>
      <point x="731.886" y="326.954"/>
      <point x="674.487" y="430.897"/>
      <point x="574.255" y="488.719"/>
      <point x="511.144" y="488.719" type="qcurve" smooth="yes"/>
      <point x="447.89" y="488.719"/>
      <point x="348.513" y="430.753"/>
      <point x="290.548" y="326.665"/>
      <point x="290.548" y="257.7" type="qcurve" smooth="yes"/>
      <point x="290.548" y="189.589"/>
      <point x="348.513" y="84.6464"/>
      <point x="447.89" y="25.5362"/>
    </contour>
  </outline>
</glyph>
<glyph name="D" format="2">
  <advance width="826"/>
  <unicode hex="0044"/>
  <anchor x="345" y="700" name="t.uni0308"/>
  <anchor x="209" y="355" name="t.uni0307_1"/>
  <anchor x="346" y="0" name="b.uni0324_3"/>
  <outline>
    <contour>
      <point x="128.232" y="0" type="line"/>
      <point x="128.232" y="700" type="line"/>
      <point x="398.289" y="700" type="line" smooth="yes"/>
      <point x="509.578" y="700"/>
      <point x="676.3" y="609.433"/>
      <point x="768.878" y="451.578"/>
      <point x="768.878" y="350" type="qcurve" smooth="yes"/>
      <point x="768.878" y="248.422"/>
      <point x="676.3" y="90.5665"/>
      <point x="509.578" y="0"/>
      <point x="398.289" y="0" type="qcurve" smooth="yes"/>
    </contour>
    <contour>
      <point x="161.814" y="30.559" type="line"/>
      <point x="395.711" y="30.559" type="line" smooth="yes"/>
      <point x="499.243" y="30.559"/>
      <point x="651.897" y="113.236"/>
      <point x="735.152" y="257.034"/>
      <point x="735.152" y="350" type="qcurve" smooth="yes"/>
      <point x="735.152" y="443.11"/>
      <point x="651.897" y="586.764"/>
      <point x="499.243" y="669.441"/>
      <point x="395.711" y="669.441" type="qcurve" smooth="yes"/>
      <point x="161.814" y="669.441" type="line"/>
    </contour>
  </outline>
</glyph>
<glyph name="F" format="2">
  <advance width="630"/>
  <unicode hex="0046"/>
  <outline>
    <contour>
      <point x="156.091" y="349.19" type="line"/>
      <point x="541.89" y="349.19" type="line"/>
      <point x="541.89" y="318.631" type="line"/>
      <point x="156.091" y="318.631" type="line"/>
    </contour>
    <contour>
      <point x="161.814" y="0" type="line"/>
      <point x="128.232" y="0" type="line"/>
      <point x="128.232" y="700" type="line"/>
      <point x="586.601" y="700" type="line"/>
      <point x="586.601" y="669.441" type="line"/>
      <point x="161.814" y="669.441" type="line"/>
    </contour>
  </outline>
</glyph>
<glyph name="H" format="2">
  <advance width="815"/>
  <unicode hex="0048"/>
  <anchor x="399" y="700" name="t.uni0308"/>
  <anchor x="399" y="594" name="t.uni0307_1"/>
  <anchor x="399" y="0" name="b.uni0324_3"/>
  <outline>
    <contour>
      <point x="653.464" y="700" type="line"/>
      <point x="687.046" y="700" type="line"/>
      <point x="687.046" y="0" type="line"/>
      <point x="653.464" y="0" type="line"/>
    </contour>
    <contour>
      <point x="161.814" y="0" type="line"/>
      <point x="128.232" y="0" type="line"/>
      <point x="128.232" y="700" type="line"/>
      <point x="161.814" y="700" type="line"/>
    </contour>
    <contour>
      <point x="659.042" y="340.22" type="line"/>
      <point x="156.091" y="340.22" type="line"/>
      <point x="156.091" y="370.78" type="line"/>
      <point x="659.042" y="370.78" type="line"/>
    </contour>
  </outline>
</glyph>
<glyph name="I" format="2">
  <advance width="290"/>
  <unicode hex="0049"/>
  <anchor x="189" y="700" name="t.uni0308"/>
  <anchor x="189" y="0" name="b.uni0324_3"/>
  <anchor x="354" y="0" name="m.uni0328_4"/>
  <outline>
    <contour>
      <point x="128.232" y="0" type="line"/>
      <point x="128.232" y="700" type="line"/>
      <point x="161.814" y="700" type="line"/>
      <point x="161.814" y="0" type="line"/>
    </contour>
  </outline>
</glyph>
<glyph name="J" format="2">
  <advance width="483"/>
  <unicode hex="004A"/>
  <anchor x="323" y="700" name="t.uni0308"/>
  <outline>
    <contour>
      <point x="180.89" y="-3.86693" type="qcurve" smooth="yes"/>
      <point x="126.3" y="-3.86693"/>
      <point x="30.8441" y="48.9886"/>
      <point x="1.83268" y="95.422" type="qcurve"/>
      <point x="23.3461" y="117.103" type="line"/>
      <point x="52.3461" y="73.6807"/>
      <point x="133.612" y="26.6921"/>
      <point x="181.745" y="26.6921" type="qcurve" smooth="yes"/>
      <point x="327.399" y="26.6921"/>
      <point x="327.399" y="200.19" type="qcurve" smooth="yes"/>
      <point x="327.399" y="669.441" type="line"/>
      <point x="66.9886" y="669.441" type="line"/>
      <point x="66.9886" y="700" type="line"/>
      <point x="360.981" y="700" type="line"/>
      <point x="360.981" y="199.346" type="line" smooth="yes"/>
      <point x="360.981" y="98.0228"/>
      <point x="270.646" y="-3.86693"/>
    </contour>
  </outline>
</glyph>
<glyph name="K" format="2">
  <advance width="697"/>
  <unicode hex="004B"/>
  <anchor x="390" y="700" name="t.uni0308"/>
  <anchor x="390" y="0" name="b.uni0324_3"/>
  <outline>
    <contour>
      <point x="156.513" y="179.833" type="line"/>
      <point x="155.646" y="223.015" type="line"/>
      <point x="619.776" y="700" type="line"/>
      <point x="661.658" y="700" type="line"/>
      <point x="348.814" y="376.856" type="line"/>
      <point x="329.3" y="357.186" type="line"/>
    </contour>
    <contour>
      <point x="128.232" y="0" type="line"/>
      <point x="128.232" y="700" type="line"/>
      <point x="161.814" y="700" type="line"/>
      <point x="161.814" y="0" type="line"/>
    </contour>
    <contour>
      <point x="641.62" y="0" type="line"/>
      <point x="316.567" y="369.631" type="line"/>
      <point x="340.38" y="393.034" type="line"/>
      <point x="684.08" y="0" type="line"/>
    </contour>
  </outline>
</glyph>
<glyph name="N" format="2">
  <advance width="815"/>
  <unicode hex="004E"/>
  <anchor x="399" y="700" name="t.uni0308"/>
  <anchor x="399" y="0" name="b.uni0324_3"/>
  <outline>
    <contour>
      <point x="128.232" y="0" type="line"/>
      <point x="128.232" y="700" type="line"/>
      <point x="156.357" y="700" type="line"/>
      <point x="669.81" y="40.483" type="line"/>
      <point x="653.464" y="40.483" type="line"/>
      <point x="653.464" y="700" type="line"/>
      <point x="687.046" y="700" type="line"/>
      <point x="687.046" y="0" type="line"/>
      <point x="658.92" y="0" type="line"/>
      <point x="145.468" y="659.517" type="line"/>
      <point x="161.814" y="659.517" type="line"/>
      <point x="161.814" y="0" type="line"/>
    </contour>
  </outline>
</glyph>
<glyph name="P" format="2">
  <advance width="712"/>
  <unicode hex="0050"/>
  <outline>
    <contour>
      <point x="128.232" y="0" type="line"/>
      <point x="128.232" y="700" type="line"/>
      <point x="371.445" y="700" type="line" smooth="yes"/>
      <point x="458.312" y="700"/>
      <point x="582.612" y="644.422"/>
      <point x="649.335" y="541.122"/>
      <point x="649.335" y="467.544" type="qcurve" smooth="yes"/>
      <point x="649.335" y="394.966"/>
      <point x="582.612" y="290.81"/>
      <point x="458.312" y="235.232"/>
      <point x="371.445" y="235.232" type="qcurve" smooth="yes"/>
      <point x="146.745" y="235.232" type="line"/>
      <point x="161.814" y="250.734" type="line"/>
      <point x="161.814" y="0" type="line"/>
    </contour>
    <contour>
      <point x="161.814" y="250.711" type="line"/>
      <point x="146.745" y="265.791" type="line"/>
      <point x="372.578" y="265.791" type="line" smooth="yes"/>
      <point x="490.954" y="265.791"/>
      <point x="615.608" y="371.878"/>
      <point x="615.608" y="467.544" type="qcurve" smooth="yes"/>
      <point x="615.608" y="564.209"/>
      <point x="490.954" y="669.441"/>
      <point x="372.578" y="669.441" type="qcurve" smooth="yes"/>
      <point x="146.745" y="669.441" type="line"/>
      <point x="161.814" y="684.521" type="line"/>
    </contour>
  </outline>
</glyph>
<glyph name="Q" format="2">
  <advance width="837"/>
  <unicode hex="0051"/>
  <anchor x="428" y="700" name="t.uni0308"/>
  <outline>
    <contour>
      <point x="418.433" y="-3.86693" type="qcurve" smooth="yes"/>
      <point x="340.856" y="-3.86693"/>
      <point x="208.989" y="49.2776"/>
      <point x="111.411" y="145.422"/>
      <point x="57.1217" y="273.856"/>
      <point x="57.1217" y="350" type="qcurve" smooth="yes"/>
      <point x="57.1217" y="426.144"/>
      <point x="111.411" y="554.578"/>
      <point x="208.989" y="650.722"/>
      <point x="340.856" y="703.867"/>
      <point x="418.433" y="703.867" type="qcurve" smooth="yes"/>
      <point x="496.011" y="703.867"/>
      <point x="627.734" y="650.867"/>
      <point x="725.312" y="554.722"/>
      <point x="779.601" y="426.289"/>
      <point x="779.601" y="350" type="qcurve" smooth="yes"/>
      <point x="779.601" y="273.711"/>
      <point x="725.312" y="145.278"/>
      <point x="627.734" y="49.1331"/>
      <point x="496.011" y="-3.86693"/>
    </contour>
    <contour>
      <point x="648.289" y="-127.757" type="qcurve" smooth="yes"/>
      <point x="619.989" y="-127.757"/>
      <point x="565.966" y="-112.468"/>
      <point x="509.376" y="-80.4563"/>
      <point x="450.498" y="-30.578"/>
      <point x="417.198" y="4.1559" type="qcurve"/>
      <point x="457.068" y="13.0571" type="line"/>
      <point x="490.346" y="-23.9429"/>
      <point x="555.323" y="-74.2205"/>
      <point x="618.3" y="-98.498"/>
      <point x="648.578" y="-98.498" type="qcurve" smooth="yes"/>
      <point x="732.555" y="-98.498"/>
      <point x="790.544" y="-29.3764" type="qcurve"/>
      <point x="810.179" y="-50.7453" type="line"/>
      <point x="747.167" y="-127.757"/>
    </contour>
    <contour>
      <point x="418.433" y="27.1256" type="qcurve" smooth="yes"/>
      <point x="488.122" y="27.1256"/>
      <point x="607.787" y="76.2472"/>
      <point x="696.608" y="164.213"/>
      <point x="745.874" y="281.312"/>
      <point x="745.874" y="350" type="qcurve" smooth="yes"/>
      <point x="745.874" y="418.833"/>
      <point x="696.608" y="535.787"/>
      <point x="607.787" y="623.753"/>
      <point x="488.122" y="672.874"/>
      <point x="418.433" y="672.874" type="qcurve" smooth="yes"/>
      <point x="348.745" y="672.874"/>
      <point x="228.935" y="623.753"/>
      <point x="140.114" y="535.787"/>
      <point x="90.848" y="418.833"/>
      <point x="90.848" y="350" type="qcurve" smooth="yes"/>
      <point x="90.848" y="281.312"/>
      <point x="140.114" y="164.213"/>
      <point x="228.935" y="76.2472"/>
      <point x="348.745" y="27.1256"/>
    </contour>
  </outline>
</glyph>
<glyph name="U" format="2">
  <advance width="793"/>
  <unicode hex="0055"/>
  <anchor x="393" y="700" name="t.uni0308"/>
  <anchor x="626" y="700" name="t.uni031B_2"/>
  <anchor x="393" y="0" name="b.uni0324_3"/>
  <anchor x="636" y="0" name="m.uni0328_4"/>
  <outline>
    <contour>
      <point x="396.711" y="-3.86693" type="qcurve" smooth="yes"/>
      <point x="269.399" y="-3.86693"/>
      <point x="122.232" y="145.867"/>
      <point x="122.232" y="294.589" type="qcurve" smooth="yes"/>
      <point x="122.232" y="700" type="line"/>
      <point x="155.814" y="700" type="line"/>
      <point x="155.814" y="296.023" type="line" smooth="yes"/>
      <point x="155.814" y="160.068"/>
      <point x="282.046" y="27.1256"/>
      <point x="396.856" y="27.1256" type="qcurve" smooth="yes"/>
      <point x="511.665" y="27.1256"/>
      <point x="637.897" y="160.068"/>
      <point x="637.897" y="296.023" type="qcurve" smooth="yes"/>
      <point x="637.897" y="700" type="line"/>
      <point x="671.19" y="700" type="line"/>
      <point x="671.19" y="294.589" type="line" smooth="yes"/>
      <point x="671.19" y="145.867"/>
      <point x="524.023" y="-3.86693"/>
    </contour>
  </outline>
</glyph>
<glyph name="V" format="2">
  <advance width="677"/>
  <unicode hex="0056"/>
  <outline>
    <contour>
      <point x="321.966" y="0" type="line"/>
      <point x="8.12166" y="700" type="line"/>
      <point x="45.7149" y="700" type="line"/>
      <point x="348.525" y="22.502" type="line"/>
      <point x="329.711" y="22.502" type="line"/>
      <point x="632.954" y="700" type="line"/>
      <point x="669.103" y="700" type="line"/>
      <point x="355.403" y="0" type="line"/>
    </contour>
  </outline>
</glyph>
<glyph name="W" format="2">
  <advance width="1088"/>
  <unicode hex="0057"/>
  <anchor x="631" y="700" name="t.uni0308"/>
  <anchor x="631" y="0" name="b.uni0324_3"/>
  <outline>
    <contour>
      <point x="281.821" y="0" type="line"/>
      <point x="42.8327" y="700" type="line"/>
      <point x="78.7035" y="700" type="line"/>
      <point x="309.38" y="22.502" type="line"/>
      <point x="291.445" y="22.502" type="line"/>
      <point x="528.411" y="700" type="line"/>
      <point x="560.837" y="700" type="line"/>
      <point x="796.935" y="22.502" type="line"/>
      <point x="780.144" y="22.502" type="line"/>
      <point x="1011.4" y="700" type="line"/>
      <point x="1045.11" y="700" type="line"/>
      <point x="806.126" y="0" type="line"/>
      <point x="771.532" y="0" type="line"/>
      <point x="540.167" y="664.418" type="line"/>
      <point x="548.213" y="664.418" type="line"/>
      <point x="316.559" y="0" type="line"/>
    </contour>
  </outline>
</glyph>
<glyph name="X" format="2">
  <advance width="630"/>
  <unicode hex="0058"/>
  <outline>
    <contour>
      <point x="22.9772" y="0" type="line"/>
      <point x="304" y="374.624" type="line"/>
      <point x="304" y="348.22" type="line"/>
      <point x="42.2547" y="700" type="line"/>
      <point x="82.426" y="700" type="line"/>
      <point x="322.091" y="377.768" type="line"/>
      <point x="309.3" y="377.624" type="line"/>
      <point x="548.821" y="700" type="line"/>
      <point x="587.27" y="700" type="line"/>
      <point x="328.38" y="352.509" type="line"/>
      <point x="328.38" y="371.491" type="line"/>
      <point x="606.981" y="0" type="line"/>
      <point x="566.521" y="0" type="line"/>
      <point x="308.011" y="345.509" type="line"/>
      <point x="320.513" y="345.509" type="line"/>
      <point x="62.4374" y="0" type="line"/>
    </contour>
  </outline>
</glyph>
<glyph name="Y" format="2">
  <advance width="616"/>
  <unicode hex="0059"/>
  <anchor x="377" y="700" name="t.uni0308"/>
  <anchor x="368" y="277" name="t.uni0307_1"/>
  <anchor x="377" y="0" name="b.uni0324_3"/>
  <outline>
    <contour>
      <point x="291.388" y="0" type="line"/>
      <point x="291.388" y="248.901" type="line"/>
      <point x="299.422" y="225.954" type="line"/>
      <point x="7.68819" y="700" type="line"/>
      <point x="44.9925" y="700" type="line"/>
      <point x="317.091" y="258.202" type="line"/>
      <point x="300.422" y="258.202" type="line"/>
      <point x="572.665" y="700" type="line"/>
      <point x="608.669" y="700" type="line"/>
      <point x="316.935" y="225.954" type="line"/>
      <point x="324.97" y="248.901" type="line"/>
      <point x="324.97" y="0" type="line"/>
    </contour>
  </outline>
</glyph>
<glyph name="bracketleft" format="2">
  <advance width="296"/>
  <unicode hex="005B"/>
  <outline>
    <contour>
      <point x="128.232" y="-194" type="line"/>
      <point x="128.232" y="742" type="line"/>
      <point x="271.669" y="742" type="line"/>
      <point x="271.669" y="712.741" type="line"/>
      <point x="161.236" y="712.741" type="line"/>
      <point x="161.236" y="-164.741" type="line"/>
      <point x="271.669" y="-164.741" type="line"/>
      <point x="271.669" y="-194" type="line"/>
    </contour>
  </outline>
</glyph>
<glyph name="backslash" format="2">
  <advance width="309"/>
  <unicode hex="005C"/>
  <outline>
    <contour>
      <point x="330.114" y="-100" type="line"/>
      <point x="298.7" y="-100" type="line"/>
      <point x="-31.3004" y="842" type="line"/>
      <point x="0.11416" y="842" type="line"/>
    </contour>
  </outline>
</glyph>
<glyph name="bracketright" format="2">
  <advance width="296"/>
  <unicode hex="005D"/>
  <outline>
    <contour>
      <point x="167.426" y="-194" type="line"/>
      <point x="23.9886" y="-194" type="line"/>
      <point x="23.9886" y="-164.741" type="line"/>
      <point x="134.422" y="-164.741" type="line"/>
      <point x="134.422" y="712.741" type="line"/>
      <point x="23.9886" y="712.741" type="line"/>
      <point x="23.9886" y="742" type="line"/>
      <point x="167.426" y="742" type="line"/>
    </contour>
  </outline>
</glyph>
<glyph name="asciicircum" format="2">
  <advance width="566"/>
  <unicode hex="005E"/>
  <outline>
    <contour>
      <point x="94.9543" y="144.567" type="line"/>
      <point x="266.966" y="555.433" type="line"/>
      <point x="298.791" y="555.433" type="line"/>
      <point x="470.658" y="144.567" type="line"/>
      <point x="439.266" y="144.567" type="line"/>
      <point x="275.989" y="539.544" type="line"/>
      <point x="289.624" y="539.544" type="line"/>
      <point x="126.346" y="144.567" type="line"/>
    </contour>
  </outline>
</glyph>
<glyph name="a" format="2">
  <advance width="677"/>
  <unicode hex="0061"/>
  <anchor x="367.433" y="562" name="t.uni0308"/>
  <anchor x="367.433" y="0" name="b.uni0324_3"/>
  <anchor x="671.433" y="0" name="m.uni0328_4"/>
  <outline>
    <contour>
      <point x="316.289" y="-3.43346" type="qcurve" smooth="yes"/>
      <point x="244.278" y="-3.43346"/>
      <point x="128.977" y="63.711"/>
      <point x="62.3992" y="183.144"/>
      <point x="62.3992" y="260.011" type="qcurve" smooth="yes"/>
      <point x="62.3992" y="337.734"/>
      <point x="128.977" y="455.456"/>
      <point x="244.278" y="522.601"/>
      <point x="316.289" y="522.601" type="qcurve" smooth="yes"/>
      <point x="386.567" y="522.601"/>
      <point x="497.989" y="456.757"/>
      <point x="562.989" y="339.323"/>
      <point x="562.989" y="260.011" type="qcurve" smooth="yes"/>
      <point x="562.989" y="181.7"/>
      <point x="498.278" y="62.4106"/>
      <point x="386.856" y="-3.43346"/>
    </contour>
    <contour>
      <point x="317.589" y="26.6921" type="qcurve" smooth="yes"/>
      <point x="380.989" y="26.6921"/>
      <point x="481.798" y="85.9468"/>
      <point x="539.631" y="191.612"/>
      <point x="539.631" y="260.011" type="qcurve" smooth="yes"/>
      <point x="539.631" y="329.411"/>
      <point x="481.798" y="434.076"/>
      <point x="380.989" y="492.475"/>
      <point x="317.589" y="492.475" type="qcurve" smooth="yes"/>
      <point x="254.19" y="492.475"/>
      <point x="154.236" y="434.076"/>
      <point x="95.5476" y="329.411"/>
      <point x="95.5476" y="260.011" type="qcurve" smooth="yes"/>
      <point x="95.5476" y="191.612"/>
      <point x="154.236" y="85.9468"/>
      <point x="254.19" y="26.6921"/>
    </contour>
    <contour>
      <point x="540.065" y="0" type="line"/>
      <point x="540.065" y="181.909" type="line"/>
      <point x="549.342" y="261.011" type="line"/>
      <point x="539.342" y="340.114" type="line"/>
      <point x="539.342" y="519.167" type="line"/>
      <point x="572.346" y="519.167" type="line"/>
      <point x="572.346" y="0" type="line"/>
    </contour>
  </outline>
</glyph>
<glyph name="b" format="2">
  <advance width="673"/>
  <unicode hex="0062"/>
  <outline>
    <contour>
      <point x="367.011" y="-3.43346" type="qcurve" smooth="yes"/>
      <point x="296.589" y="-3.43346"/>
      <point x="185.023" y="62.4106"/>
      <point x="120.312" y="181.7"/>
      <point x="120.312" y="260.011" type="qcurve" smooth="yes"/>
      <point x="120.312" y="339.323"/>
      <point x="185.312" y="456.757"/>
      <point x="296.878" y="522.601"/>
      <point x="367.011" y="522.601" type="qcurve" smooth="yes"/>
      <point x="439.167" y="522.601"/>
      <point x="554.323" y="455.456"/>
      <point x="620.901" y="337.734"/>
      <point x="620.901" y="260.011" type="qcurve" smooth="yes"/>
      <point x="620.901" y="183.144"/>
      <point x="554.323" y="63.711"/>
      <point x="439.167" y="-3.43346"/>
    </contour>
    <contour>
      <point x="110.954" y="0" type="line"/>
      <point x="110.954" y="742" type="line"/>
      <point x="143.958" y="742" type="line"/>
      <point x="143.958" y="340.114" type="line"/>
      <point x="133.958" y="261.011" type="line"/>
      <point x="143.236" y="181.909" type="line"/>
      <point x="143.236" y="0" type="line"/>
    </contour>
    <contour>
      <point x="365.711" y="26.6921" type="qcurve" smooth="yes"/>
      <point x="429.11" y="26.6921"/>
      <point x="529.92" y="85.9468"/>
      <point x="587.753" y="191.612"/>
      <point x="587.753" y="260.011" type="qcurve" smooth="yes"/>
      <point x="587.753" y="329.411"/>
      <point x="529.92" y="434.076"/>
      <point x="429.11" y="492.475"/>
      <point x="365.711" y="492.475" type="qcurve" smooth="yes"/>
      <point x="302.312" y="492.475"/>
      <point x="201.502" y="434.076"/>
      <point x="143.669" y="329.411"/>
      <point x="143.669" y="260.011" type="qcurve" smooth="yes"/>
      <point x="143.669" y="191.612"/>
      <point x="201.502" y="85.9468"/>
      <point x="302.312" y="26.6921"/>
    </contour>
  </outline>
</glyph>
<glyph name="c" format="2">
  <advance width="549"/>
  <unicode hex="0063"/>
  <anchor x="338" y="562" name="t.uni0308"/>
  <anchor x="327" y="0" name="b.uni0324_3"/>
  <outline>
    <contour>
      <point x="310.312" y="-3.43346" type="qcurve" smooth="yes"/>
      <point x="236.011" y="-3.43346"/>
      <point x="118.989" y="64"/>
      <point x="51.9772" y="182.722"/>
      <point x="51.9772" y="260.011" type="qcurve" smooth="yes"/>
      <point x="51.9772" y="337.445"/>
      <point x="118.989" y="456.023"/>
      <point x="236.011" y="522.601"/>
      <point x="310.312" y="522.601" type="qcurve" smooth="yes"/>
      <point x="369.057" y="522.601"/>
      <point x="468.802" y="478"/>
      <point x="501.513" y="433.544" type="qcurve"/>
      <point x="477.399" y="413.198" type="line"/>
      <point x="448.122" y="453.764"/>
      <point x="360.722" y="492.475"/>
      <point x="310.167" y="492.475" type="qcurve" smooth="yes"/>
      <point x="245.768" y="492.475"/>
      <point x="143.814" y="434.076"/>
      <point x="85.1256" y="329.411"/>
      <point x="85.1256" y="260.011" type="qcurve" smooth="yes"/>
      <point x="85.1256" y="190.612"/>
      <point x="143.814" y="85.9468"/>
      <point x="245.768" y="26.6921"/>
      <point x="310.167" y="26.6921" type="qcurve" smooth="yes"/>
      <point x="360.722" y="26.6921"/>
      <point x="448.122" y="66.1142"/>
      <point x="477.399" y="105.97" type="qcurve"/>
      <point x="501.513" y="85.6236" type="line"/>
      <point x="468.802" y="41.3118"/>
      <point x="369.057" y="-3.43346"/>
    </contour>
  </outline>
</glyph>
<glyph name="e" format="2">
  <advance width="591"/>
  <unicode hex="0065"/>
  <anchor x="342" y="562" name="t.uni0308"/>
  <anchor x="342" y="0" name="b.uni0324_3"/>
  <anchor x="584" y="0" name="m.uni0328_4"/>
  <outline>
    <contour>
      <point x="314.601" y="-3.43346" type="qcurve" smooth="yes"/>
      <point x="237.867" y="-3.43346"/>
      <point x="119.7" y="64"/>
      <point x="51.9772" y="183.578"/>
      <point x="51.9772" y="260.011" type="qcurve" smooth="yes"/>
      <point x="51.9772" y="337.3"/>
      <point x="115.133" y="455.167"/>
      <point x="226.156" y="522.601"/>
      <point x="295.601" y="522.601" type="qcurve" smooth="yes"/>
      <point x="365.046" y="522.601"/>
      <point x="475.635" y="457.023"/>
      <point x="539.357" y="339.867"/>
      <point x="539.357" y="263.711" type="qcurve" smooth="yes"/>
      <point x="539.357" y="261.844"/>
      <point x="539.213" y="257.388"/>
      <point x="539.068" y="254.521" type="qcurve"/>
      <point x="73.9583" y="254.521" type="line"/>
      <point x="73.9583" y="282.19" type="line"/>
      <point x="521.278" y="282.19" type="line"/>
      <point x="508.076" y="265.601" type="line"/>
      <point x="508.22" y="330.711"/>
      <point x="452.532" y="433.798"/>
      <point x="357.289" y="492.909"/>
      <point x="295.601" y="492.909" type="qcurve" smooth="yes"/>
      <point x="234.768" y="492.909"/>
      <point x="138.525" y="433.798"/>
      <point x="83.8366" y="330.567"/>
      <point x="83.8366" y="265.167" type="qcurve" smooth="yes"/>
      <point x="83.8366" y="259.144" type="line" smooth="yes"/>
      <point x="83.8366" y="191.179"/>
      <point x="143.525" y="85.9468"/>
      <point x="248.057" y="26.6921"/>
      <point x="315.034" y="26.6921" type="qcurve" smooth="yes"/>
      <point x="366.167" y="26.6921"/>
      <point x="456.567" y="65.2472"/>
      <point x="487.133" y="103.947" type="qcurve"/>
      <point x="507.78" y="81.711" type="line"/>
      <point x="473.491" y="39.711"/>
      <point x="372.335" y="-3.43346"/>
    </contour>
  </outline>
</glyph>
<glyph name="f" format="2">
  <advance width="318"/>
  <unicode hex="0066"/>
  <outline>
    <contour>
      <point x="119.966" y="0" type="line"/>
      <point x="119.966" y="611.065" type="line" smooth="yes"/>
      <point x="119.966" y="671.532"/>
      <point x="189.3" y="745.433"/>
      <point x="253.491" y="745.433" type="qcurve" smooth="yes"/>
      <point x="282.068" y="745.433"/>
      <point x="337.357" y="728.011"/>
      <point x="355.646" y="709.589" type="qcurve"/>
      <point x="339.046" y="685.475" type="line"/>
      <point x="323.335" y="700.753"/>
      <point x="279.491" y="716.175"/>
      <point x="255.213" y="716.175" type="qcurve" smooth="yes"/>
      <point x="204.802" y="716.175"/>
      <point x="152.536" y="660.053"/>
      <point x="152.536" y="606.643" type="qcurve" smooth="yes"/>
      <point x="152.536" y="512.411" type="line"/>
      <point x="152.97" y="495.776" type="line"/>
      <point x="152.97" y="0" type="line"/>
    </contour>
    <contour>
      <point x="21.5551" y="489.909" type="line"/>
      <point x="21.5551" y="519.167" type="line"/>
      <point x="324.068" y="519.167" type="line"/>
      <point x="324.068" y="489.909" type="line"/>
    </contour>
  </outline>
</glyph>
<glyph name="g" format="2">
  <advance width="679"/>
  <unicode hex="0067"/>
  <anchor x="372" y="562" name="t.uni0308"/>
  <outline>
    <contour>
      <point x="323" y="-197.433" type="qcurve" smooth="yes"/>
      <point x="252.567" y="-197.433"/>
      <point x="127.966" y="-152.445"/>
      <point x="89.8098" y="-112.734" type="qcurve"/>
      <point x="109.445" y="-88.4752" type="line"/>
      <point x="148.867" y="-126.175"/>
      <point x="258.578" y="-167.308"/>
      <point x="322.422" y="-167.308" type="qcurve" smooth="yes"/>
      <point x="431.388" y="-167.308"/>
      <point x="535.209" y="-64.4866"/>
      <point x="535.209" y="46.1787" type="qcurve" smooth="yes"/>
      <point x="535.209" y="203.076" type="line"/>
      <point x="545.209" y="270.734" type="line"/>
      <point x="535.932" y="338.536" type="line"/>
      <point x="535.932" y="519.167" type="line"/>
      <point x="568.213" y="519.167" type="line"/>
      <point x="568.213" y="50.4791" type="line" smooth="yes"/>
      <point x="568.213" y="-77.1217"/>
      <point x="445.601" y="-197.433"/>
    </contour>
    <contour>
      <point x="308.578" y="17.8669" type="qcurve" smooth="yes"/>
      <point x="235.711" y="17.8669"/>
      <point x="119.555" y="82.8669"/>
      <point x="51.9772" y="197.156"/>
      <point x="51.9772" y="270.734" type="qcurve" smooth="yes"/>
      <point x="51.9772" y="345.167"/>
      <point x="119.555" y="458.601"/>
      <point x="235.711" y="522.601"/>
      <point x="308.578" y="522.601" type="qcurve" smooth="yes"/>
      <point x="380.711" y="522.601"/>
      <point x="493.422" y="460.046"/>
      <point x="558.856" y="346.901"/>
      <point x="558.856" y="270.734" type="qcurve" smooth="yes"/>
      <point x="558.856" y="195.422"/>
      <point x="493.422" y="81.422"/>
      <point x="380.711" y="17.8669"/>
    </contour>
    <contour>
      <point x="310.312" y="47.9925" type="qcurve" smooth="yes"/>
      <point x="375.856" y="47.9925"/>
      <point x="476.954" y="104.392"/>
      <point x="535.498" y="205.624"/>
      <point x="535.498" y="270.734" type="qcurve" smooth="yes"/>
      <point x="535.498" y="336.7"/>
      <point x="476.954" y="436.22"/>
      <point x="375.856" y="492.475"/>
      <point x="310.312" y="492.475" type="qcurve" smooth="yes"/>
      <point x="245.768" y="492.475"/>
      <point x="143.669" y="436.22"/>
      <point x="85.1256" y="336.7"/>
      <point x="85.1256" y="270.734" type="qcurve" smooth="yes"/>
      <point x="85.1256" y="205.624"/>
      <point x="143.669" y="104.392"/>
      <point x="245.768" y="47.9925"/>
    </contour>
  </outline>
</glyph>
<glyph name="h" format="2">
  <advance width="670"/>
  <unicode hex="0068"/>
  <anchor x="180" y="742" name="t.uni0308"/>
  <anchor x="225" y="645" name="t.uni0307_1"/>
  <anchor x="346" y="562" name="t.uni031B_2"/>
  <anchor x="364" y="0" name="b.uni0324_3"/>
  <outline>
    <contour>
      <point x="355.757" y="522.601" type="qcurve" smooth="yes"/>
      <point x="419.901" y="522.601"/>
      <point x="513.057" y="473.456"/>
      <point x="565.068" y="376.445"/>
      <point x="565.068" y="305" type="qcurve" smooth="yes"/>
      <point x="565.068" y="0" type="line"/>
      <point x="532.065" y="0" type="line"/>
      <point x="532.065" y="303.122" type="line" smooth="yes"/>
      <point x="532.065" y="395.943"/>
      <point x="437.966" y="492.186"/>
      <point x="353.289" y="492.186" type="qcurve" smooth="yes"/>
      <point x="288.323" y="492.186"/>
      <point x="194.08" y="439.643"/>
      <point x="143.958" y="344.255"/>
      <point x="143.958" y="279.7" type="qcurve" smooth="yes"/>
      <point x="143.958" y="0" type="line"/>
      <point x="110.954" y="0" type="line"/>
      <point x="110.954" y="742" type="line"/>
      <point x="143.958" y="742" type="line"/>
      <point x="143.958" y="372.89" type="line"/>
      <point x="138.924" y="381.814" type="line"/>
      <point x="162.502" y="447.213"/>
      <point x="273.78" y="522.601"/>
    </contour>
  </outline>
</glyph>
<glyph name="k" format="2">
  <advance width="578"/>
  <unicode hex="006B"/>
  <anchor x="180" y="742" name="t.uni0308"/>
  <anchor x="341" y="562" name="t.uni031B_2"/>
  <anchor x="330" y="0" name="b.uni0324_3"/>
  <outline>
    <contour>
      <point x="134.935" y="149.521" type="line"/>
      <point x="135.369" y="190.426" type="line"/>
      <point x="495.81" y="519.167" type="line"/>
      <point x="539.837" y="519.167" type="line"/>
      <point x="313.247" y="309.122" type="line"/>
      <point x="291.034" y="291.631" type="line"/>
    </contour>
    <contour>
      <point x="110.954" y="0" type="line"/>
      <point x="110.954" y="742" type="line"/>
      <point x="143.958" y="742" type="line"/>
      <point x="143.958" y="0" type="line"/>
    </contour>
    <contour>
      <point x="520.943" y="0" type="line"/>
      <point x="284.722" y="296.053" type="line"/>
      <point x="308.525" y="319.179" type="line"/>
      <point x="562.548" y="0" type="line"/>
    </contour>
  </outline>
</glyph>
<glyph name="m" format="2">
  <advance width="1066"/>
  <unicode hex="006D"/>
  <anchor x="511" y="0" name="b.uni0324_3"/>
  <outline>
    <contour>
      <point x="757.278" y="522.601" type="qcurve" smooth="yes"/>
      <point x="819.711" y="522.601"/>
      <point x="911.011" y="473.456"/>
      <point x="961.023" y="376.445"/>
      <point x="961.023" y="305" type="qcurve" smooth="yes"/>
      <point x="961.023" y="0" type="line"/>
      <point x="928.019" y="0" type="line"/>
      <point x="928.019" y="303.122" type="line" smooth="yes"/>
      <point x="928.019" y="395.943"/>
      <point x="837.065" y="492.186"/>
      <point x="755.388" y="492.186" type="qcurve" smooth="yes"/>
      <point x="692.567" y="492.186"/>
      <point x="601.468" y="439.643"/>
      <point x="552.491" y="344.255"/>
      <point x="552.491" y="279.7" type="qcurve" smooth="yes"/>
      <point x="552.491" y="0" type="line"/>
      <point x="519.487" y="0" type="line"/>
      <point x="519.487" y="303.122" type="line" smooth="yes"/>
      <point x="519.487" y="395.943"/>
      <point x="428.532" y="492.186"/>
      <point x="346.856" y="492.186" type="qcurve" smooth="yes"/>
      <point x="284.034" y="492.186"/>
      <point x="192.935" y="439.643"/>
      <point x="143.958" y="344.255"/>
      <point x="143.958" y="279.7" type="qcurve" smooth="yes"/>
      <point x="143.958" y="0" type="line"/>
      <point x="110.954" y="0" type="line"/>
      <point x="110.954" y="519.167" type="line"/>
      <point x="143.236" y="519.167" type="line"/>
      <point x="143.236" y="374.034" type="line"/>
      <point x="138.924" y="382.669" type="line"/>
      <point x="161.502" y="447.213"/>
      <point x="270.491" y="522.601"/>
      <point x="349.468" y="522.601" type="qcurve" smooth="yes"/>
      <point x="428.745" y="522.601"/>
      <point x="533.757" y="442.612"/>
      <point x="547.479" y="363.335" type="qcurve"/>
      <point x="538.266" y="366.791" type="line"/>
      <point x="558.133" y="436.057"/>
      <point x="672.289" y="522.601"/>
    </contour>
  </outline>
</glyph>
<glyph name="o" format="2">
  <advance width="614"/>
  <unicode hex="006F"/>
  <anchor x="350" y="562" name="t.uni0308"/>
  <anchor x="350" y="281" name="t.uni0307_1"/>
  <anchor x="418" y="561" name="t.uni031B_2"/>
  <anchor x="350" y="0" name="b.uni0324_3"/>
  <anchor x="490" y="0" name="m.uni0328_4"/>
  <outline>
    <contour>
      <point x="307.167" y="-3.43346" type="qcurve" smooth="yes"/>
      <point x="233.867" y="-3.43346"/>
      <point x="118.989" y="64"/>
      <point x="51.9772" y="183.578"/>
      <point x="51.9772" y="260.011" type="qcurve" smooth="yes"/>
      <point x="51.9772" y="337.445"/>
      <point x="118.989" y="455.167"/>
      <point x="233.867" y="522.601"/>
      <point x="307.167" y="522.601" type="qcurve" smooth="yes"/>
      <point x="380.468" y="522.601"/>
      <point x="496.346" y="455.167"/>
      <point x="562.357" y="337.445"/>
      <point x="562.357" y="260.011" type="qcurve" smooth="yes"/>
      <point x="562.357" y="183.578"/>
      <point x="496.346" y="64"/>
      <point x="380.468" y="-3.43346"/>
    </contour>
    <contour>
      <point x="307.167" y="26.6921" type="qcurve" smooth="yes"/>
      <point x="370.711" y="26.6921"/>
      <point x="471.521" y="85.9468"/>
      <point x="529.209" y="191.612"/>
      <point x="529.209" y="260.011" type="qcurve" smooth="yes"/>
      <point x="529.209" y="329.411"/>
      <point x="471.521" y="434.076"/>
      <point x="370.711" y="492.475"/>
      <point x="307.312" y="492.475" type="qcurve" smooth="yes"/>
      <point x="243.768" y="492.475"/>
      <point x="143.814" y="434.076"/>
      <point x="85.1256" y="329.411"/>
      <point x="85.1256" y="260.011" type="qcurve" smooth="yes"/>
      <point x="85.1256" y="191.612"/>
      <point x="143.814" y="85.9468"/>
      <point x="243.768" y="26.6921"/>
    </contour>
  </outline>
</glyph>
<glyph name="p" format="2">
  <advance width="673"/>
  <unicode hex="0070"/>
  <anchor x="360" y="562" name="t.uni0308"/>
  <anchor x="435" y="0" name="b.uni0324_3"/>
  <outline>
    <contour>
      <point x="367.011" y="-3.43346" type="qcurve" smooth="yes"/>
      <point x="296.878" y="-3.43346"/>
      <point x="185.312" y="62.4106"/>
      <point x="120.312" y="180.844"/>
      <point x="120.312" y="259.156" type="qcurve" smooth="yes"/>
      <point x="120.312" y="338.468"/>
      <point x="185.023" y="456.757"/>
      <point x="296.589" y="522.601"/>
      <point x="367.011" y="522.601" type="qcurve" smooth="yes"/>
      <point x="439.167" y="522.601"/>
      <point x="554.323" y="455.456"/>
      <point x="620.901" y="336.878"/>
      <point x="620.901" y="259.156" type="qcurve" smooth="yes"/>
      <point x="620.901" y="182.289"/>
      <point x="554.323" y="63.711"/>
      <point x="439.167" y="-3.43346"/>
    </contour>
    <contour>
      <point x="110.954" y="-194" type="line"/>
      <point x="110.954" y="519.167" type="line"/>
      <point x="143.236" y="519.167" type="line"/>
      <point x="143.236" y="337.259" type="line"/>
      <point x="133.958" y="258.156" type="line"/>
      <point x="143.958" y="179.053" type="line"/>
      <point x="143.958" y="-194" type="line"/>
    </contour>
    <contour>
      <point x="365.711" y="26.6921" type="qcurve" smooth="yes"/>
      <point x="429.11" y="26.6921"/>
      <point x="529.92" y="85.0913"/>
      <point x="587.753" y="190.757"/>
      <point x="587.753" y="259.156" type="qcurve" smooth="yes"/>
      <point x="587.753" y="328.555"/>
      <point x="529.92" y="433.22"/>
      <point x="429.11" y="492.475"/>
      <point x="365.711" y="492.475" type="qcurve" smooth="yes"/>
      <point x="302.312" y="492.475"/>
      <point x="201.502" y="433.22"/>
      <point x="143.669" y="328.555"/>
      <point x="143.669" y="259.156" type="qcurve" smooth="yes"/>
      <point x="143.669" y="190.757"/>
      <point x="201.502" y="85.0913"/>
      <point x="302.312" y="26.6921"/>
    </contour>
  </outline>
</glyph>
<glyph name="q" format="2">
  <advance width="673"/>
  <unicode hex="0071"/>
  <anchor x="354" y="562" name="t.uni0308"/>
  <anchor x="281" y="0" name="b.uni0324_3"/>
  <outline>
    <contour>
      <point x="305.867" y="-3.43346" type="qcurve" smooth="yes"/>
      <point x="233.856" y="-3.43346"/>
      <point x="118.555" y="63.711"/>
      <point x="51.9772" y="182.289"/>
      <point x="51.9772" y="259.156" type="qcurve" smooth="yes"/>
      <point x="51.9772" y="336.878"/>
      <point x="118.555" y="455.456"/>
      <point x="233.856" y="522.601"/>
      <point x="305.867" y="522.601" type="qcurve" smooth="yes"/>
      <point x="376.433" y="522.601"/>
      <point x="487.856" y="456.757"/>
      <point x="552.567" y="338.468"/>
      <point x="552.567" y="259.156" type="qcurve" smooth="yes"/>
      <point x="552.567" y="180.844"/>
      <point x="487.567" y="62.4106"/>
      <point x="376.144" y="-3.43346"/>
    </contour>
    <contour>
      <point x="307.167" y="26.6921" type="qcurve" smooth="yes"/>
      <point x="370.567" y="26.6921"/>
      <point x="471.376" y="85.0913"/>
      <point x="529.209" y="190.757"/>
      <point x="529.209" y="259.156" type="qcurve" smooth="yes"/>
      <point x="529.209" y="328.555"/>
      <point x="471.376" y="433.22"/>
      <point x="370.567" y="492.475"/>
      <point x="307.167" y="492.475" type="qcurve" smooth="yes"/>
      <point x="243.768" y="492.475"/>
      <point x="143.814" y="433.22"/>
      <point x="85.1256" y="328.555"/>
      <point x="85.1256" y="259.156" type="qcurve" smooth="yes"/>
      <point x="85.1256" y="190.757"/>
      <point x="143.814" y="85.0913"/>
      <point x="243.768" y="26.6921"/>
    </contour>
    <contour>
      <point x="528.92" y="-194" type="line"/>
      <point x="528.92" y="179.053" type="line"/>
      <point x="538.92" y="258.156" type="line"/>
      <point x="529.643" y="337.259" type="line"/>
      <point x="529.643" y="519.167" type="line"/>
      <point x="561.924" y="519.167" type="line"/>
      <point x="561.924" y="-194" type="line"/>
    </contour>
  </outline>
</glyph>
<glyph name="r" format="2">
  <advance width="388"/>
  <unicode hex="0072"/>
  <anchor x="253" y="562" name="t.uni0308"/>
  <anchor x="180" y="0" name="b.uni0324_3"/>
  <outline>
    <contour>
      <point x="110.954" y="0" type="line"/>
      <point x="110.954" y="519.167" type="line"/>
      <point x="143.236" y="519.167" type="line"/>
      <point x="143.236" y="376.023" type="line"/>
      <point x="139.935" y="384.658" type="line"/>
      <point x="161.224" y="450.491"/>
      <point x="265.935" y="522.601"/>
      <point x="344.502" y="522.601" type="qcurve"/>
      <point x="344.502" y="490.03" type="line"/>
      <point x="342.635" y="490.175"/>
      <point x="338.335" y="490.319"/>
      <point x="335.757" y="490.319" type="qcurve" smooth="yes"/>
      <point x="245.502" y="490.319"/>
      <point x="143.958" y="375.943"/>
      <point x="143.958" y="275.544" type="qcurve" smooth="yes"/>
      <point x="143.958" y="0" type="line"/>
    </contour>
  </outline>
</glyph>
<glyph name="u" format="2">
  <advance width="666"/>
  <unicode hex="0075"/>
  <anchor x="356" y="562" name="t.uni0308"/>
  <anchor x="533" y="562" name="t.uni031B_2"/>
  <anchor x="356" y="0" name="b.uni0324_3"/>
  <anchor x="691" y="0" name="m.uni0328_4"/>
  <outline>
    <contour>
      <point x="319.844" y="-3.43346" type="qcurve" smooth="yes"/>
      <point x="253.411" y="-3.43346"/>
      <point x="157.11" y="45.711"/>
      <point x="105.099" y="142.867"/>
      <point x="105.099" y="214.167" type="qcurve" smooth="yes"/>
      <point x="105.099" y="519.167" type="line"/>
      <point x="138.103" y="519.167" type="line"/>
      <point x="138.103" y="216.046" type="line" smooth="yes"/>
      <point x="138.103" y="123.224"/>
      <point x="233.768" y="26.9811"/>
      <point x="320.867" y="26.9811" type="qcurve" smooth="yes"/>
      <point x="383.266" y="26.9811"/>
      <point x="473.798" y="79.5248"/>
      <point x="522.209" y="175.913"/>
      <point x="522.209" y="239.468" type="qcurve" smooth="yes"/>
      <point x="522.209" y="519.167" type="line"/>
      <point x="555.213" y="519.167" type="line"/>
      <point x="555.213" y="0" type="line"/>
      <point x="522.932" y="0" type="line"/>
      <point x="522.932" y="145.422" type="line"/>
      <point x="527.243" y="136.498" type="line"/>
      <point x="504.521" y="71.9543"/>
      <point x="397.243" y="-3.43346"/>
    </contour>
  </outline>
</glyph>
<glyph name="v" format="2">
  <advance width="517"/>
  <unicode hex="0076"/>
  <anchor x="352" y="562" name="t.uni0308"/>
  <anchor x="352" y="0" name="b.uni0324_3"/>
  <outline>
    <contour>
      <point x="241.544" y="0" type="line"/>
      <point x="4.69961" y="519.167" type="line"/>
      <point x="40.848" y="519.167" type="line"/>
      <point x="265.947" y="20.213" type="line"/>
      <point x="251.011" y="20.213" type="line"/>
      <point x="476.833" y="519.167" type="line"/>
      <point x="511.97" y="519.167" type="line"/>
      <point x="274.981" y="0" type="line"/>
    </contour>
  </outline>
</glyph>
<glyph name="w" format="2">
  <advance width="848"/>
  <unicode hex="0077"/>
  <anchor x="522" y="560" name="t.uni0308"/>
  <anchor x="522" y="0" name="b.uni0324_3"/>
  <outline>
    <contour>
      <point x="209.7" y="0" type="line"/>
      <point x="10.9886" y="519.167" type="line"/>
      <point x="43.1256" y="519.167" type="line"/>
      <point x="231.38" y="20.213" type="line"/>
      <point x="217.456" y="20.213" type="line"/>
      <point x="409.289" y="519.167" type="line"/>
      <point x="438.981" y="519.167" type="line"/>
      <point x="630.236" y="20.213" type="line"/>
      <point x="616.312" y="20.213" type="line"/>
      <point x="805.289" y="519.167" type="line"/>
      <point x="837.415" y="519.167" type="line"/>
      <point x="638.559" y="0" type="line"/>
      <point x="607.989" y="0" type="line"/>
      <point x="418.612" y="487.741" type="line"/>
      <point x="429.224" y="487.741" type="line"/>
      <point x="239.415" y="0" type="line"/>
    </contour>
  </outline>
</glyph>
<glyph name="x" format="2">
  <advance width="507"/>
  <unicode hex="0078"/>
  <outline>
    <contour>
      <point x="25.6882" y="0" type="line"/>
      <point x="239.578" y="276.19" type="line"/>
      <point x="238.578" y="261.966" type="line"/>
      <point x="37.2547" y="519.167" type="line"/>
      <point x="76.2701" y="519.167" type="line"/>
      <point x="259.658" y="282.924" type="line"/>
      <point x="246.023" y="283.068" type="line"/>
      <point x="429.411" y="519.167" type="line"/>
      <point x="467.281" y="519.167" type="line"/>
      <point x="263.958" y="258.255" type="line"/>
      <point x="264.958" y="276.901" type="line"/>
      <point x="481.559" y="0" type="line"/>
      <point x="441.399" y="0" type="line"/>
      <point x="247.3" y="251.81" type="line"/>
      <point x="258.224" y="250.943" type="line"/>
      <point x="64.7035" y="0" type="line"/>
    </contour>
  </outline>
</glyph>
<glyph name="y" format="2">
  <advance width="517"/>
  <unicode hex="0079"/>
  <anchor x="345" y="562" name="t.uni0308"/>
  <anchor x="608" y="0" name="b.uni0324_3"/>
  <outline>
    <contour>
      <point x="86.635" y="-197.433" type="qcurve" smooth="yes"/>
      <point x="51.9126" y="-197.433"/>
      <point x="-7.68819" y="-174.144"/>
      <point x="-29.4106" y="-151" type="qcurve"/>
      <point x="-9.9315" y="-125.464" type="line"/>
      <point x="10.7795" y="-146.886"/>
      <point x="57.213" y="-167.741"/>
      <point x="87.4905" y="-167.741" type="qcurve" smooth="yes"/>
      <point x="124.913" y="-167.741"/>
      <point x="182.601" y="-125.897"/>
      <point x="208.445" y="-70.0646" type="qcurve" smooth="yes"/>
      <point x="245.578" y="12.0571" type="line"/>
      <point x="251.3" y="20.0685" type="line"/>
      <point x="476.833" y="519.167" type="line"/>
      <point x="511.97" y="519.167" type="line"/>
      <point x="240.004" y="-77.9429" type="line" smooth="yes"/>
      <point x="220.281" y="-122.255"/>
      <point x="173.259" y="-174.711"/>
      <point x="119.369" y="-197.433"/>
    </contour>
    <contour>
      <point x="247.411" y="-12.0114" type="line"/>
      <point x="4.69961" y="519.167" type="line"/>
      <point x="40.848" y="519.167" type="line"/>
      <point x="265.802" y="21.5134" type="line"/>
    </contour>
  </outline>
</glyph>
<glyph name="z" format="2">
  <advance width="496"/>
  <unicode hex="007A"/>
  <anchor x="310" y="562" name="t.uni0308"/>
  <anchor x="305" y="0" name="b.uni0324_3"/>
  <outline>
    <contour>
      <point x="44.9886" y="0" type="line"/>
      <point x="44.9886" y="23.0913" type="line"/>
      <point x="409.076" y="500.532" type="line"/>
      <point x="418.954" y="489.909" type="line"/>
      <point x="50.1331" y="489.909" type="line"/>
      <point x="50.1331" y="519.167" type="line"/>
      <point x="444.502" y="519.167" type="line"/>
      <point x="444.502" y="496.076" type="line"/>
      <point x="80.4146" y="18.635" type="line"/>
      <point x="66.8252" y="29.2586" type="line"/>
      <point x="449.935" y="29.2586" type="line"/>
      <point x="449.935" y="0" type="line"/>
    </contour>
  </outline>
</glyph>
<glyph name="braceleft" format="2">
  <advance width="309"/>
  <unicode hex="007B"/>
  <outline>
    <contour>
      <point x="256.502" y="-194" type="line" smooth="yes"/>
      <point x="200.601" y="-194"/>
      <point x="143.555" y="-139.665"/>
      <point x="143.555" y="-84.1976" type="qcurve" smooth="yes"/>
      <point x="143.555" y="207.232" type="line" smooth="yes"/>
      <point x="143.555" y="234.943"/>
      <point x="120.411" y="259.654"/>
      <point x="98.5551" y="259.654" type="qcurve" smooth="yes"/>
      <point x="63.6996" y="259.654" type="line"/>
      <point x="63.6996" y="289.202" type="line"/>
      <point x="98.5551" y="289.202" type="line" smooth="yes"/>
      <point x="120.411" y="289.202"/>
      <point x="143.555" y="313.202"/>
      <point x="143.555" y="340.768" type="qcurve" smooth="yes"/>
      <point x="143.555" y="632.198" type="line" smooth="yes"/>
      <point x="143.555" y="688.665"/>
      <point x="200.601" y="742"/>
      <point x="256.502" y="742" type="qcurve" smooth="yes"/>
      <point x="284.681" y="742" type="line"/>
      <point x="284.681" y="712.741" type="line"/>
      <point x="253.981" y="712.741" type="line" smooth="yes"/>
      <point x="214.415" y="712.741"/>
      <point x="176.559" y="670.175"/>
      <point x="176.559" y="630.608" type="qcurve" smooth="yes"/>
      <point x="176.559" y="341.057" type="line" smooth="yes"/>
      <point x="176.559" y="318.601"/>
      <point x="166.97" y="291.144"/>
      <point x="147.646" y="276.278"/>
      <point x="132.046" y="271.278" type="qcurve"/>
      <point x="132.046" y="276.722" type="line"/>
      <point x="147.646" y="272.722"/>
      <point x="166.97" y="256.856"/>
      <point x="176.559" y="229.399"/>
      <point x="176.559" y="206.943" type="qcurve" smooth="yes"/>
      <point x="176.559" y="-82.6083" type="line" smooth="yes"/>
      <point x="176.559" y="-122.175"/>
      <point x="214.415" y="-164.741"/>
      <point x="253.981" y="-164.741" type="qcurve" smooth="yes"/>
      <point x="284.681" y="-164.741" type="line"/>
      <point x="284.681" y="-194" type="line"/>
    </contour>
  </outline>
</glyph>
<glyph name="braceright" format="2">
  <advance width="309"/>
  <unicode hex="007D"/>
  <outline>
    <contour>
      <point x="52.1673" y="-194" type="qcurve" smooth="yes"/>
      <point x="23.9886" y="-194" type="line"/>
      <point x="23.9886" y="-164.741" type="line"/>
      <point x="54.6882" y="-164.741" type="line" smooth="yes"/>
      <point x="95.2547" y="-164.741"/>
      <point x="132.255" y="-122.175"/>
      <point x="132.255" y="-82.6083" type="qcurve" smooth="yes"/>
      <point x="132.255" y="206.943" type="line" smooth="yes"/>
      <point x="132.255" y="229.399"/>
      <point x="141.844" y="256.856"/>
      <point x="162.023" y="272.722"/>
      <point x="176.624" y="276.722" type="qcurve"/>
      <point x="176.624" y="271.278" type="line"/>
      <point x="162.023" y="276.278"/>
      <point x="141.844" y="291.144"/>
      <point x="132.255" y="318.601"/>
      <point x="132.255" y="341.057" type="qcurve" smooth="yes"/>
      <point x="132.255" y="630.608" type="line" smooth="yes"/>
      <point x="132.255" y="670.175"/>
      <point x="95.2547" y="712.741"/>
      <point x="54.6882" y="712.741" type="qcurve" smooth="yes"/>
      <point x="23.9886" y="712.741" type="line"/>
      <point x="23.9886" y="742" type="line"/>
      <point x="52.1673" y="742" type="line" smooth="yes"/>
      <point x="108.213" y="742"/>
      <point x="165.259" y="688.665"/>
      <point x="165.259" y="632.198" type="qcurve" smooth="yes"/>
      <point x="165.259" y="340.768" type="line" smooth="yes"/>
      <point x="165.259" y="313.202"/>
      <point x="188.403" y="289.202"/>
      <point x="210.114" y="289.202" type="qcurve" smooth="yes"/>
      <point x="244.97" y="289.202" type="line"/>
      <point x="244.97" y="259.654" type="line"/>
      <point x="210.114" y="259.654" type="line" smooth="yes"/>
      <point x="188.403" y="259.654"/>
      <point x="165.259" y="234.943"/>
      <point x="165.259" y="207.232" type="qcurve" smooth="yes"/>
      <point x="165.259" y="-84.1976" type="line" smooth="yes"/>
      <point x="165.259" y="-139.665"/>
      <point x="108.213" y="-194"/>
    </contour>
  </outline>
</glyph>
<glyph name="asciitilde" format="2">
  <advance width="564"/>
  <unicode hex="007E"/>
  <outline>
    <contour>
      <point x="383.734" y="282.388" type="qcurve" smooth="yes"/>
      <point x="347.734" y="282.388"/>
      <point x="297.011" y="314.81"/>
      <point x="254.578" y="357.798"/>
      <point x="210.3" y="390.22"/>
      <point x="180.601" y="390.22" type="qcurve" smooth="yes"/>
      <point x="141.046" y="390.22"/>
      <point x="94.7795" y="333.81"/>
      <point x="92.7795" y="286.11" type="qcurve"/>
      <point x="67.1217" y="286.11" type="line"/>
      <point x="69.9772" y="349.3"/>
      <point x="132.289" y="417.757"/>
      <point x="180.023" y="417.757" type="qcurve" smooth="yes"/>
      <point x="216.023" y="417.757"/>
      <point x="266.745" y="385.335"/>
      <point x="309.179" y="342.346"/>
      <point x="353.456" y="309.924"/>
      <point x="383.156" y="309.924" type="qcurve" smooth="yes"/>
      <point x="422.856" y="309.924"/>
      <point x="469.122" y="366.479"/>
      <point x="470.977" y="414.179" type="qcurve"/>
      <point x="496.635" y="414.179" type="line"/>
      <point x="493.78" y="351.844"/>
      <point x="432.468" y="282.388"/>
    </contour>
  </outline>
</glyph>
<glyph name="exclamdown" format="2">
  <advance width="246"/>
  <unicode hex="00A1"/>
  <outline>
    <contour>
      <point x="135.513" y="325.532" type="line"/>
      <point x="142.114" y="-154" type="line"/>
      <point x="104.509" y="-154" type="line"/>
      <point x="110.966" y="325.532" type="line"/>
    </contour>
    <contour>
      <point x="123.312" y="522.601" type="qcurve" smooth="yes"/>
      <point x="137.346" y="522.601"/>
      <point x="155.958" y="503.7"/>
      <point x="155.958" y="489.954" type="qcurve" smooth="yes"/>
      <point x="155.958" y="477.209"/>
      <point x="137.346" y="457.597"/>
      <point x="123.312" y="457.597" type="qcurve" smooth="yes"/>
      <point x="110.278" y="457.597"/>
      <point x="90.5209" y="477.209"/>
      <point x="90.5209" y="489.954" type="qcurve" smooth="yes"/>
      <point x="90.5209" y="503.7"/>
      <point x="110.278" y="522.601"/>
    </contour>
  </outline>
</glyph>
<glyph name="sterling" format="2">
  <advance width="623"/>
  <unicode hex="00A3"/>
  <outline>
    <contour>
      <point x="148.122" y="10.7224" type="line"/>
      <point x="148.122" y="476.22" type="line" smooth="yes"/>
      <point x="148.122" y="544.388"/>
      <point x="203.867" y="646.422"/>
      <point x="316.768" y="703.867"/>
      <point x="401.646" y="703.867" type="qcurve" smooth="yes"/>
      <point x="461.791" y="703.867"/>
      <point x="565.346" y="675.734"/>
      <point x="605.346" y="644.745" type="qcurve"/>
      <point x="588.878" y="617.331" type="line"/>
      <point x="550.601" y="647.175"/>
      <point x="455.19" y="672.874"/>
      <point x="400.057" y="672.874" type="qcurve" smooth="yes"/>
      <point x="288.103" y="672.874"/>
      <point x="181.704" y="567.487"/>
      <point x="181.704" y="473.798" type="qcurve" smooth="yes"/>
      <point x="181.704" y="10.7224" type="line"/>
    </contour>
    <contour>
      <point x="30" y="0" type="line"/>
      <point x="30" y="30.559" type="line"/>
      <point x="594.479" y="30.559" type="line"/>
      <point x="594.479" y="0" type="line"/>
    </contour>
    <contour>
      <point x="30" y="336.954" type="line"/>
      <point x="30" y="363.046" type="line"/>
      <point x="475.068" y="363.046" type="line"/>
      <point x="475.068" y="336.954" type="line"/>
    </contour>
  </outline>
</glyph>
<glyph name="currency" format="2">
  <advance width="700"/>
  <unicode hex="00A4"/>
  <outline>
    <contour>
      <point x="156.833" y="488.654" type="line"/>
      <point x="37.6996" y="608.643" type="line"/>
      <point x="58.635" y="630.445" type="line"/>
      <point x="178.768" y="510.456" type="line"/>
    </contour>
    <contour>
      <point x="58.635" y="4.55512" type="line"/>
      <point x="37.6996" y="26.3575" type="line"/>
      <point x="156.833" y="146.346" type="line"/>
      <point x="178.768" y="124.544" type="line"/>
    </contour>
    <contour>
      <point x="641.22" y="4.55512" type="line"/>
      <point x="521.087" y="124.544" type="line"/>
      <point x="543.023" y="146.346" type="line"/>
      <point x="662.3" y="26.3575" type="line"/>
    </contour>
    <contour>
      <point x="543.023" y="488.654" type="line"/>
      <point x="521.087" y="510.456" type="line"/>
      <point x="641.22" y="630.445" type="line"/>
      <point x="662.3" y="608.643" type="line"/>
    </contour>
    <contour>
      <point x="350" y="47.5894" type="qcurve" smooth="yes"/>
      <point x="292.433" y="47.5894"/>
      <point x="191.867" y="89.4449"/>
      <point x="115.3" y="164.011"/>
      <point x="71.5894" y="261.578"/>
      <point x="71.5894" y="316.433" type="qcurve" smooth="yes"/>
      <point x="71.5894" y="372.289"/>
      <point x="115.3" y="470.711"/>
      <point x="191.867" y="545.422"/>
      <point x="292.433" y="588.133"/>
      <point x="350" y="588.133" type="qcurve" smooth="yes"/>
      <point x="408.567" y="588.133"/>
      <point x="509.989" y="545.422"/>
      <point x="587.411" y="470.711"/>
      <point x="631.122" y="372.289"/>
      <point x="631.122" y="316.433" type="qcurve" smooth="yes"/>
      <point x="631.122" y="261.578"/>
      <point x="587.411" y="164.011"/>
      <point x="509.989" y="89.4449"/>
      <point x="408.567" y="47.5894"/>
    </contour>
    <contour>
      <point x="350" y="77.7035" type="qcurve" smooth="yes"/>
      <point x="419.677" y="77.7035"/>
      <point x="533.331" y="142.669"/>
      <point x="601.296" y="250.612"/>
      <point x="601.296" y="316.433" type="qcurve" smooth="yes"/>
      <point x="601.296" y="383.255"/>
      <point x="533.331" y="492.198"/>
      <point x="419.677" y="558.019"/>
      <point x="350" y="558.019" type="qcurve" smooth="yes"/>
      <point x="282.179" y="558.019"/>
      <point x="168.525" y="492.198"/>
      <point x="101.559" y="383.255"/>
      <point x="101.559" y="316.433" type="qcurve" smooth="yes"/>
      <point x="101.559" y="250.612"/>
      <point x="168.525" y="142.669"/>
      <point x="282.179" y="77.7035"/>
    </contour>
  </outline>
</glyph>
<glyph name="yen" format="2">
  <advance width="676"/>
  <unicode hex="00A5"/>
  <outline>
    <contour>
      <point x="321.388" y="0" type="line"/>
      <point x="321.388" y="303.289" type="line"/>
      <point x="329.422" y="279.475" type="line"/>
      <point x="7.68819" y="700" type="line"/>
      <point x="44.848" y="700" type="line"/>
      <point x="346.947" y="308.133" type="line"/>
      <point x="329.989" y="308.133" type="line"/>
      <point x="632.232" y="700" type="line"/>
      <point x="668.669" y="700" type="line"/>
      <point x="346.935" y="279.475" type="line"/>
      <point x="354.97" y="303.289" type="line"/>
      <point x="354.97" y="0" type="line"/>
    </contour>
    <contour>
      <point x="86.4449" y="150.209" type="line"/>
      <point x="86.4449" y="174.856" type="line"/>
      <point x="589.913" y="174.856" type="line"/>
      <point x="589.913" y="150.209" type="line"/>
    </contour>
    <contour>
      <point x="86.4449" y="288.209" type="line"/>
      <point x="86.4449" y="312.856" type="line"/>
      <point x="589.913" y="312.856" type="line"/>
      <point x="589.913" y="288.209" type="line"/>
    </contour>
  </outline>
</glyph>
<glyph name="brokenbar" format="2">
  <advance width="288"/>
  <unicode hex="00A6"/>
  <outline>
    <contour>
      <point x="128.232" y="392" type="line"/>
      <point x="128.232" y="742" type="line"/>
      <point x="159.935" y="742" type="line"/>
      <point x="159.935" y="392" type="line"/>
    </contour>
    <contour>
      <point x="128.232" y="-194" type="line"/>
      <point x="128.232" y="156" type="line"/>
      <point x="159.935" y="156" type="line"/>
      <point x="159.935" y="-194" type="line"/>
    </contour>
  </outline>
</glyph>
<glyph name="section" format="2">
  <advance width="476"/>
  <unicode hex="00A7"/>
  <outline>
    <contour>
      <point x="321.502" y="147.856" type="qcurve"/>
      <point x="288.856" y="167.068" type="line"/>
      <point x="337.122" y="174.068"/>
      <point x="405.943" y="232.901"/>
      <point x="405.943" y="284.156" type="qcurve" smooth="yes"/>
      <point x="405.943" y="321.567"/>
      <point x="369.232" y="367.399"/>
      <point x="308.81" y="394.099"/>
      <point x="236.532" y="412.665"/>
      <point x="165.11" y="432.665"/>
      <point x="104.688" y="463.099"/>
      <point x="67.9772" y="516.388"/>
      <point x="67.9772" y="558.677" type="qcurve" smooth="yes"/>
      <point x="67.9772" y="605.255"/>
      <point x="115.422" y="669.133"/>
      <point x="204.312" y="703.433"/>
      <point x="267.046" y="703.433" type="qcurve" smooth="yes"/>
      <point x="298.901" y="703.433"/>
      <point x="363.913" y="690.722"/>
      <point x="420.357" y="667.011"/>
      <point x="440.502" y="651.011" type="qcurve"/>
      <point x="425.323" y="625.331" type="line"/>
      <point x="393.601" y="650.186"/>
      <point x="309.89" y="674.608"/>
      <point x="265.89" y="674.608" type="qcurve" smooth="yes"/>
      <point x="185.635" y="674.608"/>
      <point x="99.2472" y="617.498"/>
      <point x="99.2472" y="559.255" type="qcurve" smooth="yes"/>
      <point x="99.2472" y="522.278"/>
      <point x="135.814" y="478.445"/>
      <point x="195.38" y="452.745"/>
      <point x="267.658" y="434.179"/>
      <point x="339.935" y="414.89"/>
      <point x="399.502" y="382.312"/>
      <point x="436.068" y="328.445"/>
      <point x="436.068" y="284.3" type="qcurve" smooth="yes"/>
      <point x="436.068" y="232.445"/>
      <point x="370.502" y="160.578"/>
    </contour>
    <contour>
      <point x="225.445" y="-103.433" type="qcurve" smooth="yes"/>
      <point x="188.156" y="-103.433"/>
      <point x="113.144" y="-85.7224"/>
      <point x="51.1331" y="-53.4449"/>
      <point x="30.9886" y="-33.7339" type="qcurve"/>
      <point x="46.1673" y="-7.90867" type="line"/>
      <point x="74.7453" y="-34.6197"/>
      <point x="171.745" y="-74.6083"/>
      <point x="226.023" y="-74.6083" type="qcurve" smooth="yes"/>
      <point x="299.555" y="-74.6083"/>
      <point x="381.232" y="-16.6425"/>
      <point x="381.232" y="40.7453" type="qcurve" smooth="yes"/>
      <point x="381.232" y="78.0114"/>
      <point x="344.521" y="121.844"/>
      <point x="285.099" y="147.688"/>
      <point x="212.821" y="166.11"/>
      <point x="140.399" y="185.255"/>
      <point x="80.9772" y="217.544"/>
      <point x="44.2661" y="271.977"/>
      <point x="44.2661" y="315.122" type="qcurve" smooth="yes"/>
      <point x="44.2661" y="368.555"/>
      <point x="109.833" y="438.567"/>
      <point x="157.977" y="451.289" type="qcurve"/>
      <point x="188.624" y="432.076" type="line"/>
      <point x="141.357" y="425.076"/>
      <point x="74.3917" y="366.388"/>
      <point x="74.3917" y="315.989" type="qcurve" smooth="yes"/>
      <point x="74.3917" y="278.578"/>
      <point x="111.103" y="232.745"/>
      <point x="171.525" y="205.046"/>
      <point x="243.947" y="187.479"/>
      <point x="315.369" y="167.479"/>
      <point x="375.791" y="136.046"/>
      <point x="412.502" y="82.6122"/>
      <point x="412.502" y="39.4677" type="qcurve" smooth="yes"/>
      <point x="412.502" y="-5.25473"/>
      <point x="366.202" y="-69.9886"/>
      <point x="282.745" y="-103.433"/>
    </contour>
  </outline>
</glyph>
<glyph name="copyright" format="2">
  <advance width="820"/>
  <unicode hex="00A9"/>
  <outline>
    <contour>
      <point x="409.122" y="-3" type="qcurve" smooth="yes"/>
      <point x="334.122" y="-3"/>
      <point x="206.122" y="51"/>
      <point x="110.122" y="148"/>
      <point x="57.1217" y="276"/>
      <point x="57.1217" y="350" type="qcurve" smooth="yes"/>
      <point x="57.1217" y="424"/>
      <point x="111.122" y="552"/>
      <point x="207.122" y="649"/>
      <point x="336.122" y="703"/>
      <point x="411.122" y="703" type="qcurve" smooth="yes"/>
      <point x="486.122" y="703"/>
      <point x="615.122" y="650"/>
      <point x="710.122" y="554"/>
      <point x="763.122" y="427"/>
      <point x="763.122" y="352" type="qcurve" smooth="yes"/>
      <point x="763.122" y="277"/>
      <point x="709.122" y="148"/>
      <point x="612.122" y="51"/>
      <point x="484.122" y="-3"/>
    </contour>
    <contour>
      <point x="409.122" y="20.4791" type="qcurve" smooth="yes"/>
      <point x="479.11" y="20.4791"/>
      <point x="598.521" y="71.7567"/>
      <point x="689.076" y="161.601"/>
      <point x="739.354" y="282.867"/>
      <point x="739.354" y="352" type="qcurve" smooth="yes"/>
      <point x="739.354" y="421.989"/>
      <point x="690.076" y="540.544"/>
      <point x="601.376" y="630.099"/>
      <point x="481.255" y="679.521"/>
      <point x="411.122" y="679.521" type="qcurve" smooth="yes"/>
      <point x="340.989" y="679.521"/>
      <point x="220.578" y="629.243"/>
      <point x="131.023" y="538.544"/>
      <point x="80.8898" y="419.133"/>
      <point x="80.8898" y="350" type="qcurve" smooth="yes"/>
      <point x="80.8898" y="280.867"/>
      <point x="131.023" y="161.456"/>
      <point x="219.722" y="70.7567"/>
      <point x="339.989" y="20.4791"/>
    </contour>
    <contour>
      <point x="417.555" y="139.867" type="qcurve" smooth="yes"/>
      <point x="358.266" y="139.867"/>
      <point x="264.833" y="193.578"/>
      <point x="211.688" y="288.289"/>
      <point x="211.688" y="350" type="qcurve" smooth="yes"/>
      <point x="211.688" y="411.711"/>
      <point x="264.833" y="506.422"/>
      <point x="358.266" y="560.133"/>
      <point x="417.555" y="560.133" type="qcurve" smooth="yes"/>
      <point x="464" y="560.133"/>
      <point x="544.011" y="524.544"/>
      <point x="570.433" y="489.966" type="qcurve"/>
      <point x="548.354" y="470.487" type="line"/>
      <point x="525.22" y="501.764"/>
      <point x="456.11" y="532.753"/>
      <point x="416.555" y="532.753" type="qcurve" smooth="yes"/>
      <point x="366.156" y="532.753"/>
      <point x="287.057" y="487.065"/>
      <point x="241.224" y="404.399"/>
      <point x="241.224" y="350" type="qcurve" smooth="yes"/>
      <point x="241.224" y="295.601"/>
      <point x="287.057" y="212.935"/>
      <point x="366.156" y="167.247"/>
      <point x="416.555" y="167.247" type="qcurve" smooth="yes"/>
      <point x="456.11" y="167.247"/>
      <point x="525.22" y="198.236"/>
      <point x="548.354" y="229.513" type="qcurve"/>
      <point x="570.433" y="210.323" type="line"/>
      <point x="544.011" y="175.601"/>
      <point x="464" y="139.867"/>
    </contour>
  </outline>
</glyph>
<glyph name="ordfeminine" format="2">
  <advance width="396"/>
  <unicode hex="00AA"/>
  <outline>
    <contour>
      <point x="289.966" y="432.989" type="line"/>
      <point x="289.966" y="503.977" type="line"/>
      <point x="288.243" y="514.266" type="line"/>
      <point x="288.243" y="630.688" type="line" smooth="yes"/>
      <point x="288.243" y="676.243"/>
      <point x="237.688" y="720.509"/>
      <point x="187.989" y="720.509" type="qcurve" smooth="yes"/>
      <point x="152" y="720.509"/>
      <point x="91.4335" y="699.087"/>
      <point x="69.7224" y="680.521" type="qcurve"/>
      <point x="56.9772" y="699.867" type="line"/>
      <point x="81.2661" y="719.867"/>
      <point x="151.856" y="744.578"/>
      <point x="189.144" y="744.578" type="qcurve" smooth="yes"/>
      <point x="250.456" y="744.578"/>
      <point x="316.624" y="687.133"/>
      <point x="316.624" y="630.255" type="qcurve" smooth="yes"/>
      <point x="316.624" y="432.989" type="line"/>
    </contour>
    <contour>
      <point x="166.278" y="430.7" type="qcurve" smooth="yes"/>
      <point x="109.266" y="430.7"/>
      <point x="46.9772" y="479.711"/>
      <point x="46.9772" y="518.856" type="qcurve" smooth="yes"/>
      <point x="46.9772" y="553.867"/>
      <point x="102.567" y="603.445"/>
      <point x="170.433" y="603.445" type="qcurve" smooth="yes"/>
      <point x="296.677" y="603.445" type="line"/>
      <point x="296.677" y="583.532" type="line"/>
      <point x="172.023" y="583.532" type="line" smooth="yes"/>
      <point x="119.19" y="583.532"/>
      <point x="73.924" y="547.844"/>
      <point x="73.924" y="520.144" type="qcurve" smooth="yes"/>
      <point x="73.924" y="488.734"/>
      <point x="124.612" y="452.19"/>
      <point x="171.156" y="452.19" type="qcurve" smooth="yes"/>
      <point x="216.133" y="452.19"/>
      <point x="272.966" y="488.878"/>
      <point x="288.243" y="522.711" type="qcurve"/>
      <point x="295.966" y="507.076" type="line"/>
      <point x="283.399" y="472.532"/>
      <point x="217.411" y="430.7"/>
    </contour>
  </outline>
</glyph>
<glyph name="logicalnot" format="2">
  <advance width="564"/>
  <unicode hex="00AC"/>
  <outline>
    <contour>
      <point x="490.057" y="364.346" type="line"/>
      <point x="490.057" y="154.521" type="line"/>
      <point x="459.076" y="154.521" type="line"/>
      <point x="459.076" y="335.087" type="line"/>
      <point x="73.6996" y="335.087" type="line"/>
      <point x="73.6996" y="364.346" type="line"/>
    </contour>
  </outline>
</glyph>
<glyph name="registered" format="2">
  <advance width="820"/>
  <unicode hex="00AE"/>
  <outline>
    <contour>
      <point x="409.122" y="-3" type="qcurve" smooth="yes"/>
      <point x="334.122" y="-3"/>
      <point x="206.122" y="51"/>
      <point x="110.122" y="148"/>
      <point x="57.1217" y="276"/>
      <point x="57.1217" y="350" type="qcurve" smooth="yes"/>
      <point x="57.1217" y="424"/>
      <point x="111.122" y="552"/>
      <point x="207.122" y="649"/>
      <point x="336.122" y="703"/>
      <point x="411.122" y="703" type="qcurve" smooth="yes"/>
      <point x="486.122" y="703"/>
      <point x="615.122" y="650"/>
      <point x="710.122" y="554"/>
      <point x="763.122" y="427"/>
      <point x="763.122" y="352" type="qcurve" smooth="yes"/>
      <point x="763.122" y="277"/>
      <point x="709.122" y="148"/>
      <point x="612.122" y="51"/>
      <point x="484.122" y="-3"/>
    </contour>
    <contour>
      <point x="554.631" y="143.445" type="line"/>
      <point x="450.498" y="304" type="line"/>
      <point x="482.156" y="304" type="line"/>
      <point x="586.289" y="143.445" type="line"/>
    </contour>
    <contour>
      <point x="409.122" y="20.4791" type="qcurve" smooth="yes"/>
      <point x="479.11" y="20.4791"/>
      <point x="598.521" y="71.7567"/>
      <point x="689.076" y="161.601"/>
      <point x="739.354" y="282.867"/>
      <point x="739.354" y="352" type="qcurve" smooth="yes"/>
      <point x="739.354" y="421.989"/>
      <point x="690.076" y="540.544"/>
      <point x="601.376" y="630.099"/>
      <point x="481.255" y="679.521"/>
      <point x="411.122" y="679.521" type="qcurve" smooth="yes"/>
      <point x="340.989" y="679.521"/>
      <point x="220.578" y="629.243"/>
      <point x="131.023" y="538.544"/>
      <point x="80.8898" y="419.133"/>
      <point x="80.8898" y="350" type="qcurve" smooth="yes"/>
      <point x="80.8898" y="280.867"/>
      <point x="131.023" y="161.456"/>
      <point x="219.722" y="70.7567"/>
      <point x="339.989" y="20.4791"/>
    </contour>
    <contour>
      <point x="278.81" y="143.445" type="line"/>
      <point x="278.81" y="556.555" type="line"/>
      <point x="430.544" y="556.555" type="line" smooth="yes"/>
      <point x="502.411" y="556.555"/>
      <point x="585.133" y="484.266"/>
      <point x="585.133" y="423.122" type="qcurve" smooth="yes"/>
      <point x="585.133" y="361.544"/>
      <point x="502.411" y="289.544"/>
      <point x="430.544" y="289.544" type="qcurve" smooth="yes"/>
      <point x="307.046" y="289.544" type="line"/>
      <point x="307.046" y="143.445" type="line"/>
    </contour>
    <contour>
      <point x="306.046" y="314.901" type="line"/>
      <point x="428.11" y="314.901" type="line" smooth="yes"/>
      <point x="489.365" y="314.901"/>
      <point x="557.331" y="371.867"/>
      <point x="557.331" y="423.122" type="qcurve" smooth="yes"/>
      <point x="557.331" y="474.376"/>
      <point x="489.365" y="531.198"/>
      <point x="428.11" y="531.198" type="qcurve" smooth="yes"/>
      <point x="306.046" y="531.198" type="line"/>
    </contour>
  </outline>
</glyph>
<glyph name="degree" format="2">
  <advance width="420"/>
  <unicode hex="00B0"/>
  <outline>
    <contour>
      <point x="209.856" y="399.243" type="qcurve" smooth="yes"/>
      <point x="167.989" y="399.243"/>
      <point x="97.9772" y="439.821"/>
      <point x="57.3992" y="508.833"/>
      <point x="57.3992" y="551.411" type="qcurve" smooth="yes"/>
      <point x="57.3992" y="593.989"/>
      <point x="97.9772" y="663"/>
      <point x="167.989" y="703.578"/>
      <point x="209.856" y="703.578" type="qcurve" smooth="yes"/>
      <point x="252.578" y="703.578"/>
      <point x="321.734" y="663"/>
      <point x="362.312" y="593.989"/>
      <point x="362.312" y="551.411" type="qcurve" smooth="yes"/>
      <point x="362.312" y="508.833"/>
      <point x="321.734" y="439.821"/>
      <point x="252.578" y="399.243"/>
    </contour>
    <contour>
      <point x="209.856" y="423.312" type="qcurve" smooth="yes"/>
      <point x="245.844" y="423.312"/>
      <point x="303.11" y="458.156"/>
      <point x="336.954" y="516.278"/>
      <point x="336.954" y="551.411" type="qcurve" smooth="yes"/>
      <point x="336.954" y="587.399"/>
      <point x="303.11" y="644.81"/>
      <point x="245.844" y="679.509"/>
      <point x="209.856" y="679.509" type="qcurve" smooth="yes"/>
      <point x="174.011" y="679.509"/>
      <point x="116.601" y="644.81"/>
      <point x="82.7567" y="587.544"/>
      <point x="82.7567" y="551.411" type="qcurve" smooth="yes"/>
      <point x="82.7567" y="516.133"/>
      <point x="116.601" y="458.011"/>
      <point x="174.011" y="423.312"/>
    </contour>
  </outline>
</glyph>
<glyph name="plusminus" format="2">
  <advance width="564"/>
  <unicode hex="00B1"/>
  <outline>
    <contour>
      <point x="73.6996" y="0" type="line"/>
      <point x="73.6996" y="29.2586" type="line"/>
      <point x="490.057" y="29.2586" type="line"/>
      <point x="490.057" y="0" type="line"/>
    </contour>
    <contour>
      <point x="266.388" y="155.924" type="line"/>
      <point x="266.388" y="560.548" type="line"/>
      <point x="297.369" y="560.548" type="line"/>
      <point x="297.369" y="155.924" type="line"/>
    </contour>
    <contour>
      <point x="73.6996" y="343.179" type="line"/>
      <point x="73.6996" y="372.437" type="line"/>
      <point x="490.057" y="372.437" type="line"/>
      <point x="490.057" y="343.179" type="line"/>
    </contour>
  </outline>
</glyph>
<glyph name="paragraph" format="2">
  <advance width="608"/>
  <unicode hex="00B6"/>
  <outline>
    <contour>
      <point x="225.289" y="-100" type="line"/>
      <point x="225.289" y="412.932" type="line"/>
      <point x="165.144" y="413.076"/>
      <point x="74.5665" y="453.798"/>
      <point x="23.9886" y="528.099"/>
      <point x="23.9886" y="577.966" type="qcurve" smooth="yes"/>
      <point x="23.9886" y="628.833"/>
      <point x="74.8555" y="702.278"/>
      <point x="166.589" y="742"/>
      <point x="227.745" y="742" type="qcurve" smooth="yes"/>
      <point x="480.004" y="742" type="line"/>
      <point x="480.004" y="-100" type="line"/>
      <point x="449.745" y="-100" type="line"/>
      <point x="449.745" y="713.464" type="line"/>
      <point x="255.548" y="713.464" type="line"/>
      <point x="255.548" y="-100" type="line"/>
    </contour>
  </outline>
</glyph>
<glyph name="periodcentered" format="2">
  <advance width="230"/>
  <unicode hex="00B7"/>
  <outline>
    <contour>
      <point x="114.901" y="232.509" type="qcurve" smooth="yes"/>
      <point x="101.867" y="232.509"/>
      <point x="81.8213" y="252.411"/>
      <point x="81.8213" y="265.878" type="qcurve" smooth="yes"/>
      <point x="81.8213" y="280.202"/>
      <point x="101.867" y="299.103"/>
      <point x="114.901" y="299.103" type="qcurve" smooth="yes"/>
      <point x="128.935" y="299.103"/>
      <point x="147.837" y="280.202"/>
      <point x="147.837" y="265.878" type="qcurve" smooth="yes"/>
      <point x="147.837" y="252.411"/>
      <point x="128.935" y="232.509"/>
    </contour>
  </outline>
</glyph>
<glyph name="ordmasculine" format="2">
  <advance width="409"/>
  <unicode hex="00BA"/>
  <outline>
    <contour>
      <point x="204.156" y="430.7" type="qcurve" smooth="yes"/>
      <point x="156.289" y="430.7"/>
      <point x="81.2776" y="470.989"/>
      <point x="38.5551" y="542.422"/>
      <point x="38.5551" y="587.711" type="qcurve" smooth="yes"/>
      <point x="38.5551" y="633.856"/>
      <point x="81.2776" y="704.289"/>
      <point x="156.289" y="744.578"/>
      <point x="204.011" y="744.578" type="qcurve" smooth="yes"/>
      <point x="251.878" y="744.578"/>
      <point x="326.89" y="704.289"/>
      <point x="369.468" y="633.856"/>
      <point x="369.468" y="587.711" type="qcurve" smooth="yes"/>
      <point x="369.468" y="542.422"/>
      <point x="326.89" y="470.989"/>
      <point x="251.878" y="430.7"/>
    </contour>
    <contour>
      <point x="204.011" y="455.491" type="qcurve" smooth="yes"/>
      <point x="263.844" y="455.491"/>
      <point x="342.232" y="529.312"/>
      <point x="342.232" y="587.711" type="qcurve" smooth="yes"/>
      <point x="342.232" y="647.11"/>
      <point x="263.844" y="719.787"/>
      <point x="204.011" y="719.787" type="qcurve" smooth="yes"/>
      <point x="145.179" y="719.787"/>
      <point x="65.7909" y="647.11"/>
      <point x="65.7909" y="587.711" type="qcurve" smooth="yes"/>
      <point x="65.7909" y="529.312"/>
      <point x="145.179" y="455.491"/>
    </contour>
  </outline>
</glyph>
<glyph name="questiondown" format="2">
  <advance width="557"/>
  <unicode hex="00BF"/>
  <outline>
    <contour>
      <point x="304.289" y="-157.867" type="qcurve" smooth="yes"/>
      <point x="237.278" y="-157.867"/>
      <point x="139.399" y="-115.722"/>
      <point x="85.5323" y="-43.5665"/>
      <point x="85.5323" y="2.73386" type="qcurve" smooth="yes"/>
      <point x="85.5323" y="44.4449"/>
      <point x="113.099" y="104.156"/>
      <point x="157.376" y="149.867"/>
      <point x="205.509" y="189.578"/>
      <point x="249.787" y="232.567"/>
      <point x="277.354" y="286.977"/>
      <point x="277.354" y="325.532" type="qcurve"/>
      <point x="311.08" y="325.532" type="line"/>
      <point x="311.08" y="283.399"/>
      <point x="283.513" y="224.122"/>
      <point x="239.38" y="178.411"/>
      <point x="190.958" y="138.7"/>
      <point x="146.825" y="96.5665"/>
      <point x="119.259" y="42.5894"/>
      <point x="119.259" y="5.46771" type="qcurve" smooth="yes"/>
      <point x="119.259" y="-49.6425"/>
      <point x="215.213" y="-127.597"/>
      <point x="305.445" y="-127.597" type="qcurve" smooth="yes"/>
      <point x="375.567" y="-127.597"/>
      <point x="478.532" y="-85.7414"/>
      <point x="515.087" y="-43.6083" type="qcurve"/>
      <point x="539.202" y="-64.1102" type="line"/>
      <point x="499.768" y="-108.844"/>
      <point x="383.023" y="-157.867"/>
    </contour>
    <contour>
      <point x="294.144" y="457.597" type="qcurve" smooth="yes"/>
      <point x="281.11" y="457.597"/>
      <point x="261.498" y="477.209"/>
      <point x="261.498" y="489.954" type="qcurve" smooth="yes"/>
      <point x="261.498" y="503.7"/>
      <point x="281.11" y="522.601"/>
      <point x="294.144" y="522.601" type="qcurve" smooth="yes"/>
      <point x="308.179" y="522.601"/>
      <point x="326.791" y="503.7"/>
      <point x="326.791" y="489.954" type="qcurve" smooth="yes"/>
      <point x="326.791" y="477.209"/>
      <point x="308.179" y="457.597"/>
    </contour>
  </outline>
</glyph>
<glyph name="AE" format="2">
  <advance width="1012"/>
  <unicode hex="00C6"/>
  <anchor x="680" y="700" name="t.uni0308"/>
  <anchor x="680" y="0" name="b.uni0324_3"/>
  <outline>
    <contour>
      <point x="7.26614" y="0" type="line"/>
      <point x="447.498" y="700" type="line"/>
      <point x="481.935" y="700" type="line"/>
      <point x="481.935" y="669.441" type="line"/>
      <point x="448.665" y="669.441" type="line"/>
      <point x="470.757" y="680.232" type="line"/>
      <point x="43.9925" y="0" type="line"/>
    </contour>
    <contour>
      <point x="157.19" y="204.787" type="line"/>
      <point x="166.468" y="234.335" type="line"/>
      <point x="481.935" y="234.335" type="line"/>
      <point x="481.935" y="204.787" type="line"/>
    </contour>
    <contour>
      <point x="500.171" y="370.635" type="line"/>
      <point x="885.825" y="370.635" type="line"/>
      <point x="885.825" y="340.365" type="line"/>
      <point x="500.027" y="340.365" type="line"/>
    </contour>
    <contour>
      <point x="505.749" y="30.559" type="line"/>
      <point x="945.392" y="30.559" type="line"/>
      <point x="945.392" y="0" type="line"/>
      <point x="472.167" y="0" type="line"/>
      <point x="472.167" y="700" type="line"/>
      <point x="930.536" y="700" type="line"/>
      <point x="930.536" y="669.441" type="line"/>
      <point x="505.749" y="669.441" type="line"/>
    </contour>
  </outline>
</glyph>
<glyph name="multiply" format="2">
  <advance width="564"/>
  <unicode hex="00D7"/>
  <outline>
    <contour>
      <point x="124.388" y="213.3" type="line"/>
      <point x="418.722" y="508.213" type="line"/>
      <point x="439.513" y="486.7" type="line"/>
      <point x="145.034" y="191.787" type="line"/>
    </contour>
    <contour>
      <point x="124.388" y="486.7" type="line"/>
      <point x="145.034" y="508.213" type="line"/>
      <point x="439.513" y="213.3" type="line"/>
      <point x="418.722" y="191.787" type="line"/>
    </contour>
  </outline>
</glyph>
<glyph name="Thorn" format="2">
  <advance width="712"/>
  <unicode hex="00DE"/>
  <outline>
    <contour>
      <point x="150.357" y="136.544" type="line"/>
      <point x="150.357" y="167.103" type="line"/>
      <point x="372.578" y="167.103" type="line" smooth="yes"/>
      <point x="490.954" y="167.103"/>
      <point x="615.608" y="273.335"/>
      <point x="615.608" y="369.856" type="qcurve" smooth="yes"/>
      <point x="615.608" y="466.521"/>
      <point x="490.954" y="571.753"/>
      <point x="372.578" y="571.753" type="qcurve" smooth="yes"/>
      <point x="150.357" y="571.753" type="line"/>
      <point x="150.357" y="602.312" type="line"/>
      <point x="371.445" y="602.312" type="line" smooth="yes"/>
      <point x="458.312" y="602.312"/>
      <point x="582.612" y="546.589"/>
      <point x="649.335" y="443.433"/>
      <point x="649.335" y="370" type="qcurve" smooth="yes"/>
      <point x="649.335" y="296.422"/>
      <point x="582.612" y="192.266"/>
      <point x="458.312" y="136.544"/>
      <point x="371.445" y="136.544" type="qcurve" smooth="yes"/>
    </contour>
    <contour>
      <point x="128.232" y="0" type="line"/>
      <point x="128.232" y="700" type="line"/>
      <point x="161.814" y="700" type="line"/>
      <point x="161.814" y="0" type="line"/>
    </contour>
  </outline>
</glyph>
<glyph name="germandbls" format="2">
  <advance width="656"/>
  <unicode hex="00DF"/>
  <outline>
    <contour>
      <point x="373.757" y="-3.43346" type="qcurve" smooth="yes"/>
      <point x="345.468" y="-3.43346"/>
      <point x="289.312" y="4.56654"/>
      <point x="266.167" y="11.711" type="qcurve"/>
      <point x="273.757" y="41.2586" type="line"/>
      <point x="296.323" y="34.2586"/>
      <point x="344.601" y="26.5476"/>
      <point x="373.034" y="26.5476" type="qcurve" smooth="yes"/>
      <point x="429.722" y="26.5476"/>
      <point x="518.954" y="66.3803"/>
      <point x="570.92" y="142.479"/>
      <point x="570.92" y="195.734" type="qcurve" smooth="yes"/>
      <point x="570.92" y="276.544"/>
      <point x="459.688" y="363.92"/>
      <point x="372.011" y="363.92" type="qcurve" smooth="yes"/>
      <point x="312.589" y="363.92" type="line"/>
      <point x="312.589" y="393.612" type="line"/>
      <point x="407.544" y="393.757"/>
      <point x="514.209" y="485.856"/>
      <point x="514.209" y="564.243" type="qcurve" smooth="yes"/>
      <point x="514.209" y="630.498"/>
      <point x="420.544" y="715.452"/>
      <point x="337.011" y="715.452" type="qcurve" smooth="yes"/>
      <point x="250.19" y="715.452"/>
      <point x="143.958" y="611.076"/>
      <point x="143.958" y="506.133" type="qcurve" smooth="yes"/>
      <point x="143.958" y="0" type="line"/>
      <point x="110.954" y="0" type="line"/>
      <point x="110.954" y="505.544" type="line" smooth="yes"/>
      <point x="110.954" y="584.7"/>
      <point x="168.544" y="691"/>
      <point x="270" y="745.433"/>
      <point x="336.156" y="745.433" type="qcurve" smooth="yes"/>
      <point x="401.601" y="745.433"/>
      <point x="495.624" y="698.422"/>
      <point x="546.635" y="616.833"/>
      <point x="546.635" y="564.966" type="qcurve" smooth="yes"/>
      <point x="546.635" y="519.821"/>
      <point x="513.346" y="449.677"/>
      <point x="456.491" y="400.677"/>
      <point x="386.213" y="374.677"/>
      <point x="349.08" y="374.677" type="qcurve"/>
      <point x="374.802" y="390.445" type="line"/>
      <point x="442.646" y="390.445"/>
      <point x="545.924" y="344.445"/>
      <point x="604.068" y="257.445"/>
      <point x="604.068" y="195.3" type="qcurve" smooth="yes"/>
      <point x="604.068" y="133.578"/>
      <point x="542.78" y="44.711"/>
      <point x="438.768" y="-3.43346"/>
    </contour>
  </outline>
</glyph>
<glyph name="ae" format="2">
  <advance width="981"/>
  <unicode hex="00E6"/>
  <anchor x="488" y="562" name="t.uni0308"/>
  <anchor x="481" y="0" name="b.uni0324_3"/>
  <outline>
    <contour>
      <point x="249.445" y="-3.43346" type="qcurve" smooth="yes"/>
      <point x="160.711" y="-3.43346"/>
      <point x="62.3992" y="78.0114"/>
      <point x="62.3992" y="144.023" type="qcurve" smooth="yes"/>
      <point x="62.3992" y="181.601"/>
      <point x="98.4106" y="244.612"/>
      <point x="180.722" y="284.19"/>
      <point x="251.312" y="284.19" type="qcurve" smooth="yes"/>
      <point x="447.388" y="284.19" type="line"/>
      <point x="447.388" y="256.521" type="line"/>
      <point x="251.179" y="256.521" type="line" smooth="yes"/>
      <point x="166.213" y="256.521"/>
      <point x="95.2586" y="192.989"/>
      <point x="95.2586" y="145.167" type="qcurve" smooth="yes"/>
      <point x="95.2586" y="90.0571"/>
      <point x="177.357" y="24.9583"/>
      <point x="250.745" y="24.9583" type="qcurve" smooth="yes"/>
      <point x="335" y="24.9583"/>
      <point x="439.943" y="116.913"/>
      <point x="439.943" y="201.856" type="qcurve" smooth="yes"/>
      <point x="439.943" y="335.688" type="line" smooth="yes"/>
      <point x="439.943" y="413.22"/>
      <point x="358.11" y="492.62"/>
      <point x="279.844" y="492.62" type="qcurve" smooth="yes"/>
      <point x="223.578" y="492.62"/>
      <point x="128.589" y="454.209"/>
      <point x="95.0228" y="423.22" type="qcurve"/>
      <point x="76.5437" y="447.046" type="line"/>
      <point x="114.266" y="481.757"/>
      <point x="221.856" y="522.601"/>
      <point x="280.578" y="522.601" type="qcurve" smooth="yes"/>
      <point x="368.3" y="522.601"/>
      <point x="463.901" y="440.479"/>
      <point x="470.635" y="357.08" type="qcurve"/>
      <point x="460.266" y="365.502" type="line"/>
      <point x="487.133" y="436.913"/>
      <point x="605.711" y="522.601"/>
      <point x="684.711" y="522.601" type="qcurve" smooth="yes"/>
      <point x="736.722" y="522.601"/>
      <point x="825.312" y="485.167"/>
      <point x="892.179" y="415.734"/>
      <point x="928.757" y="322.722"/>
      <point x="928.757" y="266.289" type="qcurve" smooth="yes"/>
      <point x="928.757" y="263.844"/>
      <point x="928.612" y="259.388"/>
      <point x="928.323" y="256.521" type="qcurve"/>
      <point x="466.346" y="256.521" type="line"/>
      <point x="466.346" y="284.19" type="line"/>
      <point x="910.532" y="284.19" type="line"/>
      <point x="897.042" y="265.601" type="line"/>
      <point x="897.186" y="331.722"/>
      <point x="840.776" y="434.521"/>
      <point x="745.243" y="492.909"/>
      <point x="684.567" y="492.909" type="qcurve" smooth="yes"/>
      <point x="624.034" y="492.909"/>
      <point x="528.502" y="434.521"/>
      <point x="472.802" y="331.433"/>
      <point x="472.802" y="265.167" type="qcurve" smooth="yes"/>
      <point x="472.802" y="259.144" type="line" smooth="yes"/>
      <point x="472.802" y="191.179"/>
      <point x="532.491" y="85.9468"/>
      <point x="636.878" y="26.6921"/>
      <point x="704" y="26.6921" type="qcurve" smooth="yes"/>
      <point x="755.133" y="26.6921"/>
      <point x="845.243" y="65.2472"/>
      <point x="876.099" y="103.947" type="qcurve"/>
      <point x="896.89" y="81.711" type="line"/>
      <point x="862.456" y="39.5665"/>
      <point x="761.156" y="-3.43346"/>
      <point x="703.422" y="-3.43346" type="qcurve" smooth="yes"/>
      <point x="646.555" y="-3.43346"/>
      <point x="543.688" y="38.6996"/>
      <point x="467.821" y="122.833"/>
      <point x="449.099" y="186.544" type="qcurve"/>
      <point x="470.479" y="184.688" type="line"/>
      <point x="464.323" y="117.544"/>
      <point x="400.445" y="35.2661"/>
      <point x="304.722" y="-3.43346"/>
    </contour>
  </outline>
</glyph>
<glyph name="eth" format="2">
  <advance width="622"/>
  <unicode hex="00F0"/>
  <outline>
    <contour>
      <point x="287.445" y="-3.86693" type="qcurve" smooth="yes"/>
      <point x="218.867" y="-3.86693"/>
      <point x="112.278" y="50.2776"/>
      <point x="51.9772" y="148.711"/>
      <point x="51.9772" y="214.289" type="qcurve" smooth="yes"/>
      <point x="51.9772" y="279.867"/>
      <point x="112.278" y="377.445"/>
      <point x="221.578" y="431.589"/>
      <point x="294.433" y="431.589" type="qcurve" smooth="yes"/>
      <point x="358.278" y="431.589"/>
      <point x="463.11" y="381.468"/>
      <point x="528.11" y="286.935"/>
      <point x="531.844" y="218.536" type="qcurve"/>
      <point x="518.787" y="216.935" type="line"/>
      <point x="530.065" y="253.346"/>
      <point x="536.631" y="329.023"/>
      <point x="536.631" y="354.456" type="qcurve" smooth="yes"/>
      <point x="536.631" y="459.856"/>
      <point x="467.365" y="603.665"/>
      <point x="341.255" y="677.354"/>
      <point x="255.989" y="677.354" type="qcurve" smooth="yes"/>
      <point x="213.844" y="677.354"/>
      <point x="137.422" y="665.209"/>
      <point x="106.856" y="656.065" type="qcurve"/>
      <point x="99.9772" y="685.757" type="line"/>
      <point x="128.7" y="694.046"/>
      <point x="210.7" y="706.901"/>
      <point x="255.989" y="706.901" type="qcurve" smooth="yes"/>
      <point x="350.156" y="706.901"/>
      <point x="491.19" y="625.89"/>
      <point x="569.78" y="466.722"/>
      <point x="569.78" y="349.133" type="qcurve" smooth="yes"/>
      <point x="569.78" y="242.7"/>
      <point x="506.19" y="83.8441"/>
      <point x="380.312" y="-3.86693"/>
    </contour>
    <contour>
      <point x="288.601" y="25.8252" type="qcurve" smooth="yes"/>
      <point x="359.278" y="25.8252"/>
      <point x="456.232" y="81.6464"/>
      <point x="506.209" y="168.167"/>
      <point x="506.209" y="214.289" type="qcurve" smooth="yes"/>
      <point x="506.209" y="266.833"/>
      <point x="452.376" y="351.643"/>
      <point x="358.422" y="401.897"/>
      <point x="296.167" y="401.897" type="qcurve" smooth="yes"/>
      <point x="197.502" y="401.897"/>
      <point x="85.1256" y="298.243"/>
      <point x="85.1256" y="214.289" type="qcurve" smooth="yes"/>
      <point x="85.1256" y="158.89"/>
      <point x="136.103" y="73.3689"/>
      <point x="228.202" y="25.8252"/>
    </contour>
    <contour>
      <point x="149.011" y="513.92" type="line"/>
      <point x="137.977" y="540.433" type="line"/>
      <point x="510.78" y="704.011" type="line"/>
      <point x="521.814" y="677.354" type="line"/>
    </contour>
  </outline>
</glyph>
<glyph name="divide" format="2">
  <advance width="564"/>
  <unicode hex="00F7"/>
  <outline>
    <contour>
      <point x="73.6996" y="334.943" type="line"/>
      <point x="73.6996" y="364.202" type="line"/>
      <point x="490.057" y="364.202" type="line"/>
      <point x="490.057" y="334.943" type="line"/>
    </contour>
    <contour>
      <point x="281.878" y="135.331" type="qcurve" smooth="yes"/>
      <point x="269.567" y="135.331"/>
      <point x="250.532" y="154.509"/>
      <point x="250.532" y="167.255" type="qcurve" smooth="yes"/>
      <point x="250.532" y="180.856"/>
      <point x="269.567" y="198.89"/>
      <point x="281.878" y="198.89" type="qcurve" smooth="yes"/>
      <point x="295.19" y="198.89"/>
      <point x="313.369" y="180.856"/>
      <point x="313.369" y="167.255" type="qcurve" smooth="yes"/>
      <point x="313.369" y="154.509"/>
      <point x="295.19" y="135.331"/>
    </contour>
    <contour>
      <point x="281.878" y="501.11" type="qcurve" smooth="yes"/>
      <point x="269.567" y="501.11"/>
      <point x="250.532" y="520.289"/>
      <point x="250.532" y="532.89" type="qcurve" smooth="yes"/>
      <point x="250.532" y="546.491"/>
      <point x="269.567" y="564.669"/>
      <point x="281.878" y="564.669" type="qcurve" smooth="yes"/>
      <point x="295.19" y="564.669"/>
      <point x="313.369" y="546.491"/>
      <point x="313.369" y="532.89" type="qcurve" smooth="yes"/>
      <point x="313.369" y="520.289"/>
      <point x="295.19" y="501.11"/>
    </contour>
  </outline>
</glyph>
<glyph name="eogonek" format="2">
  <advance width="591"/>
  <unicode hex="0119"/>
  <anchor x="355" y="562" name="t.uni0308"/>
  <anchor x="355" y="0" name="b.uni0324_3"/>
  <outline>
    <contour>
      <point x="421.89" y="-214.878" type="qcurve" smooth="yes"/>
      <point x="380.144" y="-214.878"/>
      <point x="325.977" y="-168.567"/>
      <point x="325.977" y="-127.266" type="qcurve" smooth="yes"/>
      <point x="325.977" y="-97.3992"/>
      <point x="361.411" y="-21.2547"/>
      <point x="416.954" y="25" type="qcurve"/>
      <point x="422.734" y="18.4106" type="line"/>
      <point x="398.023" y="7.98858"/>
      <point x="343.456" y="-3.43346"/>
      <point x="314.601" y="-3.43346" type="qcurve" smooth="yes"/>
      <point x="237.867" y="-3.43346"/>
      <point x="119.7" y="64"/>
      <point x="51.9772" y="183.578"/>
      <point x="51.9772" y="260.011" type="qcurve" smooth="yes"/>
      <point x="51.9772" y="337.3"/>
      <point x="115.133" y="455.167"/>
      <point x="226.156" y="522.601"/>
      <point x="295.601" y="522.601" type="qcurve" smooth="yes"/>
      <point x="365.046" y="522.601"/>
      <point x="475.635" y="457.023"/>
      <point x="539.357" y="339.867"/>
      <point x="539.357" y="263.711" type="qcurve" smooth="yes"/>
      <point x="539.357" y="261.844"/>
      <point x="539.213" y="257.388"/>
      <point x="539.068" y="254.521" type="qcurve"/>
      <point x="73.9583" y="254.521" type="line"/>
      <point x="73.9583" y="282.19" type="line"/>
      <point x="521.278" y="282.19" type="line"/>
      <point x="508.076" y="265.601" type="line"/>
      <point x="508.22" y="330.711"/>
      <point x="452.532" y="433.798"/>
      <point x="357.289" y="492.909"/>
      <point x="295.601" y="492.909" type="qcurve" smooth="yes"/>
      <point x="234.768" y="492.909"/>
      <point x="138.525" y="433.798"/>
      <point x="83.8366" y="330.567"/>
      <point x="83.8366" y="265.167" type="qcurve" smooth="yes"/>
      <point x="83.8366" y="259.144" type="line" smooth="yes"/>
      <point x="83.8366" y="191.179"/>
      <point x="143.525" y="85.9468"/>
      <point x="248.057" y="26.6921"/>
      <point x="315.034" y="26.6921" type="qcurve" smooth="yes"/>
      <point x="366.167" y="26.6921"/>
      <point x="456.567" y="65.2472"/>
      <point x="487.133" y="103.947" type="qcurve"/>
      <point x="507.78" y="81.711" type="line"/>
      <point x="500.635" y="72.5665"/>
      <point x="482.346" y="56.422"/>
      <point x="471.346" y="46.5665" type="qcurve" smooth="yes"/>
      <point x="420.646" y="0.44488"/>
      <point x="370.791" y="-61.3992"/>
      <point x="354.213" y="-105.399"/>
      <point x="354.213" y="-126.255" type="qcurve" smooth="yes"/>
      <point x="354.213" y="-158.388"/>
      <point x="394.202" y="-189.521"/>
      <point x="424.479" y="-189.521" type="qcurve" smooth="yes"/>
      <point x="441.335" y="-189.521"/>
      <point x="474.335" y="-177.954"/>
      <point x="486.335" y="-167.532" type="qcurve"/>
      <point x="498.635" y="-188.456" type="line"/>
      <point x="482.202" y="-201.878"/>
      <point x="443.612" y="-214.878"/>
    </contour>
  </outline>
</glyph>
<glyph name="dotlessi" format="2">
  <advance width="255"/>
  <unicode hex="0131"/>
  <anchor x="180" y="562" name="t.uni0308"/>
  <anchor x="180" y="0" name="b.uni0324_3"/>
  <anchor x="338" y="0" name="m.uni0328_4"/>
  <outline>
    <contour>
      <point x="110.954" y="0" type="line"/>
      <point x="110.954" y="519.167" type="line"/>
      <point x="143.958" y="519.167" type="line"/>
      <point x="143.958" y="0" type="line"/>
    </contour>
  </outline>
</glyph>
<glyph name="IJ" format="2">
  <advance width="715"/>
  <unicode hex="0132"/>
  <anchor x="153" y="700" name="t.uni0308"/>
  <outline>
    <contour>
      <point x="327" y="-3.86693" type="qcurve" smooth="yes"/>
      <point x="265.122" y="-3.86693"/>
      <point x="156.232" y="33.5665"/>
      <point x="114.365" y="62.1445" type="qcurve"/>
      <point x="130.989" y="89.1256" type="line"/>
      <point x="171.567" y="59.9811"/>
      <point x="272.289" y="27.1256"/>
      <point x="328.144" y="27.1256" type="qcurve" smooth="yes"/>
      <point x="435.966" y="27.1256"/>
      <point x="559.198" y="160.068"/>
      <point x="559.198" y="295.3" type="qcurve" smooth="yes"/>
      <point x="559.198" y="700" type="line"/>
      <point x="592.78" y="700" type="line"/>
      <point x="592.78" y="295.312" type="line" smooth="yes"/>
      <point x="592.78" y="195.589"/>
      <point x="526.335" y="63"/>
      <point x="407.734" y="-3.86693"/>
    </contour>
    <contour>
      <point x="122.232" y="293.179" type="line"/>
      <point x="122.232" y="700" type="line"/>
      <point x="155.814" y="700" type="line"/>
      <point x="155.814" y="293.179" type="line"/>
    </contour>
  </outline>
</glyph>
<glyph name="Eng" format="2">
  <advance width="815"/>
  <unicode hex="014A"/>
  <outline>
    <contour>
      <point x="128.232" y="0" type="line"/>
      <point x="128.232" y="700" type="line"/>
      <point x="156.357" y="700" type="line"/>
      <point x="669.81" y="40.483" type="line"/>
      <point x="658.92" y="0" type="line"/>
      <point x="145.468" y="659.517" type="line"/>
      <point x="161.814" y="659.517" type="line"/>
      <point x="161.814" y="0" type="line"/>
    </contour>
    <contour>
      <point x="507.388" y="-197.433" type="qcurve" smooth="yes"/>
      <point x="454.388" y="-197.433"/>
      <point x="361.243" y="-146.601"/>
      <point x="332.376" y="-101.901" type="qcurve"/>
      <point x="352.3" y="-79.6425" type="line"/>
      <point x="380.578" y="-121.331"/>
      <point x="460.688" y="-167.019"/>
      <point x="508.243" y="-167.019" type="qcurve" smooth="yes"/>
      <point x="653.464" y="-167.019"/>
      <point x="653.464" y="6.62362" type="qcurve" smooth="yes"/>
      <point x="653.464" y="700" type="line"/>
      <point x="687.046" y="700" type="line"/>
      <point x="687.046" y="7.2244" type="line" smooth="yes"/>
      <point x="687.046" y="-95.1102"/>
      <point x="597" y="-197.433"/>
    </contour>
  </outline>
</glyph>
<glyph name="eng" format="2">
  <advance width="670"/>
  <unicode hex="014B"/>
  <outline>
    <contour>
      <point x="355.757" y="522.601" type="qcurve" smooth="yes"/>
      <point x="419.901" y="522.601"/>
      <point x="513.057" y="473.456"/>
      <point x="565.068" y="376.445"/>
      <point x="565.068" y="305" type="qcurve" smooth="yes"/>
      <point x="565.068" y="-62.1976" type="line" smooth="yes"/>
      <point x="565.068" y="-123.243"/>
      <point x="497.878" y="-197.433"/>
      <point x="434.977" y="-197.433" type="qcurve" smooth="yes"/>
      <point x="404.399" y="-197.433"/>
      <point x="347.532" y="-179.867"/>
      <point x="329.099" y="-161.3" type="qcurve"/>
      <point x="345.989" y="-137.186" type="line"/>
      <point x="379.266" y="-167.886"/>
      <point x="433.11" y="-167.886" type="qcurve" smooth="yes"/>
      <point x="481.087" y="-167.886"/>
      <point x="532.065" y="-111.764"/>
      <point x="532.065" y="-58.3536" type="qcurve" smooth="yes"/>
      <point x="532.065" y="303.122" type="line" smooth="yes"/>
      <point x="532.065" y="395.943"/>
      <point x="437.966" y="492.186"/>
      <point x="353.289" y="492.186" type="qcurve" smooth="yes"/>
      <point x="288.323" y="492.186"/>
      <point x="194.08" y="439.643"/>
      <point x="143.958" y="344.255"/>
      <point x="143.958" y="279.7" type="qcurve" smooth="yes"/>
      <point x="143.958" y="0" type="line"/>
      <point x="110.954" y="0" type="line"/>
      <point x="110.954" y="519.167" type="line"/>
      <point x="143.236" y="519.167" type="line"/>
      <point x="143.236" y="372.89" type="line"/>
      <point x="138.924" y="381.814" type="line"/>
      <point x="162.502" y="447.213"/>
      <point x="273.78" y="522.601"/>
    </contour>
  </outline>
</glyph>
<glyph name="OE" format="2">
  <advance width="1114"/>
  <unicode hex="0152"/>
  <anchor x="676" y="700" name="t.uni0308"/>
  <anchor x="676" y="0" name="b.uni0324_3"/>
  <outline>
    <contour>
      <point x="427.711" y="0" type="line" smooth="yes"/>
      <point x="317.278" y="0"/>
      <point x="150.555" y="89.711"/>
      <point x="57.1217" y="247.567"/>
      <point x="57.1217" y="349" type="qcurve" smooth="yes"/>
      <point x="57.1217" y="450.578"/>
      <point x="150.555" y="609.433"/>
      <point x="317.278" y="700"/>
      <point x="427.711" y="700" type="qcurve" smooth="yes"/>
      <point x="583.578" y="700" type="line"/>
      <point x="583.578" y="669.441" type="line"/>
      <point x="428.578" y="669.441" type="line" smooth="yes"/>
      <point x="326.901" y="669.441"/>
      <point x="174.958" y="586.764"/>
      <point x="90.848" y="442.11"/>
      <point x="90.848" y="349.144" type="qcurve" smooth="yes"/>
      <point x="90.848" y="256.034"/>
      <point x="174.958" y="112.38"/>
      <point x="326.901" y="30.559"/>
      <point x="428.578" y="30.559" type="qcurve" smooth="yes"/>
      <point x="583.578" y="30.559" type="line"/>
      <point x="583.578" y="0" type="line"/>
    </contour>
    <contour>
      <point x="602.259" y="370.635" type="line"/>
      <point x="987.913" y="370.635" type="line"/>
      <point x="987.913" y="340.365" type="line"/>
      <point x="602.259" y="340.365" type="line"/>
    </contour>
    <contour>
      <point x="607.837" y="30.559" type="line"/>
      <point x="1047.48" y="30.559" type="line"/>
      <point x="1047.48" y="0" type="line"/>
      <point x="574.255" y="0" type="line"/>
      <point x="574.255" y="700" type="line"/>
      <point x="1032.62" y="700" type="line"/>
      <point x="1032.62" y="669.441" type="line"/>
      <point x="607.837" y="669.441" type="line"/>
    </contour>
  </outline>
</glyph>
<glyph name="oe" format="2">
  <advance width="1069"/>
  <unicode hex="0153"/>
  <anchor x="537" y="562" name="t.uni0308"/>
  <anchor x="537" y="0" name="b.uni0324_3"/>
  <outline>
    <contour>
      <point x="307.167" y="-3.43346" type="qcurve" smooth="yes"/>
      <point x="233.867" y="-3.43346"/>
      <point x="118.989" y="64"/>
      <point x="51.9772" y="183.578"/>
      <point x="51.9772" y="260.011" type="qcurve" smooth="yes"/>
      <point x="51.9772" y="337.445"/>
      <point x="118.989" y="455.167"/>
      <point x="233.867" y="522.601"/>
      <point x="307.167" y="522.601" type="qcurve" smooth="yes"/>
      <point x="380.468" y="522.601"/>
      <point x="493.768" y="455.167"/>
      <point x="559.057" y="337.445"/>
      <point x="559.057" y="260.011" type="qcurve" smooth="yes"/>
      <point x="559.057" y="183.578"/>
      <point x="493.768" y="64"/>
      <point x="380.468" y="-3.43346"/>
    </contour>
    <contour>
      <point x="307.167" y="26.6921" type="qcurve" smooth="yes"/>
      <point x="370.711" y="26.6921"/>
      <point x="471.521" y="85.9468"/>
      <point x="529.209" y="191.612"/>
      <point x="529.209" y="260.011" type="qcurve" smooth="yes"/>
      <point x="529.209" y="329.411"/>
      <point x="471.521" y="434.076"/>
      <point x="370.711" y="492.475"/>
      <point x="307.167" y="492.475" type="qcurve" smooth="yes"/>
      <point x="243.768" y="492.475"/>
      <point x="143.814" y="434.076"/>
      <point x="85.1256" y="329.411"/>
      <point x="85.1256" y="260.011" type="qcurve" smooth="yes"/>
      <point x="85.1256" y="191.612"/>
      <point x="143.814" y="85.9468"/>
      <point x="243.768" y="26.6921"/>
    </contour>
    <contour>
      <point x="792.688" y="-3.43346" type="qcurve" smooth="yes"/>
      <point x="716.81" y="-3.43346"/>
      <point x="598.365" y="64"/>
      <point x="531.932" y="183.578"/>
      <point x="531.932" y="260.011" type="qcurve" smooth="yes"/>
      <point x="531.932" y="337.3"/>
      <point x="594.654" y="455.167"/>
      <point x="704.243" y="522.601"/>
      <point x="773.688" y="522.601" type="qcurve" smooth="yes"/>
      <point x="843.133" y="522.601"/>
      <point x="953.722" y="457.023"/>
      <point x="1017.44" y="339.867"/>
      <point x="1017.44" y="263.711" type="qcurve" smooth="yes"/>
      <point x="1017.44" y="261.844"/>
      <point x="1017.3" y="257.388"/>
      <point x="1017.16" y="254.521" type="qcurve"/>
      <point x="552.046" y="254.521" type="line"/>
      <point x="552.046" y="282.19" type="line"/>
      <point x="999.365" y="282.19" type="line"/>
      <point x="986.163" y="265.601" type="line"/>
      <point x="986.308" y="330.711"/>
      <point x="930.62" y="433.798"/>
      <point x="835.376" y="492.909"/>
      <point x="773.688" y="492.909" type="qcurve" smooth="yes"/>
      <point x="712.856" y="492.909"/>
      <point x="616.757" y="433.798"/>
      <point x="561.924" y="330.567"/>
      <point x="561.924" y="265.167" type="qcurve" smooth="yes"/>
      <point x="561.924" y="259.144" type="line" smooth="yes"/>
      <point x="561.924" y="191.179"/>
      <point x="621.612" y="85.9468"/>
      <point x="727" y="26.6921"/>
      <point x="793.122" y="26.6921" type="qcurve" smooth="yes"/>
      <point x="844.255" y="26.6921"/>
      <point x="934.654" y="65.2472"/>
      <point x="965.22" y="103.947" type="qcurve"/>
      <point x="985.867" y="81.711" type="line"/>
      <point x="951.578" y="39.711"/>
      <point x="850.422" y="-3.43346"/>
    </contour>
  </outline>
</glyph>
<glyph name="Uogonek" format="2">
  <advance width="793"/>
  <unicode hex="0172"/>
  <outline>
    <contour>
      <point x="637.897" y="700" type="line"/>
      <point x="671.19" y="700" type="line"/>
      <point x="671.19" y="294.589" type="line" smooth="yes"/>
      <point x="671.19" y="173.3"/>
      <point x="577.323" y="35.4335"/>
      <point x="493.468" y="8" type="qcurve" smooth="yes"/>
      <point x="427.768" y="-13.8555"/>
      <point x="361.635" y="-62.6996"/>
      <point x="339.491" y="-108.688"/>
      <point x="339.491" y="-127.544" type="qcurve" smooth="yes"/>
      <point x="339.491" y="-158.388"/>
      <point x="379.479" y="-189.521"/>
      <point x="409.757" y="-189.521" type="qcurve" smooth="yes"/>
      <point x="426.612" y="-189.521"/>
      <point x="459.612" y="-177.954"/>
      <point x="471.612" y="-167.532" type="qcurve"/>
      <point x="483.913" y="-188.456" type="line"/>
      <point x="467.479" y="-201.878"/>
      <point x="428.89" y="-214.878"/>
      <point x="407.167" y="-214.878" type="qcurve" smooth="yes"/>
      <point x="365.278" y="-214.878"/>
      <point x="311.255" y="-168.856"/>
      <point x="311.255" y="-128.844" type="qcurve" smooth="yes"/>
      <point x="311.255" y="-106.833"/>
      <point x="333.266" y="-56.8213"/>
      <point x="392.844" y="-4.82126"/>
      <point x="449.266" y="17.0342" type="qcurve"/>
      <point x="435.433" y="-1.86693" type="line"/>
      <point x="426.289" y="-2.86693"/>
      <point x="406" y="-3.86693"/>
      <point x="396.711" y="-3.86693" type="qcurve" smooth="yes"/>
      <point x="269.399" y="-3.86693"/>
      <point x="122.232" y="145.867"/>
      <point x="122.232" y="294.589" type="qcurve" smooth="yes"/>
      <point x="122.232" y="700" type="line"/>
      <point x="155.814" y="700" type="line"/>
      <point x="155.814" y="296.023" type="line" smooth="yes"/>
      <point x="155.814" y="160.068"/>
      <point x="282.046" y="27.1256"/>
      <point x="396.856" y="27.1256" type="qcurve" smooth="yes"/>
      <point x="511.665" y="27.1256"/>
      <point x="637.897" y="160.068"/>
      <point x="637.897" y="296.023" type="qcurve" smooth="yes"/>
    </contour>
  </outline>
</glyph>
<glyph name="longs" format="2">
  <advance width="279"/>
  <unicode hex="017F"/>
  <outline>
    <contour>
      <point x="130.821" y="0" type="line"/>
      <point x="130.821" y="611.065" type="line" smooth="yes"/>
      <point x="130.821" y="671.532"/>
      <point x="200.156" y="745.433"/>
      <point x="264.346" y="745.433" type="qcurve" smooth="yes"/>
      <point x="292.924" y="745.433"/>
      <point x="348.213" y="728.011"/>
      <point x="366.502" y="709.589" type="qcurve"/>
      <point x="349.901" y="685.475" type="line"/>
      <point x="334.19" y="700.753"/>
      <point x="290.346" y="716.175"/>
      <point x="266.068" y="716.175" type="qcurve" smooth="yes"/>
      <point x="215.947" y="716.175"/>
      <point x="163.825" y="660.053"/>
      <point x="163.825" y="606.643" type="qcurve" smooth="yes"/>
      <point x="163.825" y="0" type="line"/>
    </contour>
    <contour>
      <point x="32.4106" y="489.909" type="line"/>
      <point x="32.4106" y="519.167" type="line"/>
      <point x="151.601" y="519.167" type="line"/>
      <point x="151.601" y="489.909" type="line"/>
    </contour>
  </outline>
</glyph>
<glyph name="uni018F" format="2">
  <advance width="816"/>
  <unicode hex="018F"/>
  <outline>
    <contour>
      <point x="408.144" y="-3.86693" type="qcurve" smooth="yes"/>
      <point x="332.711" y="-3.86693"/>
      <point x="203.989" y="49.2776"/>
      <point x="109.411" y="145.567"/>
      <point x="57.1217" y="274.289"/>
      <point x="57.1217" y="350.722" type="qcurve" smooth="yes"/>
      <point x="57.1217" y="363.757" type="line"/>
      <point x="731.452" y="363.757" type="line"/>
      <point x="731.452" y="333.487" type="line"/>
      <point x="78.5134" y="333.487" type="line"/>
      <point x="90.7035" y="350" type="line"/>
      <point x="90.7035" y="280.734"/>
      <point x="137.825" y="163.346"/>
      <point x="223.502" y="75.6693"/>
      <point x="339.312" y="26.6921"/>
      <point x="408.144" y="26.6921" type="qcurve" smooth="yes"/>
      <point x="473.555" y="26.6921"/>
      <point x="588.509" y="75.5248"/>
      <point x="675.753" y="163.202"/>
      <point x="725.296" y="280.156"/>
      <point x="725.296" y="348.278" type="qcurve" smooth="yes"/>
      <point x="725.296" y="351.578" type="line" smooth="yes"/>
      <point x="725.296" y="420.122"/>
      <point x="676.03" y="536.932"/>
      <point x="586.498" y="623.753"/>
      <point x="467.977" y="672.874"/>
      <point x="398.722" y="672.874" type="qcurve" smooth="yes"/>
      <point x="356.011" y="672.874"/>
      <point x="275.3" y="656.585"/>
      <point x="202.734" y="620.585"/>
      <point x="169.601" y="591.73" type="qcurve"/>
      <point x="150.22" y="615.977" type="line"/>
      <point x="182.365" y="645.555"/>
      <point x="260.243" y="684"/>
      <point x="350.133" y="703.867"/>
      <point x="398.867" y="703.867" type="qcurve" smooth="yes"/>
      <point x="476.3" y="703.867"/>
      <point x="607.734" y="650.867"/>
      <point x="705.023" y="555.578"/>
      <point x="759.023" y="426.289"/>
      <point x="759.023" y="351" type="qcurve" smooth="yes"/>
      <point x="759.023" y="277.278"/>
      <point x="705.023" y="148.844"/>
      <point x="608.734" y="50.9886"/>
      <point x="481.867" y="-3.86693"/>
    </contour>
  </outline>
</glyph>
<glyph name="florin" format="2">
  <advance width="420"/>
  <unicode hex="0192"/>
  <outline>
    <contour>
      <point x="14.3004" y="-197.433" type="qcurve" smooth="yes"/>
      <point x="-16.2776" y="-197.433"/>
      <point x="-70.4335" y="-179.722"/>
      <point x="-87.0114" y="-161.156" type="qcurve"/>
      <point x="-68.3992" y="-137.186" type="line"/>
      <point x="-38.6882" y="-167.886"/>
      <point x="14.4335" y="-167.886" type="qcurve" smooth="yes"/>
      <point x="62.5551" y="-167.886"/>
      <point x="120.677" y="-111.764"/>
      <point x="127.388" y="-58.3536" type="qcurve" smooth="yes"/>
      <point x="209.943" y="611.065" type="line" smooth="yes"/>
      <point x="217.232" y="671.532"/>
      <point x="295.567" y="745.433"/>
      <point x="359.179" y="745.433" type="qcurve" smooth="yes"/>
      <point x="387.757" y="745.433"/>
      <point x="441.057" y="727.867"/>
      <point x="457.491" y="709.156" type="qcurve"/>
      <point x="437.878" y="685.186" type="line"/>
      <point x="424.023" y="700.464"/>
      <point x="382.179" y="715.886"/>
      <point x="357.901" y="715.886" type="qcurve" smooth="yes"/>
      <point x="307.635" y="715.886"/>
      <point x="250.08" y="659.764"/>
      <point x="242.369" y="606.354" type="qcurve" smooth="yes"/>
      <point x="230.091" y="512.411" type="line"/>
      <point x="228.947" y="495.776" type="line"/>
      <point x="160.392" y="-63.0646" type="line" smooth="yes"/>
      <point x="152.958" y="-123.532"/>
      <point x="76.7681" y="-197.433"/>
    </contour>
    <contour>
      <point x="96.0988" y="487.741" type="line"/>
      <point x="100.255" y="517" type="line"/>
      <point x="402.624" y="517" type="line"/>
      <point x="398.612" y="487.741" type="line"/>
    </contour>
  </outline>
</glyph>
<glyph name="Ohorn" format="2">
  <advance width="837"/>
  <unicode hex="01A0"/>
  <anchor x="427" y="700" name="t.uni0308"/>
  <anchor x="427" y="0" name="b.uni0324_3"/>
  <outline>
    <contour>
      <point x="418.433" y="-3.86693" type="qcurve" smooth="yes"/>
      <point x="340.856" y="-3.86693"/>
      <point x="208.989" y="49.2776"/>
      <point x="111.411" y="145.422"/>
      <point x="57.1217" y="273.856"/>
      <point x="57.1217" y="350" type="qcurve" smooth="yes"/>
      <point x="57.1217" y="426.289"/>
      <point x="111.411" y="554.722"/>
      <point x="209.133" y="650.867"/>
      <point x="341.289" y="703.867"/>
      <point x="419.011" y="703.867" type="qcurve" smooth="yes"/>
      <point x="483.144" y="703.867"/>
      <point x="577.278" y="689.011"/>
      <point x="625.122" y="689.011" type="qcurve" smooth="yes"/>
      <point x="679.388" y="689.011"/>
      <point x="732.521" y="729.289"/>
      <point x="732.521" y="769.422" type="qcurve" smooth="yes"/>
      <point x="732.521" y="789.133"/>
      <point x="720.521" y="821.844"/>
      <point x="712.521" y="835.7" type="qcurve"/>
      <point x="737.745" y="846.3" type="line"/>
      <point x="748.323" y="830.722"/>
      <point x="760.757" y="790.567"/>
      <point x="760.757" y="769.7" type="qcurve" smooth="yes"/>
      <point x="760.757" y="716.677"/>
      <point x="692" y="662.498"/>
      <point x="624.399" y="662.498" type="qcurve" smooth="yes"/>
      <point x="606.232" y="662.498"/>
      <point x="550.354" y="667.076"/>
      <point x="527.198" y="671.076" type="qcurve"/>
      <point x="559.27" y="676.099" type="line"/>
      <point x="626.38" y="651.521"/>
      <point x="725.479" y="554.532"/>
      <point x="779.601" y="424.7"/>
      <point x="779.601" y="350" type="qcurve" smooth="yes"/>
      <point x="779.601" y="273.711"/>
      <point x="725.312" y="145.278"/>
      <point x="627.734" y="49.1331"/>
      <point x="496.011" y="-3.86693"/>
    </contour>
    <contour>
      <point x="418.433" y="27.1256" type="qcurve" smooth="yes"/>
      <point x="488.122" y="27.1256"/>
      <point x="607.787" y="76.3917"/>
      <point x="696.608" y="164.213"/>
      <point x="745.874" y="281.312"/>
      <point x="745.874" y="350" type="qcurve" smooth="yes"/>
      <point x="745.874" y="418.688"/>
      <point x="696.608" y="535.787"/>
      <point x="607.787" y="623.608"/>
      <point x="488.122" y="672.874"/>
      <point x="418.433" y="672.874" type="qcurve" smooth="yes"/>
      <point x="348.745" y="672.874"/>
      <point x="228.935" y="623.753"/>
      <point x="140.114" y="535.787"/>
      <point x="90.848" y="418.833"/>
      <point x="90.848" y="350" type="qcurve" smooth="yes"/>
      <point x="90.848" y="281.312"/>
      <point x="140.114" y="164.213"/>
      <point x="228.935" y="76.2472"/>
      <point x="348.745" y="27.1256"/>
    </contour>
  </outline>
</glyph>
<glyph name="uni01E5" format="2">
  <advance width="682"/>
  <unicode hex="01E5"/>
  <outline>
    <contour>
      <point x="323" y="-197.433" type="qcurve" smooth="yes"/>
      <point x="252.567" y="-197.433"/>
      <point x="127.966" y="-152.445"/>
      <point x="89.8098" y="-112.734" type="qcurve"/>
      <point x="109.445" y="-88.4752" type="line"/>
      <point x="148.867" y="-126.175"/>
      <point x="258.578" y="-167.308"/>
      <point x="322.422" y="-167.308" type="qcurve" smooth="yes"/>
      <point x="431.388" y="-167.308"/>
      <point x="535.209" y="-64.4866"/>
      <point x="535.209" y="46.1787" type="qcurve" smooth="yes"/>
      <point x="535.209" y="203.076" type="line"/>
      <point x="545.209" y="270.734" type="line"/>
      <point x="535.932" y="338.536" type="line"/>
      <point x="535.932" y="519.167" type="line"/>
      <point x="568.213" y="519.167" type="line"/>
      <point x="568.213" y="50.4791" type="line" smooth="yes"/>
      <point x="568.213" y="-77.1217"/>
      <point x="445.601" y="-197.433"/>
    </contour>
    <contour>
      <point x="295.544" y="-67.1217" type="line"/>
      <point x="295.544" y="-40.1748" type="line"/>
      <point x="632.213" y="-40.0303" type="line"/>
      <point x="632.213" y="-67.1217" type="line"/>
    </contour>
    <contour>
      <point x="308.578" y="21.4791" type="qcurve" smooth="yes"/>
      <point x="235.711" y="21.4791"/>
      <point x="119.555" y="86.0457"/>
      <point x="51.9772" y="199.612"/>
      <point x="51.9772" y="272.612" type="qcurve" smooth="yes"/>
      <point x="51.9772" y="346.468"/>
      <point x="119.555" y="459.034"/>
      <point x="235.711" y="522.601"/>
      <point x="308.578" y="522.601" type="qcurve" smooth="yes"/>
      <point x="380.711" y="522.601"/>
      <point x="493.422" y="460.335"/>
      <point x="558.856" y="348.202"/>
      <point x="558.856" y="272.612" type="qcurve" smooth="yes"/>
      <point x="558.856" y="197.878"/>
      <point x="493.422" y="84.6008"/>
      <point x="380.711" y="21.4791"/>
    </contour>
    <contour>
      <point x="310.312" y="51.0268" type="qcurve" smooth="yes"/>
      <point x="375.856" y="51.0268"/>
      <point x="476.954" y="107.137"/>
      <point x="535.498" y="207.791"/>
      <point x="535.498" y="272.612" type="qcurve" smooth="yes"/>
      <point x="535.498" y="338.289"/>
      <point x="476.954" y="437.087"/>
      <point x="375.856" y="493.198"/>
      <point x="310.312" y="493.198" type="qcurve" smooth="yes"/>
      <point x="245.768" y="493.198"/>
      <point x="143.669" y="437.087"/>
      <point x="85.1256" y="338.289"/>
      <point x="85.1256" y="272.612" type="qcurve" smooth="yes"/>
      <point x="85.1256" y="207.791"/>
      <point x="143.669" y="107.137"/>
      <point x="245.768" y="51.0268"/>
    </contour>
  </outline>
</glyph>
<glyph name="uni01EA" format="2">
  <advance width="837"/>
  <unicode hex="01EA"/>
  <anchor x="427" y="700" name="t.uni0308"/>
  <outline>
    <contour>
      <point x="415.745" y="-214.878" type="qcurve" smooth="yes"/>
      <point x="373.856" y="-214.878"/>
      <point x="319.833" y="-168.856"/>
      <point x="319.833" y="-128.844" type="qcurve" smooth="yes"/>
      <point x="319.833" y="-106.833"/>
      <point x="342.555" y="-56.6768"/>
      <point x="403.133" y="-4.67678"/>
      <point x="457.844" y="18.7453" type="qcurve"/>
      <point x="443.456" y="-1.86693" type="line"/>
      <point x="436.734" y="-2.86693"/>
      <point x="424.722" y="-3.86693"/>
      <point x="418.433" y="-3.86693" type="qcurve" smooth="yes"/>
      <point x="340.856" y="-3.86693"/>
      <point x="209.133" y="49.1331"/>
      <point x="111.411" y="145.278"/>
      <point x="57.1217" y="273.711"/>
      <point x="57.1217" y="350" type="qcurve" smooth="yes"/>
      <point x="57.1217" y="426.289"/>
      <point x="111.411" y="554.722"/>
      <point x="209.133" y="650.867"/>
      <point x="340.856" y="703.867"/>
      <point x="418.433" y="703.867" type="qcurve" smooth="yes"/>
      <point x="496.011" y="703.867"/>
      <point x="627.734" y="650.867"/>
      <point x="725.312" y="554.722"/>
      <point x="779.601" y="426.289"/>
      <point x="779.601" y="350" type="qcurve" smooth="yes"/>
      <point x="779.601" y="258.433"/>
      <point x="704.323" y="114.011"/>
      <point x="579.901" y="21.7224"/>
      <point x="504.046" y="6" type="qcurve" smooth="yes"/>
      <point x="462.468" y="-2.57795"/>
      <point x="391.479" y="-42.1445"/>
      <point x="348.068" y="-95.6996"/>
      <point x="348.068" y="-127.544" type="qcurve" smooth="yes"/>
      <point x="348.068" y="-158.388"/>
      <point x="388.057" y="-189.521"/>
      <point x="418.335" y="-189.521" type="qcurve" smooth="yes"/>
      <point x="435.19" y="-189.521"/>
      <point x="468.19" y="-177.954"/>
      <point x="480.19" y="-167.532" type="qcurve"/>
      <point x="492.491" y="-188.456" type="line"/>
      <point x="476.057" y="-201.878"/>
      <point x="437.468" y="-214.878"/>
    </contour>
    <contour>
      <point x="418.433" y="27.1256" type="qcurve" smooth="yes"/>
      <point x="488.122" y="27.1256"/>
      <point x="607.787" y="75.3917"/>
      <point x="696.608" y="163.357"/>
      <point x="745.874" y="280.456"/>
      <point x="745.874" y="350" type="qcurve" smooth="yes"/>
      <point x="745.874" y="419.688"/>
      <point x="696.608" y="536.643"/>
      <point x="607.787" y="624.608"/>
      <point x="488.122" y="672.874"/>
      <point x="418.433" y="672.874" type="qcurve" smooth="yes"/>
      <point x="348.745" y="672.874"/>
      <point x="228.935" y="624.608"/>
      <point x="140.114" y="536.643"/>
      <point x="90.848" y="419.688"/>
      <point x="90.848" y="350" type="qcurve" smooth="yes"/>
      <point x="90.848" y="280.456"/>
      <point x="140.114" y="163.357"/>
      <point x="228.935" y="75.3917"/>
      <point x="348.745" y="27.1256"/>
    </contour>
  </outline>
</glyph>
<glyph name="uni01EB" format="2">
  <advance width="614"/>
  <unicode hex="01EB"/>
  <anchor x="350" y="562" name="t.uni0308"/>
  <anchor x="350" y="281" name="t.uni0307_1"/>
  <anchor x="417" y="561" name="t.uni031B_2"/>
  <anchor x="350" y="0" name="b.uni0324_3"/>
  <outline>
    <contour>
      <point x="336.167" y="-214.878" type="qcurve" smooth="yes"/>
      <point x="294.278" y="-214.878"/>
      <point x="240.255" y="-168.856"/>
      <point x="240.255" y="-129.133" type="qcurve" smooth="yes"/>
      <point x="240.255" y="-106.977"/>
      <point x="261.266" y="-57.5323"/>
      <point x="318.133" y="-5.53229"/>
      <point x="372.555" y="18.7453" type="qcurve"/>
      <point x="364.445" y="1.42205" type="line"/>
      <point x="345.878" y="-1.43346"/>
      <point x="320.023" y="-3.43346"/>
      <point x="307.167" y="-3.43346" type="qcurve" smooth="yes"/>
      <point x="233.867" y="-3.43346"/>
      <point x="118.989" y="64"/>
      <point x="51.9772" y="183.578"/>
      <point x="51.9772" y="260.011" type="qcurve" smooth="yes"/>
      <point x="51.9772" y="337.445"/>
      <point x="118.989" y="455.167"/>
      <point x="233.867" y="522.601"/>
      <point x="307.167" y="522.601" type="qcurve" smooth="yes"/>
      <point x="380.468" y="522.601"/>
      <point x="496.346" y="455.167"/>
      <point x="562.357" y="337.445"/>
      <point x="562.357" y="260.011" type="qcurve" smooth="yes"/>
      <point x="562.357" y="175.433"/>
      <point x="483.624" y="50.422"/>
      <point x="415.468" y="18.422" type="qcurve" smooth="yes"/>
      <point x="351.202" y="-11.422"/>
      <point x="288.068" y="-63.1217"/>
      <point x="268.491" y="-107.544"/>
      <point x="268.491" y="-127.399" type="qcurve" smooth="yes"/>
      <point x="268.491" y="-158.388"/>
      <point x="308.479" y="-189.521"/>
      <point x="338.757" y="-189.521" type="qcurve" smooth="yes"/>
      <point x="355.612" y="-189.521"/>
      <point x="388.612" y="-177.954"/>
      <point x="400.612" y="-167.532" type="qcurve"/>
      <point x="412.913" y="-188.456" type="line"/>
      <point x="396.479" y="-201.878"/>
      <point x="357.89" y="-214.878"/>
    </contour>
    <contour>
      <point x="307.167" y="26.6921" type="qcurve" smooth="yes"/>
      <point x="370.711" y="26.6921"/>
      <point x="471.521" y="85.9468"/>
      <point x="529.209" y="191.612"/>
      <point x="529.209" y="260.011" type="qcurve" smooth="yes"/>
      <point x="529.209" y="329.411"/>
      <point x="471.521" y="434.076"/>
      <point x="370.711" y="492.475"/>
      <point x="307.167" y="492.475" type="qcurve" smooth="yes"/>
      <point x="243.768" y="492.475"/>
      <point x="143.814" y="434.076"/>
      <point x="85.1256" y="329.411"/>
      <point x="85.1256" y="260.011" type="qcurve" smooth="yes"/>
      <point x="85.1256" y="191.612"/>
      <point x="143.814" y="85.9468"/>
      <point x="243.768" y="26.6921"/>
    </contour>
  </outline>
</glyph>
<glyph name="uni0237" format="2">
  <advance width="260"/>
  <unicode hex="0237"/>
  <anchor x="188" y="562" name="t.uni0308"/>
  <outline>
    <contour>
      <point x="18.8669" y="-197.433" type="qcurve" smooth="yes"/>
      <point x="-11.711" y="-197.433"/>
      <point x="-68.578" y="-179.867"/>
      <point x="-87.0114" y="-161.3" type="qcurve"/>
      <point x="-70.1217" y="-137.186" type="line"/>
      <point x="-36.8441" y="-167.886"/>
      <point x="17" y="-167.886" type="qcurve" smooth="yes"/>
      <point x="64.9772" y="-167.886"/>
      <point x="115.954" y="-111.764"/>
      <point x="115.954" y="-58.3536" type="qcurve" smooth="yes"/>
      <point x="115.954" y="519.167" type="line"/>
      <point x="148.958" y="519.167" type="line"/>
      <point x="148.958" y="-62.1976" type="line" smooth="yes"/>
      <point x="148.958" y="-123.243"/>
      <point x="81.7681" y="-197.433"/>
    </contour>
  </outline>
</glyph>
<glyph name="uni0259" format="2">
  <advance width="591"/>
  <unicode hex="0259"/>
  <anchor x="341" y="562" name="t.uni0308"/>
  <anchor x="341" y="0" name="b.uni0324_3"/>
  <anchor x="99" y="562" name="m.uni0328_4"/>
  <outline>
    <contour>
      <point x="276.734" y="522.601" type="qcurve" smooth="yes"/>
      <point x="353.612" y="522.601"/>
      <point x="471.635" y="455.167"/>
      <point x="539.357" y="336.589"/>
      <point x="539.357" y="259.156" type="qcurve" smooth="yes"/>
      <point x="539.357" y="182.722"/>
      <point x="476.202" y="64"/>
      <point x="366.034" y="-3.43346"/>
      <point x="295.734" y="-3.43346" type="qcurve" smooth="yes"/>
      <point x="226.289" y="-3.43346"/>
      <point x="115.7" y="63"/>
      <point x="51.9772" y="179.445"/>
      <point x="51.9772" y="255.456" type="qcurve" smooth="yes"/>
      <point x="51.9772" y="258.179"/>
      <point x="52.1217" y="262.635"/>
      <point x="52.2661" y="264.646" type="qcurve"/>
      <point x="517.376" y="264.646" type="line"/>
      <point x="517.376" y="236.977" type="line"/>
      <point x="70.0571" y="236.977" type="line"/>
      <point x="83.2586" y="253.567" type="line"/>
      <point x="83.2586" y="188.456"/>
      <point x="138.802" y="85.3689"/>
      <point x="234.901" y="26.2586"/>
      <point x="295.734" y="26.2586" type="qcurve" smooth="yes"/>
      <point x="357.422" y="26.2586"/>
      <point x="452.81" y="85.3689"/>
      <point x="507.498" y="188.745"/>
      <point x="507.498" y="254" type="qcurve" smooth="yes"/>
      <point x="507.498" y="260.023" type="line" smooth="yes"/>
      <point x="507.498" y="328.989"/>
      <point x="447.81" y="433.22"/>
      <point x="343.422" y="492.475"/>
      <point x="276.3" y="492.475" type="qcurve" smooth="yes"/>
      <point x="225.167" y="492.475"/>
      <point x="134.913" y="454.776"/>
      <point x="104.202" y="415.22" type="qcurve"/>
      <point x="83.5551" y="437.456" type="line"/>
      <point x="118.7" y="479.456"/>
      <point x="220" y="522.601"/>
    </contour>
  </outline>
</glyph>
<glyph name="uni02BE" format="2">
  <advance width="600"/>
  <unicode hex="02BE"/>
  <outline>
    <contour>
      <point x="299" y="596.567" type="qcurve"/>
      <point x="299" y="619.757" type="line"/>
      <point x="330.567" y="619.757"/>
      <point x="369.989" y="660.034"/>
      <point x="369.989" y="689.601" type="qcurve" smooth="yes"/>
      <point x="369.989" y="720.167"/>
      <point x="330.422" y="762.156"/>
      <point x="299" y="762.156" type="qcurve"/>
      <point x="299" y="785.491" type="line"/>
      <point x="327.011" y="785.491"/>
      <point x="369.601" y="758.768"/>
      <point x="394.468" y="715.468"/>
      <point x="394.468" y="689.601" type="qcurve" smooth="yes"/>
      <point x="394.468" y="664.589"/>
      <point x="370.456" y="622.289"/>
      <point x="327.011" y="596.567"/>
    </contour>
  </outline>
</glyph>
<glyph name="uni02BF" format="2">
  <advance width="600"/>
  <unicode hex="02BF"/>
  <outline>
    <contour>
      <point x="299" y="596.567" type="line"/>
      <point x="271.133" y="596.567"/>
      <point x="228.399" y="622.289"/>
      <point x="203.532" y="664.589"/>
      <point x="203.532" y="689.601" type="qcurve" smooth="yes"/>
      <point x="203.532" y="715.468"/>
      <point x="228.399" y="758.768"/>
      <point x="271.989" y="785.491"/>
      <point x="299" y="785.491" type="qcurve"/>
      <point x="299" y="762.156" type="line"/>
      <point x="268.578" y="762.156"/>
      <point x="228.156" y="720.167"/>
      <point x="228.156" y="689.601" type="qcurve" smooth="yes"/>
      <point x="228.156" y="660.034"/>
      <point x="267.578" y="619.757"/>
      <point x="299" y="619.757" type="qcurve"/>
    </contour>
  </outline>
</glyph>
<glyph name="uni02C8" format="2">
  <advance width="157"/>
  <unicode hex="02C8"/>
  <outline>
    <contour>
      <point x="64.5437" y="517.411" type="line"/>
      <point x="64.5437" y="699.144" type="line"/>
      <point x="92.4905" y="699.144" type="line"/>
      <point x="92.4905" y="517.411" type="line"/>
    </contour>
  </outline>
</glyph>
<glyph name="uni02C9" format="2">
  <advance width="600"/>
  <unicode hex="02C9"/>
  <outline>
    <contour>
      <point x="159.376" y="650.266" type="line"/>
      <point x="159.376" y="677.202" type="line"/>
      <point x="440.624" y="677.202" type="line"/>
      <point x="440.624" y="650.266" type="line"/>
    </contour>
  </outline>
</glyph>
<glyph name="uni02CA" format="2">
  <advance width="600"/>
  <unicode hex="02CA"/>
  <outline>
    <contour>
      <point x="249.798" y="607" type="line"/>
      <point x="389.22" y="720.468" type="line"/>
      <point x="443.236" y="720.468" type="line"/>
      <point x="290.202" y="607" type="line"/>
    </contour>
  </outline>
</glyph>
<glyph name="uni02CB" format="2">
  <advance width="600"/>
  <unicode hex="02CB"/>
  <outline>
    <contour>
      <point x="309.798" y="607" type="line"/>
      <point x="156.764" y="720.468" type="line"/>
      <point x="210.78" y="720.468" type="line"/>
      <point x="350.202" y="607" type="line"/>
    </contour>
  </outline>
</glyph>
<glyph name="uni02CC" format="2">
  <advance width="157"/>
  <unicode hex="02CC"/>
  <outline>
    <contour>
      <point x="64.5437" y="-211.734" type="line"/>
      <point x="64.5437" y="-30" type="line"/>
      <point x="92.635" y="-30" type="line"/>
      <point x="92.635" y="-211.734" type="line"/>
    </contour>
  </outline>
</glyph>
<glyph name="gravecomb" format="2">
  <unicode hex="0300"/>
  <anchor x="300" y="562" name="_t.uni0308"/>
  <anchor x="300" y="562" name="_t.uni0308_2"/>
  <anchor x="300" y="562" name="_m.uni0308"/>
  <anchor x="300" y="809" name="m.uni0308"/>
  <outline>
    <contour>
      <point x="309.798" y="607" type="line"/>
      <point x="156.764" y="720.468" type="line"/>
      <point x="210.78" y="720.468" type="line"/>
      <point x="350.202" y="607" type="line"/>
    </contour>
  </outline>
</glyph>
<glyph name="acutecomb" format="2">
  <unicode hex="0301"/>
  <anchor x="300" y="562" name="_t.uni0308"/>
  <anchor x="300" y="562" name="_t.uni0308_2"/>
  <anchor x="300" y="562" name="_m.uni0308"/>
  <anchor x="300" y="809" name="m.uni0308"/>
  <outline>
    <contour>
      <point x="251.243" y="607" type="line"/>
      <point x="289.11" y="720.468" type="line"/>
      <point x="332.403" y="720.468" type="line"/>
      <point x="280.924" y="607" type="line"/>
    </contour>
  </outline>
</glyph>
<glyph name="uni0302" format="2">
  <unicode hex="0302"/>
  <anchor x="300" y="562" name="_t.uni0308"/>
  <anchor x="300" y="562" name="_t.uni0308_2"/>
  <anchor x="300" y="562" name="_m.uni0308"/>
  <anchor x="300" y="799" name="m.uni0308"/>
  <outline>
    <contour>
      <point x="155.065" y="607" type="line"/>
      <point x="278.943" y="720.468" type="line"/>
      <point x="321.057" y="720.468" type="line"/>
      <point x="444.935" y="607" type="line"/>
      <point x="407.821" y="607" type="line"/>
      <point x="290.643" y="705.456" type="line"/>
      <point x="309.357" y="705.456" type="line"/>
      <point x="192.179" y="607" type="line"/>
    </contour>
  </outline>
</glyph>
<glyph name="tildecomb" format="2">
  <unicode hex="0303"/>
  <anchor x="300" y="562" name="_t.uni0308"/>
  <anchor x="300" y="562" name="_t.uni0308_2"/>
  <anchor x="300" y="562" name="_m.uni0308"/>
  <anchor x="300" y="799" name="m.uni0308"/>
  <outline>
    <contour>
      <point x="364.156" y="617.411" type="qcurve" smooth="yes"/>
      <point x="342.722" y="617.411"/>
      <point x="309" y="638.266"/>
      <point x="281.422" y="665.266"/>
      <point x="253.567" y="686.122"/>
      <point x="237" y="686.122" type="qcurve" smooth="yes"/>
      <point x="213.289" y="686.122"/>
      <point x="185.578" y="650.7"/>
      <point x="183.578" y="619.989" type="qcurve"/>
      <point x="158.509" y="619.989" type="line"/>
      <point x="160.509" y="661.878"/>
      <point x="201.821" y="712.057"/>
      <point x="235.844" y="712.057" type="qcurve" smooth="yes"/>
      <point x="257.278" y="712.057"/>
      <point x="291.144" y="691.202"/>
      <point x="318.722" y="664.202"/>
      <point x="346.578" y="643.346"/>
      <point x="363" y="643.346" type="qcurve" smooth="yes"/>
      <point x="386.711" y="643.346"/>
      <point x="415.422" y="678.624"/>
      <point x="416.422" y="707.479" type="qcurve"/>
      <point x="441.491" y="707.479" type="line"/>
      <point x="440.491" y="667.734"/>
      <point x="398.179" y="617.411"/>
    </contour>
  </outline>
</glyph>
<glyph name="uni0304" format="2">
  <unicode hex="0304"/>
  <anchor x="300" y="562" name="_t.uni0308"/>
  <anchor x="300" y="562" name="_t.uni0308_2"/>
  <anchor x="300" y="562" name="_m.uni0308"/>
  <anchor x="300" y="779" name="m.uni0308"/>
  <outline>
    <contour>
      <point x="159.376" y="650.266" type="line"/>
      <point x="159.376" y="674.635" type="line"/>
      <point x="440.624" y="674.635" type="line"/>
      <point x="440.624" y="650.266" type="line"/>
    </contour>
  </outline>
</glyph>
<glyph name="uni0306" format="2">
  <unicode hex="0306"/>
  <anchor x="300" y="562" name="_t.uni0308"/>
  <anchor x="300" y="562" name="_t.uni0308_2"/>
  <anchor x="300" y="562" name="_m.uni0308"/>
  <anchor x="300" y="799" name="m.uni0308"/>
  <outline>
    <contour>
      <point x="300" y="603.567" type="qcurve" smooth="yes"/>
      <point x="243.688" y="603.567"/>
      <point x="164.943" y="666.589"/>
      <point x="162.798" y="720.468" type="qcurve"/>
      <point x="189.745" y="720.468" type="line"/>
      <point x="191.745" y="678.479"/>
      <point x="255.156" y="628.78"/>
      <point x="300" y="628.78" type="qcurve" smooth="yes"/>
      <point x="345.7" y="628.78"/>
      <point x="409.255" y="678.479"/>
      <point x="410.255" y="720.468" type="qcurve"/>
      <point x="437.202" y="720.468" type="line"/>
      <point x="435.913" y="666.589"/>
      <point x="356.312" y="603.567"/>
    </contour>
  </outline>
</glyph>
<glyph name="uni0307" format="2">
  <unicode hex="0307"/>
  <anchor x="300" y="562" name="_t.uni0308"/>
  <anchor x="300" y="729" name="_t.uni0307_1"/>
  <anchor x="300" y="562" name="_t.uni0308_2"/>
  <anchor x="300" y="562" name="_m.uni0308"/>
  <anchor x="300" y="883" name="m.uni0308"/>
  <outline>
    <contour>
      <point x="300" y="638.255" type="qcurve" smooth="yes"/>
      <point x="287.399" y="638.255"/>
      <point x="268.365" y="657.289"/>
      <point x="268.365" y="669.89" type="qcurve" smooth="yes"/>
      <point x="268.365" y="683.346"/>
      <point x="287.399" y="701.525"/>
      <point x="300" y="701.525" type="qcurve" smooth="yes"/>
      <point x="313.456" y="701.525"/>
      <point x="331.635" y="683.346"/>
      <point x="331.635" y="669.89" type="qcurve" smooth="yes"/>
      <point x="331.635" y="657.289"/>
      <point x="313.456" y="638.255"/>
    </contour>
  </outline>
</glyph>
<glyph name="uni0308" format="2">
  <unicode hex="0308"/>
  <anchor x="300" y="562" name="_t.uni0308"/>
  <anchor x="300" y="562" name="_t.uni0308_2"/>
  <anchor x="300" y="562" name="_m.uni0308"/>
  <anchor x="300" y="793" name="m.uni0308"/>
  <outline>
    <contour>
      <point x="383.878" y="638.11" type="qcurve" smooth="yes"/>
      <point x="372" y="638.11"/>
      <point x="353.544" y="656.278"/>
      <point x="353.544" y="668.445" type="qcurve" smooth="yes"/>
      <point x="353.544" y="681.468"/>
      <point x="372" y="698.78"/>
      <point x="383.878" y="698.78" type="qcurve" smooth="yes"/>
      <point x="396.612" y="698.78"/>
      <point x="414.213" y="681.468"/>
      <point x="414.213" y="668.445" type="qcurve" smooth="yes"/>
      <point x="414.213" y="656.278"/>
      <point x="396.612" y="638.11"/>
    </contour>
    <contour>
      <point x="216.122" y="638.11" type="qcurve" smooth="yes"/>
      <point x="204.243" y="638.11"/>
      <point x="185.787" y="656.278"/>
      <point x="185.787" y="668.445" type="qcurve" smooth="yes"/>
      <point x="185.787" y="681.468"/>
      <point x="204.243" y="698.78"/>
      <point x="216.122" y="698.78" type="qcurve" smooth="yes"/>
      <point x="228.856" y="698.78"/>
      <point x="246.456" y="681.468"/>
      <point x="246.456" y="668.445" type="qcurve" smooth="yes"/>
      <point x="246.456" y="656.278"/>
      <point x="228.856" y="638.11"/>
    </contour>
  </outline>
</glyph>
<glyph name="hookabovecomb" format="2">
  <unicode hex="0309"/>
  <anchor x="300" y="562" name="_t.uni0308"/>
  <anchor x="300" y="562" name="_t.uni0308_2"/>
  <anchor x="300" y="562" name="_m.uni0308"/>
  <anchor x="300" y="879" name="m.uni0308"/>
  <outline>
    <contour>
      <point x="304.89" y="602.133" type="qcurve"/>
      <point x="290.989" y="622.034" type="line"/>
      <point x="321.7" y="636.034"/>
      <point x="352.833" y="673.167"/>
      <point x="352.833" y="697.445" type="qcurve" smooth="yes"/>
      <point x="352.833" y="720.011"/>
      <point x="321.411" y="750.144"/>
      <point x="295.844" y="750.144" type="qcurve" smooth="yes"/>
      <point x="263.133" y="750.144"/>
      <point x="234.133" y="731.144" type="qcurve"/>
      <point x="223.821" y="752.913" type="line"/>
      <point x="238.688" y="763.635"/>
      <point x="278.422" y="775.213"/>
      <point x="296.578" y="775.213" type="qcurve" smooth="yes"/>
      <point x="334.167" y="775.213"/>
      <point x="379.479" y="734.19"/>
      <point x="379.479" y="699.601" type="qcurve" smooth="yes"/>
      <point x="379.479" y="668.3"/>
      <point x="343.612" y="620.422"/>
    </contour>
  </outline>
</glyph>
<glyph name="uni030B" format="2">
  <unicode hex="030B"/>
  <anchor x="300" y="562" name="_t.uni0308"/>
  <anchor x="300" y="562" name="_t.uni0308_2"/>
  <anchor x="300" y="562" name="_m.uni0308"/>
  <anchor x="300" y="809" name="m.uni0308"/>
  <outline>
    <contour>
      <point x="354.411" y="607" type="line"/>
      <point x="461.654" y="720.468" type="line"/>
      <point x="507.213" y="720.468" type="line"/>
      <point x="390.658" y="607" type="line"/>
    </contour>
    <contour>
      <point x="209.342" y="607" type="line"/>
      <point x="316.73" y="720.468" type="line"/>
      <point x="362.289" y="720.468" type="line"/>
      <point x="245.589" y="607" type="line"/>
    </contour>
  </outline>
</glyph>
<glyph name="uni030C" format="2">
  <unicode hex="030C"/>
  <anchor x="300" y="562" name="_t.uni0308"/>
  <anchor x="300" y="562" name="_t.uni0308_2"/>
  <anchor x="300" y="562" name="_m.uni0308"/>
  <anchor x="300" y="799" name="m.uni0308"/>
  <outline>
    <contour>
      <point x="278.943" y="607" type="line"/>
      <point x="155.065" y="720.468" type="line"/>
      <point x="192.179" y="720.468" type="line"/>
      <point x="309.357" y="622.156" type="line"/>
      <point x="290.643" y="622.156" type="line"/>
      <point x="407.821" y="720.468" type="line"/>
      <point x="444.935" y="720.468" type="line"/>
      <point x="321.057" y="607" type="line"/>
    </contour>
  </outline>
</glyph>
<glyph name="uni030F" format="2">
  <unicode hex="030F"/>
  <anchor x="300" y="562" name="_t.uni0308"/>
  <anchor x="300" y="562" name="_t.uni0308_2"/>
  <anchor x="300" y="562" name="_m.uni0308"/>
  <anchor x="300" y="809" name="m.uni0308"/>
  <outline>
    <contour>
      <point x="354.411" y="607" type="line"/>
      <point x="237.711" y="720.468" type="line"/>
      <point x="283.27" y="720.468" type="line"/>
      <point x="390.658" y="607" type="line"/>
    </contour>
    <contour>
      <point x="209.342" y="607" type="line"/>
      <point x="92.787" y="720.468" type="line"/>
      <point x="138.346" y="720.468" type="line"/>
      <point x="245.589" y="607" type="line"/>
    </contour>
  </outline>
</glyph>
<glyph name="uni0311" format="2">
  <unicode hex="0311"/>
  <anchor x="300" y="562" name="_t.uni0308"/>
  <anchor x="300" y="562" name="_t.uni0308_2"/>
  <anchor x="300" y="562" name="_m.uni0308"/>
  <anchor x="300" y="799" name="m.uni0308"/>
  <outline>
    <contour>
      <point x="162.798" y="607" type="line"/>
      <point x="164.943" y="661.734"/>
      <point x="243.688" y="723.901"/>
      <point x="300" y="723.901" type="qcurve" smooth="yes"/>
      <point x="356.312" y="723.901"/>
      <point x="435.913" y="661.734"/>
      <point x="437.202" y="607" type="qcurve"/>
      <point x="410.255" y="607" type="line"/>
      <point x="409.255" y="649.844"/>
      <point x="345.7" y="698.688"/>
      <point x="300" y="698.688" type="qcurve" smooth="yes"/>
      <point x="255.156" y="698.688"/>
      <point x="191.745" y="649.844"/>
      <point x="189.745" y="607" type="qcurve"/>
    </contour>
  </outline>
</glyph>
<glyph name="uni0312" format="2">
  <unicode hex="0312"/>
  <anchor x="300" y="562" name="_t.uni0308"/>
  <anchor x="300" y="562" name="_t.uni0308_2"/>
  <anchor x="300" y="562" name="_m.uni0308"/>
  <anchor x="300" y="853" name="m.uni0308"/>
  <outline>
    <contour>
      <point x="300" y="603.567" type="qcurve" smooth="yes"/>
      <point x="285.399" y="603.567"/>
      <point x="268.943" y="622.156"/>
      <point x="268.943" y="632.89" type="qcurve" smooth="yes"/>
      <point x="268.943" y="641.323"/>
      <point x="273.376" y="656.057"/>
      <point x="275.532" y="665.502" type="qcurve"/>
      <point x="305.122" y="764.491" type="line"/>
      <point x="329.479" y="764.491" type="line"/>
      <point x="302.878" y="646.878" type="line"/>
      <point x="300" y="662.213" type="line"/>
      <point x="313.601" y="662.213"/>
      <point x="331.057" y="645.624"/>
      <point x="331.057" y="632.89" type="qcurve" smooth="yes"/>
      <point x="331.057" y="621.156"/>
      <point x="313.745" y="603.567"/>
    </contour>
  </outline>
</glyph>
<glyph name="uni031B" format="2">
  <unicode hex="031B"/>
  <anchor x="300" y="562" name="_t.uni031B_2"/>
  <outline>
    <contour>
      <point x="288.7" y="491.065" type="line"/>
      <point x="288.7" y="519.167" type="line"/>
      <point x="300" y="519.167" type="line" smooth="yes"/>
      <point x="337.989" y="519.167"/>
      <point x="368.989" y="560.445"/>
      <point x="368.989" y="588.445" type="qcurve" smooth="yes"/>
      <point x="368.989" y="608.156"/>
      <point x="357.133" y="641.011"/>
      <point x="348.989" y="654.722" type="qcurve"/>
      <point x="374.357" y="665.323" type="line"/>
      <point x="384.935" y="649.89"/>
      <point x="397.369" y="609.734"/>
      <point x="397.369" y="588.722" type="qcurve" smooth="yes"/>
      <point x="397.369" y="547.677"/>
      <point x="351.456" y="491.065"/>
      <point x="300" y="491.065" type="qcurve" smooth="yes"/>
    </contour>
  </outline>
</glyph>
<glyph name="dotbelowcomb" format="2">
  <unicode hex="0323"/>
  <anchor x="300" y="-229" name="t.uni0324"/>
  <outline>
    <contour>
      <point x="300" y="-179.468" type="qcurve" smooth="yes"/>
      <point x="288.122" y="-179.468"/>
      <point x="269.665" y="-161.445"/>
      <point x="269.665" y="-149.278" type="qcurve" smooth="yes"/>
      <point x="269.665" y="-136.255"/>
      <point x="288.122" y="-118.798"/>
      <point x="300" y="-118.798" type="qcurve" smooth="yes"/>
      <point x="312.734" y="-118.798"/>
      <point x="330.335" y="-136.255"/>
      <point x="330.335" y="-149.278" type="qcurve" smooth="yes"/>
      <point x="330.335" y="-161.445"/>
      <point x="312.734" y="-179.468"/>
    </contour>
  </outline>
</glyph>
<glyph name="uni0324" format="2">
  <unicode hex="0324"/>
  <anchor x="300" y="-206" name="t.uni0324"/>
  <outline>
    <contour>
      <point x="377.023" y="-178.89" type="qcurve" smooth="yes"/>
      <point x="365.289" y="-178.89"/>
      <point x="346.977" y="-160.867"/>
      <point x="346.977" y="-148.844" type="qcurve" smooth="yes"/>
      <point x="346.977" y="-136.11"/>
      <point x="365.289" y="-118.798"/>
      <point x="377.023" y="-118.798" type="qcurve" smooth="yes"/>
      <point x="389.612" y="-118.798"/>
      <point x="407.068" y="-136.11"/>
      <point x="407.068" y="-148.844" type="qcurve" smooth="yes"/>
      <point x="407.068" y="-160.867"/>
      <point x="389.612" y="-178.89"/>
    </contour>
    <contour>
      <point x="222.977" y="-178.89" type="qcurve" smooth="yes"/>
      <point x="211.243" y="-178.89"/>
      <point x="193.076" y="-160.867"/>
      <point x="193.076" y="-148.844" type="qcurve" smooth="yes"/>
      <point x="193.076" y="-136.11"/>
      <point x="211.243" y="-118.798"/>
      <point x="222.977" y="-118.798" type="qcurve" smooth="yes"/>
      <point x="235.711" y="-118.798"/>
      <point x="253.167" y="-136.11"/>
      <point x="253.167" y="-148.844" type="qcurve" smooth="yes"/>
      <point x="253.167" y="-160.867"/>
      <point x="235.711" y="-178.89"/>
    </contour>
  </outline>
</glyph>
<glyph name="uni0326" format="2">
  <unicode hex="0326"/>
  <anchor x="300" y="-229" name="t.uni0324"/>
  <outline>
    <contour>
      <point x="275.388" y="-259.722" type="line"/>
      <point x="297.555" y="-162.255" type="line"/>
      <point x="300" y="-177.589" type="line"/>
      <point x="287.688" y="-177.589"/>
      <point x="269.665" y="-160"/>
      <point x="269.665" y="-148.266" type="qcurve" smooth="yes"/>
      <point x="269.665" y="-135.677"/>
      <point x="286.977" y="-118.798"/>
      <point x="300" y="-118.798" type="qcurve" smooth="yes"/>
      <point x="314.023" y="-118.798"/>
      <point x="330.335" y="-137.532"/>
      <point x="330.335" y="-148.266" type="qcurve" smooth="yes"/>
      <point x="330.335" y="-156.7"/>
      <point x="326.046" y="-174.289"/>
      <point x="323.034" y="-183.589" type="qcurve" smooth="yes"/>
      <point x="298.878" y="-259.722" type="line"/>
    </contour>
  </outline>
</glyph>
<glyph name="uni0327" format="2">
  <unicode hex="0327"/>
  <outline>
    <contour>
      <point x="282.411" y="-214.878" type="qcurve" smooth="yes"/>
      <point x="260.544" y="-214.878"/>
      <point x="223.243" y="-202.167"/>
      <point x="205.954" y="-188.745" type="qcurve"/>
      <point x="218.544" y="-167.966" type="line"/>
      <point x="231.266" y="-178.532"/>
      <point x="264.266" y="-189.954"/>
      <point x="281.555" y="-189.954" type="qcurve" smooth="yes"/>
      <point x="312.266" y="-189.954"/>
      <point x="350.954" y="-160.544"/>
      <point x="350.954" y="-133.278" type="qcurve" smooth="yes"/>
      <point x="350.954" y="-108.722"/>
      <point x="315.544" y="-76.8898"/>
      <point x="282.266" y="-76.8898" type="qcurve" smooth="yes"/>
      <point x="264.388" y="-76.8898" type="line"/>
      <point x="286.966" y="5.28898" type="line"/>
      <point x="312.034" y="5.28898" type="line"/>
      <point x="295.468" y="-54.9886" type="line"/>
      <point x="334.335" y="-57.2776"/>
      <point x="379.19" y="-100"/>
      <point x="379.19" y="-133.856" type="qcurve" smooth="yes"/>
      <point x="379.19" y="-170.867"/>
      <point x="324.3" y="-214.878"/>
    </contour>
  </outline>
</glyph>
<glyph name="uni0328" format="2">
  <unicode hex="0328"/>
  <anchor x="300" y="0" name="_m.uni0328_4"/>
  <outline>
    <contour>
      <point x="242.977" y="-214.878" type="qcurve" smooth="yes"/>
      <point x="201.087" y="-214.878"/>
      <point x="147.065" y="-168.856"/>
      <point x="147.065" y="-128.844" type="qcurve" smooth="yes"/>
      <point x="147.065" y="-106.833"/>
      <point x="169.076" y="-57.6768"/>
      <point x="228.798" y="-5.67678"/>
      <point x="285.076" y="18.7453" type="qcurve"/>
      <point x="301" y="0" type="line"/>
      <point x="247.878" y="-22.422"/>
      <point x="194.167" y="-67.9772"/>
      <point x="175.3" y="-109.255"/>
      <point x="175.3" y="-127.544" type="qcurve" smooth="yes"/>
      <point x="175.3" y="-158.388"/>
      <point x="215.289" y="-189.521"/>
      <point x="245.567" y="-189.521" type="qcurve" smooth="yes"/>
      <point x="262.422" y="-189.521"/>
      <point x="295.422" y="-177.954"/>
      <point x="307.422" y="-167.532" type="qcurve"/>
      <point x="319.722" y="-188.456" type="line"/>
      <point x="303.289" y="-201.878"/>
      <point x="264.7" y="-214.878"/>
    </contour>
  </outline>
</glyph>
<glyph name="uni032E" format="2">
  <unicode hex="032E"/>
  <anchor x="300" y="-232" name="t.uni0324"/>
  <outline>
    <contour>
      <point x="300" y="-199.878" type="qcurve" smooth="yes"/>
      <point x="243.688" y="-199.878"/>
      <point x="164.943" y="-139.856"/>
      <point x="162.798" y="-88.4106" type="qcurve"/>
      <point x="189.312" y="-88.4106" type="line"/>
      <point x="191.023" y="-128.399"/>
      <point x="254.722" y="-175.099"/>
      <point x="300" y="-175.099" type="qcurve" smooth="yes"/>
      <point x="346.133" y="-175.099"/>
      <point x="409.833" y="-128.399"/>
      <point x="410.688" y="-88.4106" type="qcurve"/>
      <point x="437.202" y="-88.4106" type="line"/>
      <point x="435.913" y="-139.856"/>
      <point x="356.312" y="-199.878"/>
    </contour>
  </outline>
</glyph>
<glyph name="uni0331" format="2">
  <unicode hex="0331"/>
  <anchor x="300" y="-204" name="t.uni0324"/>
  <outline>
    <contour>
      <point x="159.376" y="-162.312" type="line"/>
      <point x="159.376" y="-135.376" type="line"/>
      <point x="440.624" y="-135.376" type="line"/>
      <point x="440.624" y="-162.312" type="line"/>
    </contour>
  </outline>
</glyph>
<glyph name="uni0335" format="2">
  <unicode hex="0335"/>
  <anchor x="300" y="429" name="_t.uni0307_1"/>
  <outline>
    <contour>
      <point x="109.411" y="427.232" type="line"/>
      <point x="109.411" y="454.612" type="line"/>
      <point x="490.589" y="454.612" type="line"/>
      <point x="490.589" y="427.232" type="line"/>
    </contour>
  </outline>
</glyph>
<glyph name="uni0336" format="2">
  <unicode hex="0336"/>
  <anchor x="544" y="429" name="_t.uni0307_1"/>
  <outline>
    <contour>
      <point x="15.6122" y="426.22" type="line"/>
      <point x="15.6122" y="455.479" type="line"/>
      <point x="796.958" y="455.479" type="line"/>
      <point x="796.958" y="426.22" type="line"/>
    </contour>
  </outline>
</glyph>
<glyph name="uni0337" format="2">
  <unicode hex="0337"/>
  <anchor x="364" y="412" name="_t.uni0307_1"/>
  <outline>
    <contour>
      <point x="67.7795" y="291.776" type="line"/>
      <point x="51.289" y="313.144" type="line"/>
      <point x="256.715" y="465.403" type="line"/>
      <point x="273.205" y="443.89" type="line"/>
    </contour>
  </outline>
</glyph>
<glyph name="uni0338" format="2">
  <unicode hex="0338"/>
  <anchor x="337" y="282" name="_t.uni0307_1"/>
  <outline>
    <contour>
      <point x="66.8441" y="-70" type="line"/>
      <point x="511.977" y="589.023" type="line"/>
      <point x="541.19" y="589.023" type="line"/>
      <point x="96.0571" y="-70" type="line"/>
    </contour>
  </outline>
</glyph>
<glyph name="tonos" format="2">
  <advance width="105"/>
  <unicode hex="0384"/>
  <anchor x="-19.3232" y="809" name="t.uni0308"/>
  <anchor x="-19.3232" y="0" name="b.uni0324_3"/>
  <anchor x="138.677" y="0" name="m.uni0328_4"/>
  <outline>
    <contour>
      <point x="14.9772" y="607" type="line"/>
      <point x="52.8441" y="720.468" type="line"/>
      <point x="96.137" y="720.468" type="line"/>
      <point x="44.6579" y="607" type="line"/>
    </contour>
  </outline>
</glyph>
<glyph name="Epsilontonos" format="2">
  <advance width="727"/>
  <unicode hex="0388"/>
  <anchor x="394.148" y="700" name="t.uni0308"/>
  <anchor x="386.148" y="0" name="b.uni0324_3"/>
  <anchor x="715.148" y="0" name="m.uni0328_4"/>
  <outline>
    <contour>
      <point x="215.384" y="370.635" type="line"/>
      <point x="601.038" y="370.635" type="line"/>
      <point x="601.038" y="340.365" type="line"/>
      <point x="215.384" y="340.365" type="line"/>
    </contour>
    <contour>
      <point x="220.962" y="30.559" type="line"/>
      <point x="660.605" y="30.559" type="line"/>
      <point x="660.605" y="0" type="line"/>
      <point x="187.38" y="0" type="line"/>
      <point x="187.38" y="700" type="line"/>
      <point x="645.749" y="700" type="line"/>
      <point x="645.749" y="669.441" type="line"/>
      <point x="220.962" y="669.441" type="line"/>
    </contour>
    <contour>
      <point x="31.6882" y="607" type="line"/>
      <point x="69.5551" y="720.468" type="line"/>
      <point x="112.848" y="720.468" type="line"/>
      <point x="61.3689" y="607" type="line"/>
    </contour>
  </outline>
</glyph>
<glyph name="Etatonos" format="2">
  <advance width="856"/>
  <unicode hex="0389"/>
  <anchor x="439.738" y="700" name="t.uni0308"/>
  <anchor x="439.738" y="594" name="t.uni0307_1"/>
  <anchor x="439.738" y="0" name="b.uni0324_3"/>
  <outline>
    <contour>
      <point x="694.202" y="700" type="line"/>
      <point x="727.783" y="700" type="line"/>
      <point x="727.783" y="0" type="line"/>
      <point x="694.202" y="0" type="line"/>
    </contour>
    <contour>
      <point x="202.552" y="0" type="line"/>
      <point x="168.97" y="0" type="line"/>
      <point x="168.97" y="700" type="line"/>
      <point x="202.552" y="700" type="line"/>
    </contour>
    <contour>
      <point x="699.78" y="340.22" type="line"/>
      <point x="196.829" y="340.22" type="line"/>
      <point x="196.829" y="370.78" type="line"/>
      <point x="699.78" y="370.78" type="line"/>
    </contour>
    <contour>
      <point x="16.2661" y="607" type="line"/>
      <point x="54.1331" y="720.468" type="line"/>
      <point x="97.426" y="720.468" type="line"/>
      <point x="45.9468" y="607" type="line"/>
    </contour>
  </outline>
</glyph>
<glyph name="Iotatonos" format="2">
  <advance width="341"/>
  <unicode hex="038A"/>
  <anchor x="240.437" y="700" name="t.uni0308"/>
  <anchor x="240.437" y="0" name="b.uni0324_3"/>
  <anchor x="405.437" y="0" name="m.uni0328_4"/>
  <outline>
    <contour>
      <point x="179.669" y="0" type="line"/>
      <point x="179.669" y="700" type="line"/>
      <point x="213.251" y="700" type="line"/>
      <point x="213.251" y="0" type="line"/>
    </contour>
    <contour>
      <point x="14.6996" y="607" type="line"/>
      <point x="52.5665" y="720.468" type="line"/>
      <point x="95.8594" y="720.468" type="line"/>
      <point x="44.3803" y="607" type="line"/>
    </contour>
  </outline>
</glyph>
<glyph name="Omicrontonos" format="2">
  <advance width="837"/>
  <unicode hex="038C"/>
  <anchor x="427" y="700" name="t.uni0308"/>
  <anchor x="427" y="350" name="t.uni0307_1"/>
  <anchor x="556" y="700" name="t.uni031B_2"/>
  <anchor x="427" y="0" name="b.uni0324_3"/>
  <anchor x="581" y="0" name="m.uni0328_4"/>
  <outline>
    <contour>
      <point x="418.433" y="-3.86693" type="qcurve" smooth="yes"/>
      <point x="340.856" y="-3.86693"/>
      <point x="208.989" y="49.2776"/>
      <point x="111.411" y="145.422"/>
      <point x="57.1217" y="273.856"/>
      <point x="57.1217" y="350" type="qcurve" smooth="yes"/>
      <point x="57.1217" y="426.144"/>
      <point x="111.411" y="554.578"/>
      <point x="208.989" y="650.722"/>
      <point x="340.856" y="703.867"/>
      <point x="418.433" y="703.867" type="qcurve" smooth="yes"/>
      <point x="496.011" y="703.867"/>
      <point x="627.734" y="650.867"/>
      <point x="725.312" y="554.722"/>
      <point x="779.601" y="426.289"/>
      <point x="779.601" y="350" type="qcurve" smooth="yes"/>
      <point x="779.601" y="273.711"/>
      <point x="725.312" y="145.278"/>
      <point x="627.734" y="49.1331"/>
      <point x="496.011" y="-3.86693"/>
    </contour>
    <contour>
      <point x="418.433" y="27.1256" type="qcurve" smooth="yes"/>
      <point x="488.122" y="27.1256"/>
      <point x="607.787" y="75.3917"/>
      <point x="696.608" y="163.357"/>
      <point x="745.874" y="280.456"/>
      <point x="745.874" y="350" type="qcurve" smooth="yes"/>
      <point x="745.874" y="419.688"/>
      <point x="696.608" y="536.643"/>
      <point x="607.787" y="624.608"/>
      <point x="488.122" y="672.874"/>
      <point x="418.433" y="672.874" type="qcurve" smooth="yes"/>
      <point x="348.745" y="672.874"/>
      <point x="228.935" y="624.608"/>
      <point x="140.114" y="536.643"/>
      <point x="90.848" y="419.688"/>
      <point x="90.848" y="350" type="qcurve" smooth="yes"/>
      <point x="90.848" y="280.456"/>
      <point x="140.114" y="163.357"/>
      <point x="228.935" y="75.3917"/>
      <point x="348.745" y="27.1256"/>
    </contour>
    <contour>
      <point x="20.8327" y="607" type="line"/>
      <point x="58.6996" y="720.468" type="line"/>
      <point x="101.993" y="720.468" type="line"/>
      <point x="50.5134" y="607" type="line"/>
    </contour>
  </outline>
</glyph>
<glyph name="Upsilontonos" format="2">
  <advance width="794"/>
  <unicode hex="038E"/>
  <anchor x="554.536" y="700" name="t.uni0308"/>
  <anchor x="545.536" y="277" name="t.uni0307_1"/>
  <anchor x="554.536" y="0" name="b.uni0324_3"/>
  <outline>
    <contour>
      <point x="468.924" y="0" type="line"/>
      <point x="468.924" y="248.901" type="line"/>
      <point x="476.958" y="225.954" type="line"/>
      <point x="185.224" y="700" type="line"/>
      <point x="222.529" y="700" type="line"/>
      <point x="494.628" y="258.202" type="line"/>
      <point x="477.958" y="258.202" type="line"/>
      <point x="750.202" y="700" type="line"/>
      <point x="786.205" y="700" type="line"/>
      <point x="494.472" y="225.954" type="line"/>
      <point x="502.506" y="248.901" type="line"/>
      <point x="502.506" y="0" type="line"/>
    </contour>
    <contour>
      <point x="20.8327" y="607" type="line"/>
      <point x="58.6996" y="720.468" type="line"/>
      <point x="101.993" y="720.468" type="line"/>
      <point x="50.5134" y="607" type="line"/>
    </contour>
  </outline>
</glyph>
<glyph name="Omegatonos" format="2">
  <advance width="908"/>
  <unicode hex="038F"/>
  <outline>
    <contour>
      <point x="9.85551" y="0" type="line"/>
      <point x="9.85551" y="31.4146" type="line"/>
      <point x="274.696" y="31.4146" type="line"/>
      <point x="183.909" y="86.1142"/>
      <point x="92.9658" y="256.757"/>
      <point x="92.9658" y="351.589" type="qcurve" smooth="yes"/>
      <point x="92.9658" y="427.734"/>
      <point x="147.255" y="555.734"/>
      <point x="244.977" y="651.3"/>
      <point x="376.7" y="703.867"/>
      <point x="453.989" y="703.867" type="qcurve" smooth="yes"/>
      <point x="531.422" y="703.867"/>
      <point x="663" y="651.3"/>
      <point x="760.722" y="555.734"/>
      <point x="815.011" y="427.734"/>
      <point x="815.011" y="351.589" type="qcurve" smooth="yes"/>
      <point x="815.011" y="256.757"/>
      <point x="724.068" y="86.1142"/>
      <point x="633.281" y="31.4146" type="qcurve"/>
      <point x="898.122" y="31.4146" type="line"/>
      <point x="898.122" y="0" type="line"/>
      <point x="573.643" y="0" type="line"/>
      <point x="573.643" y="29.5476" type="line"/>
      <point x="676.319" y="82.6693"/>
      <point x="781.285" y="252.468"/>
      <point x="781.285" y="350.722" type="qcurve" smooth="yes"/>
      <point x="781.285" y="420.411"/>
      <point x="732.163" y="537.365"/>
      <point x="643.631" y="624.897"/>
      <point x="523.821" y="672.874"/>
      <point x="453.989" y="672.874" type="qcurve" smooth="yes"/>
      <point x="384.156" y="672.874"/>
      <point x="264.346" y="624.897"/>
      <point x="175.814" y="537.365"/>
      <point x="126.692" y="420.411"/>
      <point x="126.692" y="350.722" type="qcurve" smooth="yes"/>
      <point x="126.692" y="252.468"/>
      <point x="231.658" y="82.5248"/>
      <point x="334.335" y="29.5476" type="qcurve"/>
      <point x="334.335" y="0" type="line"/>
    </contour>
    <contour>
      <point x="27.3992" y="607" type="line"/>
      <point x="65.2661" y="720.468" type="line"/>
      <point x="108.559" y="720.468" type="line"/>
      <point x="57.0799" y="607" type="line"/>
    </contour>
  </outline>
</glyph>
<glyph name="iotadieresistonos" format="2">
  <advance width="450"/>
  <unicode hex="0390"/>
  <anchor x="289.122" y="562" name="t.uni0308"/>
  <anchor x="289.122" y="0" name="b.uni0324_3"/>
  <anchor x="447.122" y="0" name="m.uni0328_4"/>
  <outline>
    <contour>
      <point x="209.81" y="0" type="line"/>
      <point x="209.81" y="519.167" type="line"/>
      <point x="242.814" y="519.167" type="line"/>
      <point x="242.814" y="0" type="line"/>
    </contour>
    <contour>
      <point x="217.821" y="667.426" type="line"/>
      <point x="255.688" y="780.894" type="line"/>
      <point x="298.981" y="780.894" type="line"/>
      <point x="247.502" y="667.426" type="line"/>
    </contour>
    <contour>
      <point x="309.046" y="568.468" type="qcurve" smooth="yes"/>
      <point x="297.167" y="568.468"/>
      <point x="278.711" y="586.635"/>
      <point x="278.711" y="598.802" type="qcurve" smooth="yes"/>
      <point x="278.711" y="611.825"/>
      <point x="297.167" y="629.137"/>
      <point x="309.046" y="629.137" type="qcurve" smooth="yes"/>
      <point x="321.78" y="629.137"/>
      <point x="339.38" y="611.825"/>
      <point x="339.38" y="598.802" type="qcurve" smooth="yes"/>
      <point x="339.38" y="586.635"/>
      <point x="321.78" y="568.468"/>
    </contour>
    <contour>
      <point x="141.289" y="568.468" type="qcurve" smooth="yes"/>
      <point x="129.411" y="568.468"/>
      <point x="110.954" y="586.635"/>
      <point x="110.954" y="598.802" type="qcurve" smooth="yes"/>
      <point x="110.954" y="611.825"/>
      <point x="129.411" y="629.137"/>
      <point x="141.289" y="629.137" type="qcurve" smooth="yes"/>
      <point x="154.023" y="629.137"/>
      <point x="171.624" y="611.825"/>
      <point x="171.624" y="598.802" type="qcurve" smooth="yes"/>
      <point x="171.624" y="586.635"/>
      <point x="154.023" y="568.468"/>
    </contour>
  </outline>
</glyph>
<glyph name="Alpha" format="2">
  <advance width="696"/>
  <unicode hex="0391"/>
  <anchor x="429" y="700" name="t.uni0308"/>
  <anchor x="429" y="0" name="b.uni0324_3"/>
  <anchor x="889" y="0" name="m.uni0328_4"/>
  <outline>
    <contour>
      <point x="7.26614" y="0" type="line"/>
      <point x="330.966" y="700" type="line"/>
      <point x="364.403" y="700" type="line"/>
      <point x="688.247" y="0" type="line"/>
      <point x="651.232" y="0" type="line"/>
      <point x="340.011" y="677.209" type="line"/>
      <point x="355.213" y="677.209" type="line"/>
      <point x="43.9925" y="0" type="line"/>
    </contour>
    <contour>
      <point x="119.034" y="204.787" type="line"/>
      <point x="132.068" y="234.335" type="line"/>
      <point x="559.989" y="234.335" type="line"/>
      <point x="573.167" y="204.787" type="line"/>
    </contour>
  </outline>
</glyph>
